<svg id="svg850" width="211.67mm" height="183.09mm" version="1.1" viewBox="0 0 211.67 183.09" xmlns="http://www.w3.org/2000/svg"><g id="layer1" transform="translate(-39.509 -68.084)"><path id="path1142" d="m180.52 123.04c.0491.71864.10371 1.4427.14192 2.0416.20196 2.9781.40392 5.9725.57314 8.836.17467 2.9726.32205 5.907.42029 8.7166v.0544c.0109 2.3683.0382 8.776-5.12 8.8196-3.3678.005-6.8123.0217-10.284.0381-5.9878.0272-12.063.0544-17.926.0327-3.3569-.0708-6.845-1.2467-9.4866-3.272-2.3034-1.7694-3.9464-4.1758-4.2357-7.0342-.16376-1.6387-.0382-3.1196.28384-4.5297.32204-1.4264.86789-2.8147 1.5283-4.2357.5786-1.2467 1.2773-2.5153 1.9978-3.8274.60041-1.0943 1.2172-2.2104 1.7849-3.3482.49671-.99087.98798-2.0307 1.4574-3.1468.27292-.64786.53492-1.3121.78053-2.0035l.44759-1.3665c-.43667-.17422-.8788-.34844-1.3373-.52265-.72594 2.341-1.6593 4.4371-2.6419 6.3973-1.2827 2.5697-2.7128 4.8836-3.799 7.2136-1.3919 2.9998-2.298 5.9016-1.9323 9.5111.69868 6.9361 8.1767 11.455 15.125 11.596 9.2794.0381 19.094-.049 28.247-.0653 6.67-.0599 6.5554-7.6766 6.5445-10.355-.19105-5.7603-.58951-11.732-.98798-17.602-.14738-2.1886-.33296-4.4208-.43122-6.5058-.47488.1851-1.0207.39198-1.4738.57167.0928 1.4046.21834 2.5534.32205 3.9852z" fill-rule="evenodd"/></g></svg>
