<svg id="svg5" width="91.687mm" height="63.682mm" version="1.1" viewBox="0 0 91.687 63.682" xmlns="http://www.w3.org/2000/svg"><g id="layer1" transform="translate(-44.232 -91.528)"><path id="path1142" d="m131.2 100.23c.0901 1.3178.19018 2.6456.26024 3.7438.37034 5.461.74069 10.952 1.051 16.203.32029 5.451.59055 10.832.77071 15.984v.0998c.02 4.3428.0701 16.093-9.3887 16.173-6.1757.01-12.492.0399-18.858.0699-10.98.0499-22.121.0998-32.871.0599-6.1557-.12979-12.552-2.2862-17.396-6.0001-4.2239-3.2446-7.2367-7.6574-7.7672-12.899-.30028-3.005-.07007-5.7206.52048-8.3063.59055-2.6157 1.5915-5.1615 2.8026-7.7672 1.061-2.2862 2.3422-4.6124 3.6634-7.0184 1.101-2.0067 2.2321-4.0533 3.273-6.1398.91085-1.817 1.8117-3.7238 2.6725-5.7705.50046-1.188.98091-2.406 1.4313-3.6739l.82076-2.5059c-.80074-.31947-1.6115-.63894-2.4523-.95841-1.3312 4.2929-3.0428 8.1366-4.8445 11.731-2.3522 4.7122-4.9746 8.9552-6.9665 13.228-2.5524 5.5009-4.2139 10.822-3.5433 17.441 1.2812 12.719 14.994 21.005 27.736 21.265 17.016.0699 35.013-.0899 51.798-.1198 12.231-.10982 12.021-14.077 12.001-18.989-.35033-10.563-1.081-21.514-1.8117-32.277-.27025-4.0134-.61057-8.1066-.79074-11.93-.87081.33944-1.8717.71881-2.7025 1.0483.17016 2.5757.40037 4.6823.59055 7.3079z" fill-rule="evenodd"/></g></svg>
