<svg id="svg5" width="91.693mm" height="63.679mm" version="1.1" viewBox="0 0 91.693 63.679" xmlns="http://www.w3.org/2000/svg"><g id="layer1" transform="translate(33.84 -18.836)"><path id="path1135" d="m55.239 19.185c.02.26956.05 1.0083.0701 1.2779.17016 2.4959.34032 4.9918.51048 7.4876.82076 11.741 1.6415 23.571 2.0319 35.352v.0898c.02 5.1415.0801 18.969-12.001 18.989-6.1557.01-12.492.0399-18.868.0699-11 .0399-22.161.0898-32.931.0499h-.01001c-6.6161-.0499-13.543-2.3761-18.817-6.4094-4.8145-3.6739-8.2677-8.7655-8.9083-14.855-1.0009-9.4444 2.9728-16.722 7.4369-24.909 2.7425-5.0516 5.6853-10.443 7.7272-16.882.05005-.14975.14013-.46922.18017-.60899l1.2512.44926c-.04004.1198-.1101.35941-.15014.47921-2.0819 6.5891-5.0647 12.07-7.8573 17.192-4.354 7.9868-8.2377 15.095-7.2768 24.15.60056 5.6906 3.8536 10.473 8.3978 13.937 5.0547 3.8636 11.691 6.0899 18.027 6.1498 10.77.0399 21.93-.01 32.921-.0599 6.3859-.0299 12.712-.0599 18.878-.0699 10.76-.01 10.7-12.879 10.68-17.671v-.0499c-.39037-11.691-1.2111-23.541-2.0219-35.312-.17016-2.406-.34032-4.812-.50047-7.2081-.02-.35941-.06-.76873-.0901-1.1281z" fill-rule="evenodd"/></g></svg>
