<svg id="svg850" version="1.1" width="211.67mm" height="183.09mm" viewBox="0 0 211.67 183.09" xmlns="http://www.w3.org/2000/svg"><g id="layer1" transform="translate(-39.509 -68.084)"><path id="path930" d="m179.45 119.34c.82967-.3321 1.4028-.53898 2.227-.8602.0982 2.0852.28383 4.3173.43121 6.5058.39846 5.8689.79695 11.841.98798 17.602.0109 2.6786.12554 10.295-6.5445 10.355-9.1539.0163-18.968.10344-28.247.0653-6.9486-.14155-14.427-4.6604-15.125-11.596-.36571-3.6096.54038-6.5113 1.9323-9.5111 1.0862-2.3302 2.5163-4.644 3.799-7.2136.98253-1.96 1.9159-4.056 2.6419-6.3973.69868.26677 1.37.5281 2.0251.79488l-.71504 2.0362c-.17467.45732-.35479.90378-.53492 1.3393-.48033 1.1379-.97707 2.1941-1.4792 3.1904-.56224 1.1324-1.1899 2.2648-1.7958 3.3755-.71503 1.3012-1.4083 2.5588-1.976 3.7784-.64409 1.3828-1.1681 2.7276-1.4847 4.0941-.30567 1.3393-.4203 2.744-.26201 4.301.26201 2.6405 1.7958 4.8836 3.9519 6.5331 2.5218 1.9328 5.8569 3.0597 9.0661 3.125 5.8514.0218 11.921-.005 17.904-.0327 3.4715-.0164 6.9159-.0272 10.284-.0327 4.4432-.0381 4.4158-5.9288 4.4049-8.1064v-.0327c-.0928-2.7766-.24016-5.7058-.42029-8.7002-.16375-2.8201-.36572-5.8307-.56769-8.8251-.0382-.56077-.0928-1.3012-.14738-2.0416-.0382-.50087-.071-1.0018-.10917-1.508-.0928-1.2195-.20196-1.8456-.24563-2.2376z" fill-rule="evenodd"/></g></svg>
