<svg id="svg5" width="91.687mm" height="63.682mm" version="1.1" viewBox="0 0 91.687 63.682" xmlns="http://www.w3.org/2000/svg"><g id="layer1" transform="translate(-20.291 -99.289)"><path id="path930" d="m105.29 101.22c1.5214-.60899 2.5724-.98836 4.0838-1.5774.18017 3.8237.52048 7.9169.79073 11.93.73068 10.762 1.4614 21.714 1.8117 32.277.02 4.9119.23021 18.879-12.001 18.989-16.786.0299-34.782.18968-51.798.1198-12.742-.25957-26.455-8.5459-27.736-21.265-.67062-6.6191.99092-11.94 3.5433-17.441 1.9919-4.2729 4.6143-8.5159 6.9665-13.228 1.8017-3.5941 3.5133-7.4377 4.8445-11.731 1.2812.48919 2.5123.9684 3.7135 1.4576l-1.3112 3.7338c-.3203.83861-.6506 1.6573-.98091 2.4559-.88082 2.0866-1.7917 4.0234-2.7125 5.8503-1.031 2.0766-2.182 4.1531-3.2931 6.1898-1.3112 2.3861-2.5824 4.6922-3.6234 6.9286-1.1811 2.5358-2.142 5.0017-2.7225 7.5076-.56052 2.4559-.77072 5.0317-.48045 7.887.48045 4.842 3.2931 8.9552 7.2467 11.98 4.6243 3.5442 10.74 5.6107 16.625 5.7305 10.73.0399 21.86-.01 32.831-.0599 6.3659-.03 12.682-.0499 18.858-.0599 8.1476-.0699 8.0975-10.872 8.0775-14.865v-.0599c-.17015-5.0916-.4404-10.463-.77071-15.954-.30028-5.1714-.67063-10.692-1.041-16.183-.0701-1.0283-.17016-2.3861-.27025-3.7438-.0701-.91848-.13012-1.837-.20019-2.7654-.17016-2.2363-.37034-3.3844-.45042-4.1032z" fill-rule="evenodd"/></g></svg>
