<svg id="svg850" version="1.1" width="211.67mm" height="183.09mm" viewBox="0 0 211.67 183.09" xmlns="http://www.w3.org/2000/svg"><g id="layer1" transform="translate(-39.509 -68.084)"><path id="path3698" d="m174.95 147.56c-.38948 0-.73135-.09-1.0256-.27613-.29422-.18309-.52399-.44722-.68652-.78637-.15972-.33917-.24098-.73238-.24098-1.1796v-1.6508c0-.44422.0813-.83741.24098-1.1766.16252-.33917.39229-.6033.68652-.78937.29421-.18609.63607-.27914 1.0256-.27914.32223 0 .61928.075.88823.22211.269.14707.49597.35417.67812.6273.18214.27013.30263.5823.36988.93944h-.80982c-.0477-.18909-.1289-.35717-.24378-.50425-.11488-.14706-.24938-.26112-.40349-.34216-.15412-.078-.31384-.12007-.47916-.12007-.22977 0-.42872.06-.60242.1801-.17373.11705-.30823.28513-.40071.49824-.0953.2131-.1429.46223-.1429.74437v1.6508c0 .28214.0477.53126.1429.74438.0925.2161.22697.38119.40071.49824.17372.11706.37267.17709.60242.17709.16813 0 .32785-.036.48196-.11106.15131-.075.28581-.18609.4007-.33316.11488-.14407.19614-.31816.24378-.51925h.80981c-.0673.35417-.19054.66933-.37267.93944-.18213.27013-.40911.48023-.67812.62729-.2718.14707-.566.21911-.88545.21911zm-5.0745-6.075h3.2252v.80136h-2.8217v1.8249h2.3958v.80137h-2.3958v1.7828h2.8217v.80436h-3.6091v-6.015z" fill-rule="evenodd"/></g></svg>
