<svg id="svg5" version="1.1" viewBox="0 0 91.687 63.682" xmlns="http://www.w3.org/2000/svg"><g id="layer1" transform="translate(-65.445 -124.93)"><path id="path1982" d="m141.08 177.84.25023.59901c-.05.0499-.1101.0899-.17016.13977-.0701.0499-.15013.10982-.24022.15974-.0901.0299-.20018.0799-.33031.12978-.13012.0599-.28026.12979-.44041.19967-.13012.0799-.23021.13977-.31028.1797-.0901.0399-.14013.0599-.17016.0599-.0601 0-.16015.02-.31029.0699s-.35033.1198-.59055.21964c-.14013.0499-.27025.0998-.42039.14975-.15014.0499-.30028.0899-.45042.12979l-.41038-.0799-.25023.10982c-.0801 0-.17016 0-.25023-.01-.0901 0-.17016 0-.25024-.01-.12011-.01-.2202-.02-.28026-.0499-.0701-.0399-.10009-.0799-.10009-.13977l.04-.2396-.04-.0499c-.14013 0-.24022-.02-.29027-.0599-.05-.0399-.0801-.12979-.0801-.26955 0-.0699 0-.17971.01-.32946s.02-.34942.03-.58903c0-.0299.01-.0699.04-.13977.03-.0699.05-.1198.05-.14975-.03-.0499-.04-.0799-.04-.10982-.01-.02-.01-.0499-.01-.0699.01-.16972.03-.37938.05-.62896.03-.23961.0701-.53911.1101-.87855.0601-.19967.10009-.42929.13012-.68886-.01-.18969-.01-.38936-.02-.58903.16015-.71881.3203-1.4476.49046-2.1764.03-.12979.0801-.24959.15014-.36939.0701-.11981.16015-.22962.26024-.33944.04-.0299.0701-.0499.0801-.0699.03-.0399.05-.0898.0901-.14975.04-.0599.0801-.1198.12011-.19967.03-.02.0701-.0399.13012-.0799.0601-.0299.14013-.0799.24023-.13977.04-.0399.0901-.0799.15014-.12978.0601-.0399.12011-.0998.20018-.16972.16015-.0998.31029-.19967.46043-.30949.14013-.10982.3203-.1797.53049-.20965.1001 0 .20019-.01.30028-.02.10009 0 .20019-.01.29027-.02.0801-.02.16015-.02.23022-.0299.04-.01.0801-.02.1101-.0299.03 0 .0601-.01.0901-.01.02 0 .0601 0 .1101.01.04.01.10009.02.18017.0299.0601.01.12011.01.16015.01.04 0 .0801 0 .12011-.01.18017.0499.31029.12979.39036.22962.0801.0998.12011.21964.12011.35941 0 .2995-.03.51914-.0901.66889-.05.13977-.15014.21964-.27025.21964-.10009 0-.21019-.0499-.33031-.14975-.12011-.0998-.45041-.14976-.99092-.14976-.2202.0499-.44041.0899-.66061.12979-.02.0399-.04.0599-.0701.0799-.03.02-.0601.0299-.0801.0399l-.23021-.0799c-.0601.02-.14013.0899-.23022.20966-.0901.1198-.18017.27954-.28026.48919-.02.0399-.03.0898-.05.15974-.01.0699-.01.13976-.01.22962-.0801.30948-.16015.61897-.24022.90849-.0701.30949-.13012.5491-.18017.70883-.04.15974-.0701.25957-.0801.28953-.01.0499-.02.0899-.03.12978-.01.0399-.01.0799-.01.10982 0 .0599.01.10982.03.13977.02.0299.05.0399.10009.0399.04 0 .13012-.0699.28026-.20965.15014-.14975.27025-.22962.34032-.24959.0901-.02.18017-.0499.28026-.0799.0901-.0299.19018-.0699.29027-.10982.04-.01.14013-.03.31029-.0499.17016-.0299.40037-.0499.70065-.0799l.19018.0499.35032-.0599.18017.0799c.04.0399.0801.0998.12011.15974.04.0599.0701.12979.10009.20965 0 .25957-.03.44926-.0801.58903-.0601.12979-.15013.19967-.26024.19967l-.36033-.13977c-.30028.03-.59055.0599-.88082.0899-.29027.02-.59055.0499-.89083.0799-.36033.0699-.64059.18969-.84078.35941-.20019.15973-.31029.37937-.33031.64892 0 .0599-.02.13977-.05.25958-.02.1198-.05.25957-.0901.43927l.05.19967c-.04.1797-.0701.35941-.0901.51914-.02.16972-.03.31947-.03.44926 0 .0399 0 .0699.02.0899.01.02.02.0299.04.02.2102-.02.38036-.03.50047-.0399.13012-.01.2202-.01.27025-.01.12011.01.23021.02.35033.03l.41038-.03c.04-.01.14013-.0499.29027-.10982.14013-.0599.27025-.0899.39036-.0899.13012 0 .25023-.02.38035-.0399.13012-.03.25024-.0599.37035-.10982.12011-.0399.24022-.0898.35032-.12979.12011-.0499.23022-.0998.35033-.13977.04-.01.10009-.0399.17016-.0699.0701-.0399.16015-.0799.26024-.13977zm6.5861.59901c-.14013.0998-.30028.21964-.49045.34942-.19018.12979-.4204.27954-.68064.43928-.24022.12978-.45042.24959-.63058.34942-.18017.0998-.33031.16972-.45042.21964-.18017.0799-.37035.13977-.57053.1797-.20019.0399-.40037.0499-.61057.0499-.0701 0-.14013 0-.2202-.02-.0801-.02-.17016-.0499-.26025-.0699-.1101-.0299-.21019-.0599-.28026-.0799-.0801-.02-.15014-.0399-.20018-.0399l-.0801-.0799-.19018-.03c-.0801 0-.18017-.0399-.29027-.11981-.12011-.0799-.25023-.18968-.38035-.32945-.13012-.12979-.24023-.24959-.3203-.36939-.0801-.1198-.14013-.21964-.17016-.31947l-.18017-.55908c-.0601-.18969-.10009-.34942-.13012-.46922-.04-.10982-.05-.18969-.04-.22963l.0701-.28952c-.04-.0998-.0601-.1797-.0801-.24958-.02-.0599-.03-.10982-.03-.14976 0-.03.01-.13977.03-.31947s.05-.42929.0901-.74876c.03-.0599.0701-.12979.1001-.21964.03-.0899.0701-.1797.10009-.28952l-.02-.14975c0-.0299.01-.0699.02-.11981.02-.0399.04-.0898.0601-.14975.10009-.20965.20019-.42929.30028-.64893.1101-.21963.2102-.42929.31029-.62896.0801-.15973.19018-.31947.33031-.48919.14013-.15973.30027-.33944.48044-.50916.04-.0499.0801-.0998.14013-.16972.06-.0699.13012-.14975.20019-.22962.0801-.0499.17016-.10982.27025-.19967.1101-.0898.24022-.19967.39036-.33944.04-.02.0901-.0499.15014-.0799.0701-.0299.14013-.0699.23022-.10981.02-.01.04-.0299.0801-.0599.03-.03.0701-.0699.1101-.0998.05-.0399.2202-.10982.52048-.19967.30028-.0799.50047-.12979.59055-.12979.20019 0 .37034.02.51048.0399.14013.0299.25023.0799.34031.13977l.20019.0399c.18017.0399.31029.16972.39036.39934.0801.21964.13012.54909.13012.97839 0 .19967-.01.3594-.01.4792-.01.11981-.01.19967-.02.24959-.03.12979-.0601.28952-.0901.48919s-.0701.42929-.13012.68886c0 .0699-.03.17971-.0801.33944-.0601.15974-.13012.35941-.2202.58903-.0901.25957-.17016.45924-.23022.58903-.0701.12978-.12011.20965-.17016.21963-.17015.0399-.36033.0899-.56052.13977-.10009 0-.16015 0-.20018-.02-.04-.01-.0601-.0399-.0601-.0699 0-.0399.01-.0799.02-.14975.02-.0599.02-.10982.02-.12979-.01-.16972-.02-.33943-.03-.50915 0-.0599.01-.17971.05-.35941.03-.1797.0801-.40932.15014-.68886.0801-.29951.14013-.53911.20018-.71881.0601-.17971.1001-.28953.14013-.32946.13012-.1198.22021-.22962.28026-.33944.0601-.10982.0901-.19967.0901-.28952 0-.1198-.03-.22962-.0901-.31947-.0601-.0899-.15014-.15974-.27025-.20966-.1101-.0299-.2202-.0499-.34031-.0799-.12012-.02-.23022-.0499-.34032-.0799-.0901.0299-.18017.0599-.25023.0699-.0701.02-.13012.0399-.19018.0499-.29027.0499-.57053.1797-.84078.40932-.26024.21964-.52049.52913-.76071.91848-.20018.33944-.37034.67888-.49045 1.0183-.12012.33944-.20019.68886-.25024 1.0283-.02.10982-.04.23961-.0601.38936-.03.15974-.0701.33944-.1101.54909.04.12979.0701.24959.10009.35941l-.0601.58903c0 .02.01.0699.05.13977.04.0699.11011.15973.19018.2995.05.0699.0901.15974.13012.25957.04.0998.0701.20965.0901.33944.01.03.03.0599.05.0998.02.03.05.0599.0801.0799.0701.0599.13012.10982.19018.14976.19018.19967.39036.34942.60056.44925.21019.10982.44041.15974.68063.15974.02 0 .10009-.01.24022-.0399.14013-.02.33031-.0499.58054-.0998.04-.03.1001-.0599.17016-.0899.0801-.0299.16015-.0699.26024-.0998.0901-.0898.17016-.14975.26024-.18968.0901-.0399.17016-.0499.24023-.0499.02-.0399.0501-.0699.0801-.1198.03-.0399.0801-.0899.13012-.13977.13012-.0499.25023-.1198.36033-.20965.11011-.0899.2102-.18969.31029-.29951.18017.37937.27025.57904.27025.59901z" fill-rule="evenodd"/></g></svg>
