<svg id="svg5" width="91.687mm" height="63.682mm" version="1.1" viewBox="0 0 91.687 63.682" xmlns="http://www.w3.org/2000/svg"><path id="path3698" d="m75.284 54.705c-.71422 0-1.3411-.16512-1.8806-.50636-.53952-.33574-.96086-.82008-1.2589-1.442-.29288-.62194-.44189-1.343-.44189-2.163v-3.0272c0-.81458.14901-1.5356.44189-2.1575.29802-.62194.71936-1.1063 1.2589-1.4475.53952-.34124 1.1664-.51186 1.8806-.51186.5909 0 1.1356.1376 1.6288.40729.49328.26969.90948.64946 1.2435 1.1503.33399.49535.55494 1.0678.67826 1.7227h-1.485c-.08735-.34675-.23636-.65497-.44703-.92466-.21067-.26969-.4573-.47884-.73991-.62745-.28261-.1431-.57549-.22016-.87865-.22016-.42134 0-.78616.11008-1.1047.33024-.31857.21465-.56521.52287-.73478.91365-.1747.39078-.26205.8476-.26205 1.365v3.0272c0 .51737.08735.97419.26205 1.365.16956.39628.4162.699.73478.91365.31857.21465.68339.32473 1.1047.32473.3083 0 .60118-.06605.88379-.20365.27747-.1376.52411-.34124.73478-.61094.21067-.26419.35968-.58342.44703-.95218h1.485c-.12332.64946-.3494 1.2274-.68339 1.7227-.33399.49535-.75019.88063-1.2435 1.1503-.49841.26969-1.0379.40179-1.6237.40179zm-9.3054-11.14h5.9142v1.4695h-5.1743v3.3464h4.3932v1.4695h-4.3932v3.2693h5.1743v1.475h-6.6181v-11.03z " fill-rule="evenodd"/></svg>
