<svg id="svg5"  version="1.1" viewBox="0 0 91.687 63.682" xmlns="http://www.w3.org/2000/svg"><g id="layer1" transform="translate(-65.445 -124.93)"><path id="path827" d="m80.949 124.93c11.24 4.243 18.888 8.7755 31.139 8.8654 21.93-.16972 30.438-3.7838 42.439-8.5159.18017 3.8237.52049 7.9169.79074 11.93.73068 10.762 1.4614 21.714 1.8117 32.277.02 4.9119.23022 18.879-12.001 18.989-16.786.0299-34.782.18968-51.798.1198-12.742-.25957-26.455-8.5459-27.736-21.265-.67062-6.6191.99092-11.94 3.5433-17.441 1.9919-4.2729 4.6143-8.5159 6.9665-13.228 1.8017-3.5941 3.5133-7.4377 4.8445-11.731z" fill-rule="evenodd"/></g></svg>
