<svg id="svg850" version="1.1" width="211.67mm" height="183.09mm" viewBox="0 0 211.67 183.09" xmlns="http://www.w3.org/2000/svg"><g id="layer1" transform="translate(-39.509 -68.084)"><path id="path827" d="m141.55 118.29c6.1295 2.3138 10.3 4.7856 16.981 4.8346 11.959-.0926 16.599-2.0634 23.143-4.644.0983 2.0852.28384 4.3173.43122 6.5058.39846 5.8689.79695 11.841.98798 17.602.0109 2.6786.12553 10.295-6.5445 10.355-9.1539.0164-18.968.10344-28.247.0653-6.9486-.14155-14.427-4.6604-15.125-11.596-.36571-3.6096.54038-6.5112 1.9323-9.5111 1.0862-2.3302 2.5163-4.644 3.7991-7.2136.98252-1.96 1.9159-4.056 2.6418-6.3973z" fill-rule="evenodd" /></g></svg>
