<svg id="svg5" width="92.016mm" height="63.475mm" version="1.1" viewBox="0 0 92.016 63.475" xmlns="http://www.w3.org/2000/svg"><g id="layer1" transform="translate(66.383 -251.29)" fill="#a00"><path id="path1679" transform="matrix(.26458 0 0 .26458 -66.383 251.29)" d="m59.396-.0019531-.15039.5293c-.79442 2.5659-1.6658 5.0546-2.498 7.5449-.83225 2.3773-1.7022 4.6807-2.5723 6.9824l-.03711.11133-.07617.11328-.03711.11328-.07617.26562-.03711.03711c-2.1188 5.4712-4.3901 10.792-6.7734 15.924-2.4212 5.2074-4.9178 10.263-7.4902 15.168-3.594 6.9808-7.2623 13.623-10.818 20.15l-2.2324 4.0371-.71875 1.3203c-.68096 1.2829-1.3627 2.5275-2.0059 3.6973l-.07422.15234-.03906.03711-.07617.15039v.03906l-.03711.07422-.03711.03906-.03906.07422-.15039.26562-.03906.07422c-2.7613 5.094-5.4082 10.151-7.8672 15.17-2.3834 4.9429-4.6149 9.8482-6.582 14.791l-.30273.71679c-1.6646 4.3015-3.1794 8.6398-4.4277 13.055-1.2484 4.4149-2.2683 8.8672-2.9492 13.471l-.26562 1.4727h.037109c-.18917 1.3207-.3389 2.6032-.49023 3.9238-.15129 1.4717-.26613 2.9425-.3418 4.4141h-.037109l-.037109 1.1328c-.1135 2.4903-.15184 5.0566-.076172 7.6602.075666 2.6033.2645 5.2448.5293 7.9238.22696 1.9245.49085 3.8477.86914 5.7344.3405 1.811.75821 3.6231 1.25 5.3965l.30273 1.0938c1.2862 4.4145 2.9877 8.6788 5.0684 12.754 2.194 4.3393 4.8043 8.4514 7.793 12.338l.60547.79297c2.6861 3.4337 5.675 6.717 8.8906 9.7734 3.2912 3.1321 6.8466 6.0742 10.592 8.791l.79492.56641c3.8207 2.7167 7.8309 5.1703 11.992 7.3965 4.1235 2.2262 8.3596 4.1881 12.748 5.9238l1.0215.41407c5.0313 1.9244 10.214 3.5472 15.473 4.8301 4.9935 1.2452 10.062 2.1131 15.094 2.7168 1.2105.11339 2.3832.22646 3.5938.33984h-.03711c1.2105.0756 2.3827.18877 3.5176.22657 1.6268.0752 3.217.15039 4.8438.15039 4.653 0 9.305.0391 13.996.0391h38.359c40.312-.0936 80.624-.28881 120.94-.40625-.37205-.32416-.68967-.67214-.94336-1.041l-23.863.0703 12.711-12.564 10.354 10.266c-.0314-.42755-.002-.85626.0977-1.2774l-9.7363-9.6543c7.3391-7.3202 14.716-14.602 22.055-21.885l.30273-.30273.22852.26367.33984.30273.30273.33985c6.0907 5.9996 12.144 12.037 18.197 18.037l-9.6348 9.541c.47642.008.95466-.004 1.4336-.0215l8.9219-8.8555 4.7402 4.6973c.20275-.25729.40092-.5183.5957-.78321l-4.6191-4.5781 3.6309-3.623.3789-.37695.26368-.26367c6.0147-5.9618 12.069-11.925 18.084-17.887l1.3008 1.2871c-.002-.42156.001-.85603.008-1.4356l-.5879-.58398.53516-.53126c-.0559-.30548-.10322-.61197-.0859-.91992.0101-.17963.0253-.30369.0371-.45703l-1.2051 1.1914-19.104-18.904 11.121-11.018 11.236-11.131 3.2812 3.25c-.072-.40667-.13656-.77543-.24805-1.5898-.004-.0276.005-.0563.002-.084l-2.3164-2.293 1.8789-1.8594c-.16005-.29757-.40924-.70974-.49414-.91015l-2.1035 2.0898-19.066-18.941 11.158-11.057 8.8828-8.7988c.009-.37813-.002-.75705.0195-1.1348.006-.0983.0259-.1953.0391-.29297l-5.8789 5.832-14.943 14.793-19.104-18.943 22.357-22.148 16.908 16.762c-.0408-.31115-.0816-.44828-.13086-.91797-.0228-.21713.009-.43797.002-.65625l-16.057-15.887 14.068-13.961c-.0685-.3436-.10478-.47758-.23438-1.1426-4.8269 4.7769-9.6922 9.592-14.557 14.406l-19.066-18.904 22.357-22.15 10.746 10.633c.009-.46632.002-.93292.0352-1.3984l-10.057-9.9688 9.0644-8.9785c-.1422-.61126-.25735-.96502-.30273-1.1328l-9.4805 9.3926-19.105-18.902 22.357-22.15 2.6836 2.6543c-.11581-.54606-.18849-1.0867-.20899-1.6309l-1.7539-1.7402 1.8203-1.7969c-.0913-.5767-.23135-1.1493-.30078-1.6582-.0183-.13383-.0291-.26846-.0469-.40234l-4.2012 1.6133-.5293.22461-.18945.076172c-5.523 2.1131-10.894 4.1133-16.342 6-5.6368 1.9621-11.274 3.8118-17.1 5.5098l-.15234.03711-.11328.03711c-2.8751.8301-5.7875 1.6236-8.7383 2.416-2.9129.71694-5.9013 1.4341-8.9277 2.1133l-.30273.07422-.30274.07617c-2.9888.64146-6.0527 1.2836-9.2305 1.8496-3.1774.60374-6.5066 1.169-9.9492 1.6973-4.1238.60374-8.3993 1.2067-12.863 1.6973-4.3506.49054-8.8895.94431-13.656 1.3594h-.22657l-.22851.03711c-2.3834.18849-4.8418.37849-7.3008.5293-2.459.1508-4.9185.30232-7.4531.45312h-.41601l-.1875.03711h-.18946c-3.9345.18856-7.9833.37723-12.145.49023-4.1616.15118-8.4351.26494-12.861.30273h-.18945l-3.7461.07422-3.1016.03906c-2.2318-.0378-4.464-.07607-6.6582-.18945-2.0806-.07521-4.1603-.18904-6.2031-.33984h-.18946c-3.0641-.22639-6.0922-.5271-9.043-.9043-2.7995-.33959-5.523-.7562-8.209-1.209h-.15039l-.11328-.03711-.15235-.03711c-5.4852-.94333-10.78-2.1514-15.963-3.5098-5.1447-1.3963-10.215-2.9439-15.246-4.6797l-.0762-.03711-.11328-.03711c-1.9672-.67922-3.8968-1.3593-5.8262-2.0762-2.0806-.75466-4.0856-1.509-6.0527-2.2637l-.22656-.07617-.15235-.03711c-2.5723-.98105-5.1436-2.0001-7.7539-3.0566-2.3456-.94333-5.0321-1.9989-7.7559-3.1309l-.15039-.03906-.15234-.07422-.11328-.03906-.15039-.07617-.30273-.11133-1.2109-.49219c-7.8689-3.1695-16.116-6.5265-25.082-9.8848zm.64453 1.3027c8.7008 3.2829 16.798 6.5297 24.553 9.6992l.83203.30078c-5.788 5.6976-11.502 11.396-17.252 17.094l-8.3984-8.3027-4.6895-4.6406c.87008-2.3395 1.74-4.6795 2.5723-7.0566.83229-2.3395 1.6262-4.7166 2.3828-7.0938zm267.42 5.5859-2.082 2.0762-.90625-.90625 2.2305-.86719zm-4.0098 1.5469 1.209 1.207c-7.4525 7.358-14.905 14.792-22.357 22.188l-4.4629-4.4531-7.5293-7.4707c5.5612-1.6226 10.972-3.3966 16.344-5.2832 5.5608-1.9245 11.084-3.999 16.797-6.1875zm-237.05 3.2871c2.5727 1.0565 5.1842 2.0751 8.0215 3.207 2.7239 1.0943 5.4085 2.1511 8.0566 3.1699l7.832 7.7734-22.357 22.148-19.105-18.902.75586-.75586.07617-.07422zm-31.697 4.7109 12.748 12.678-22.357 22.15-4.3887-4.3398c2.4968-4.8299 4.9565-9.8102 7.3398-14.904 2.3074-5.0185 4.5397-10.188 6.6582-15.584zm50.088 2.5273c1.3239.49054 2.609.98081 3.8574 1.4336 1.778.64146 3.5188 1.283 5.2969 1.8867l-2.9121 2.8672-.11523-.11133-.1504-.11328-.11328-.15039-.15234-.11328-.11328-.15234-.15039-.15039-.11328-.11328-.15235-.15039-.15039-.11328c-1.6644-1.6602-3.3289-3.3574-5.0312-5.0176zm184.42 1.2852 7.7168 7.6211 4.6914 4.6426-22.357 22.148-19.104-18.904 11.008-10.904c3.1778-.71694 6.2802-1.4342 9.3066-2.2266 2.9507-.75466 5.8632-1.5468 8.7383-2.377zm-174.25 2.4219c4.9557 1.6602 9.9485 3.208 15.018 4.5664 4.9179 1.3206 9.9122 2.4512 15.133 3.3945-4.7667 4.7165-9.5321 9.4339-14.299 14.15l-.22851-.26367-.33985-.30273-.64257-.64063-.30274-.30273-.3418-.33984c-5.7502-5.698-11.461-11.357-17.211-17.055zm154.39 2.5586c-3.1774 3.1321-6.3164 6.264-9.4941 9.4336l-.18945.18945-.18946.15039-.0391.03711-6.8086-6.7168c3.0641-.49054 6.0531-.98089 9.0039-1.5469 2.6101-.49054 5.1822-.98089 7.7168-1.5469zm-158.32 1.3262.90625.90625.26562.30274c5.9773 5.8862 11.954 11.81 17.932 17.734l-22.396 22.148-19.066-18.941 2.043-2 .15234-.15039.98242-.98242zm140.39 1.957 7.3027 7.2441-22.359 22.15-19.066-18.904 7.4902-7.4336h.002c4.8801-.41507 9.495-.86822 13.959-1.3965 4.3884-.49051 8.624-1.0565 12.672-1.6602zm-183.25 1.2852 19.066 18.904-22.357 22.188-19.104-18.941zm78.16 1.0547c2.7239.45282 5.5233.86694 8.3984 1.2441 2.8751.33959 5.8642.64079 8.8906.86719l9.3828 9.2832-22.357 22.148-19.105-18.904zm76.91.83008c-2.194 2.1883-4.4262 4.415-6.6582 6.6035l-5.8633-5.7734c2.2696-.11308 4.4257-.26521 6.582-.41602 2.0428-.11308 4.0101-.26326 5.9394-.41406zm-13.846.9043 6.4688 6.4141-22.357 22.15-19.104-18.904 8.9277-8.8301c4.6908-.07559 9.1911-.1874 13.504-.30078 4.3506-.15103 8.5505-.3407 12.561-.5293zm-44.223.49024c1.6643.11338 3.3282.19003 5.0684.26562 2.194.07521 4.4255.1126 6.6953.15039l4.957-.03906-8.1719 8.0762zm137.13.17188.60547.60352.64258.60352 1.8164 1.8105.60351.60352.60547.56641 1.2109 1.207 1.2109 1.209.60547.60352 11.803 11.697-22.357 22.148-.30274-.30273-.30273-.26367-.30274-.30078-.30273-.30274c-5.9395-5.924-11.917-11.81-17.895-17.734l1.7402-1.6973.0762-.07617.49218-.49024.37891-.41602.18945-.15039zm-42.863 3.2441 19.105 18.904-22.357 22.148-.60547-.60352-.30273-.26367-.30274-.30273c-5.9773-5.924-11.917-11.848-17.895-17.734zm-42.859 3.2031 19.105 18.941-22.396 22.148-.26562-.30078-.30274-.30274-.30273-.30273-.30078-.26367c-5.9773-5.924-11.917-11.848-17.895-17.734l1.7031-1.6973zm115.47 1.8887-.0586.05664c.12652.25811.35144.80176.31446.58398-.0385-.22663-.15453-.43163-.25586-.64062zm-158.34 1.3516 19.066 18.943-22.357 22.148-.30273-.30274-.30274-.30078-.26367-.30273-.30273-.26367c-5.9773-5.924-11.954-11.848-17.932-17.734l1.7402-1.7363zm-42.896 3.2402 19.104 18.943-22.357 22.148-19.104-18.941.30078-.26562.15235-.1875.41601-.37695.49219-.5293.0762-.03711zm-90.604 1.6543 4.1621 4.1133-13.582 13.471c3.14-5.6976 6.3178-11.547 9.4199-17.584zm47.74 1.5898 19.104 18.904-22.357 22.188-19.105-18.941zm-42.861 3.2383 19.066 18.904-22.357 22.15-15.133-14.98-2.043-2.0371 2.1562-3.9629 2.3086-4.2266zm234.17 3.4551 19.066 18.904-22.357 22.148-19.105-18.904zm-42.898 3.2031 19.105 18.941-22.357 22.148-19.105-18.904zm-42.861 3.2402 19.104 18.941-22.357 22.15-19.105-18.941zm-42.861 3.2422 19.066 18.904-22.357 22.186-19.066-18.941zm-42.9 3.2441.26562.26367.33985.30274.64453.64062.64258.64258c5.7124 5.698 11.463 11.357 17.213 17.055l-22.357 22.148-19.105-18.904.64453-.60352.15039-.15039zm-42.863 3.2383 19.105 18.904-22.359 22.148-19.104-18.904.60547-.60352.15039-.15039zm234.17 3.4141 19.104 18.943-22.357 22.148-19.104-18.904.83203-.83008zm-274.91 1.9062c5.1825 5.1693 10.403 10.3 15.586 15.432l.68164.7168.71875.67969-22.395 22.15-9.043-8.9805c2.005-5.0562 4.2754-10.075 6.7344-15.094 2.4212-4.9432 5.0308-9.8858 7.7168-14.904zm232.05 1.3359 19.066 18.941-22.357 22.148-19.066-18.941.83203-.79297zm-42.9 3.2402 19.104 18.904-22.357 22.188-19.104-18.941.83203-.83008zm-42.861 3.2422 19.105 18.904-22.359 22.15-19.104-18.904zm-42.863 3.2422 19.104 18.904-22.395 22.148-19.066-18.904zm-42.861 3.2402 19.066 18.904-22.357 22.15-19.105-18.904zm-42.9 3.2441 19.105 18.904-22.357 22.148-19.105-18.904zm234.17 3.416.5664.56641.3418.33984.64258.64258.30273.30078 17.25 17.094-22.357 22.148-19.104-18.943zm-42.859 3.2402.56641.5664.30273.33985.33985.30273.30273.30078.3418.33985c5.7502 5.6976 11.5 11.395 17.25 17.055l-22.395 22.188-19.068-18.941zm-42.863 3.2422.22656.26367.3418.30273.30078.30078.3418.33985.64258.64257c5.7124 5.6976 11.463 11.357 17.213 17.055l-22.357 22.148-19.105-18.904.64453-.60351.15039-.15039zm-42.9 3.2383 19.105 18.904-22.359 22.148-19.104-18.904.60547-.60351.15039-.15039zm-138.04.33593 8.7383 8.6797-15.586 15.434v-.002c.68096-4.0373 1.5897-7.9612 2.7246-11.848 1.1727-4.1507 2.5342-8.2264 4.123-12.264zm95.176 2.9043 19.104 18.904-22.357 22.15-19.104-18.904.64258-.64258.11328-.11328zm-42.861 3.2051 19.066 18.941-22.357 22.15-19.066-18.904.60547-.64258.15039-.11133zm-42.895 3.25 19.104 18.941-22.357 22.148-14.338-14.225c.075666-1.7734.22757-3.5084.37891-5.2441.18917-1.7734.41489-3.509.67969-5.207zm277.06.20117 19.066 18.904-22.359 22.188-19.104-18.943.64258-.60352.15234-.15039zm-42.9 3.2422 19.104 18.902-22.357 22.15-19.105-18.904.60547-.60352.15234-.15039zm-42.859 3.2402 19.104 18.904-22.357 22.148-19.105-18.902zm-42.863 3.2441 19.066 18.902-22.359 22.15-19.066-18.904zm-42.9 3.2402 19.104 18.904-22.357 22.148-19.104-18.904zm-42.861 3.2051 19.104 18.941-22.357 22.148-19.104-18.902zm-42.861 3.2422 19.105 18.941-22.396 22.15-19.066-18.941zm277.03.20899 19.104 18.904-22.357 22.148-12.863-12.678-.26367-.30274-.30273-.30078-.60547-.60547-.30274-.30078-4.7676-4.7168zm-42.863 3.2402 19.066 18.904-22.357 22.148-19.066-18.902zm-42.896 3.2422 19.104 18.904-22.357 22.148-19.104-18.904zm-228.76 1.916 13.695 13.547-11.273 11.17c-.37829-1.547-.75593-3.1333-1.0586-4.7559-.37829-1.8489-.64287-3.7338-.83203-5.6582-.30263-2.6793-.45558-5.2838-.53125-7.8496-.075666-2.1887-.075666-4.3401 0-6.4531zm185.89 1.3262 19.104 18.904-22.357 22.148-19.105-18.904c4.0479-3.9995 8.0967-8.0357 12.145-12.035zm-42.863 3.207c6.3557 6.339 12.712 12.64 19.105 18.941l-22.396 22.15-19.066-18.904c4.0479-4.0373 8.0967-8.0376 12.145-12.037zm193.98 2.582-.17774.17578c.12868.13349.26646.26736.35547.41992-.0745-.20679-.10953-.39502-.17773-.5957zm-236.85.66016c6.3556 6.3012 12.711 12.64 19.066 18.941l-15.623 15.471-6.7344 6.6777-19.105-18.941c3.9723-3.8865 7.9073-7.8108 11.842-11.697l.22656-.22656.45508-.45313zm-42.898 3.2422c6.3934 6.3012 12.748 12.603 19.104 18.904l-15.473 15.357-6.8848 6.8301-19.104-18.943c4.1616-4.1129 8.3212-8.225 12.482-12.338zm-42.861 3.2402.26562.26562.30274.30078.33984.30274.30274.33984.33984.30078c5.8258 5.811 11.689 11.623 17.553 17.396l-18.045 17.846c-2.8751-3.8109-5.4472-7.8105-7.6035-12.074-2.1187-4.1507-3.8583-8.5659-5.1445-13.094zm277.03.20898.26562.22656.30274.33985.33984.30078.30273.33984.64454.60352.33984.33984.30273.30274.33985.33984.30273.30078.94531.94531.3418.33985.30274.30078c4.8041 4.7543 9.5705 9.5101 14.375 14.227l-15.586 15.432-6.7715 6.7148-17.629-17.432-.26563-.30274-.30273-.30078-.30274-.26562-.60547-.60352c4.0479-3.9995 8.0967-8.0376 12.145-12.037zm-42.861 3.2422c6.3556 6.3012 12.71 12.603 19.104 18.904l-15.586 15.434-6.8086 6.7168-17.592-17.434-.30274-.30078-.30273-.30273-.30274-.30078-.5664-.56641c4.0479-3.9995 8.0947-8.0376 12.143-12.037zm-42.859 3.2031c6.3557 6.339 12.711 12.642 19.066 18.943l-15.549 15.395-6.8086 6.7539-19.105-18.904.87109-.86719.37696-.37696.49218-.49023zm-42.902 3.2441.26562.26367.64258.64062c6.0529 5.9996 12.107 12.037 18.197 18.037l-22.359 22.148-19.104-18.941.9082-.86718.30274-.30274.60546-.60351zm-42.861 3.2383.26563.26562.30273.30078.33984.33985c6.0529 5.9996 12.107 12 18.197 18.037l-22.359 22.148-19.104-18.941.9082-.86914.30274-.30078.60547-.60352zm-42.861 3.2441.22656.26367.3418.30273.30274.33985c6.0907 5.9992 12.142 11.998 18.195 17.998l-22.357 22.186-19.066-18.941zm-42.898 3.2402.26562.26563.33984.30078.30274.30273c6.0529 6.037 12.144 12.037 18.197 18.037l-17.705 17.582c-3.7829-2.7171-7.3396-5.6592-10.631-8.791-3.2156-3.0561-6.1656-6.3007-8.8516-9.7344zm277.07.20703 19.066 18.904-22.357 22.148-19.105-18.904zm-42.9 3.2441.26368.22657.30273.33984.3418.30273c6.0529 5.9996 12.105 12.036 18.195 18.035l-22.357 22.148-19.104-18.902.37696-.3789zm-42.859 3.2031.26562.26367.30079.30274c6.1667 6.1507 12.333 12.264 18.537 18.377l-22.357 22.148-19.104-18.904c3.9345-3.9243 7.8676-7.8479 11.84-11.734l.18945-.22656.49219-.45312zm-42.863 3.2441.22656.26367.33984.30078c6.1663 6.113 12.334 12.264 18.5 18.377l-22.357 22.148-19.066-18.941c3.9345-3.8865 7.8682-7.8108 11.803-11.697l.22656-.22656.49219-.45313zm-42.9 3.2383.26562.26563.33985.30078c6.1663 6.113 12.334 12.225 18.5 18.338l-22.357 22.188-19.105-18.941c3.9723-3.8865 7.9073-7.8108 11.842-11.697l.22656-.22657.45313-.49023zm193.37 3.2051-.006.006c.01.0257.0208.0475.006-.006zm-236.23.0391.26562.26367.30274.30274c6.1667 6.113 12.371 12.225 18.537 18.338l-22.357 22.148-19.105-18.904c4.0101-3.9999 8.0583-7.9611 12.068-11.961l.33984-.33984.45508-.45313zm-42.859 3.2402.26367.22656.30274.33984c6.1667 6.113 12.333 12.225 18.537 18.338l-11.916 11.811c-4.5018-1.7737-8.8908-3.7731-13.09-6.0371-4.0479-2.1884-7.9814-4.6029-11.727-7.2441zm191.27 6.6543c6.3934 6.3012 12.75 12.642 19.105 18.943l-13.393 13.281-17.855.0762-10.215-10.15 11.047-10.943zm-42.863 3.2441c6.3557 6.3012 12.71 12.603 19.104 18.904l-10.326 10.225-24.023.11328-7.1113-7.0938 11.047-10.941zm-42.861 3.2383c6.3556 6.3012 12.71 12.603 19.104 18.904l-7.1875 7.1328-15.207.0371h-15.133l-3.9336-3.9238 11.045-10.943zm-42.861 3.2441c6.3556 6.3012 12.711 12.603 19.066 18.904l-3.9336 3.9238h-13.922c-4.6908-.0378-9.3451-.0371-13.998-.0371-1.589-.0374-3.1768-.0767-4.7656-.15234-1.5512-.0756-3.1404-.18904-4.6914-.33985l-.15234-.15039zm-42.898 3.2422c6.3557 6.3012 12.71 12.601 19.104 18.902v.002c-5.2963-.56598-10.555-1.5107-15.775-2.7559-5.0695-1.2453-10.063-2.7917-14.943-4.6406zm148.45 9.8887 9.4941 9.4336-19.104.0762zm-42.898 3.2461 6.4297 6.377-12.9.0371zm-42.861 3.2441 3.2539 3.207h-6.5078zm182.89 5.7949c-.0912.0497-.18233.0982-.2793.13477-.12381.0467.0811-.0385.2793-.13477z" fill="#a00" stroke-width="3.7795"/></g></svg>
