<svg id="svg5" version="1.1" viewBox="0 0 91.687 63.682" xmlns="http://www.w3.org/2000/svg"><g id="layer1" transform="translate(-65.445 -124.93)"><path id="path1709" d="m121.56 188.36c-.5305-.91848-1.071-1.847-1.6115-2.7654h-3.4032l-1.2712 2.1864h-.19017l1.3212-2.2663c-.57053-.97838-1.131-1.9568-1.7016-2.9352h-3.4032l-1.7016 2.9352 1.2812 2.2163-.17016.02c-.42039-.71881-.84078-1.4376-1.2512-2.1564h-3.4132l-1.6415 2.8353-.18017-.02c.56052-.9684 1.121-1.9268 1.6816-2.8952-.56053-.97838-1.131-1.9568-1.7016-2.9352h-3.4032l-1.7016 2.9352 1.5715 2.7055-.18017.01c-.51047-.87855-1.0209-1.7571-1.5314-2.6356h-3.4132l-1.3212 2.2762h-.18017l1.3713-2.3561c-.57053-.97838-1.1411-1.9568-1.7116-2.9352h-3.4032l-1.7016 2.9352 1.071 1.837h-.19018c-.34032-.58903-.68063-1.1781-1.021-1.7571h-3.4032l-.5405.92847-.12012-.1198.52049-.88854c-.57053-.97838-1.1411-1.9568-1.7016-2.9352h-3.4132l-.69064 1.198-.14013-.0799.69064-1.198c-.57053-.9684-1.131-1.9468-1.7016-2.9252h-3.4032l-.6506 1.1082-.12012-.10982.63059-1.0782c-.57053-.97838-1.1411-1.9568-1.7016-2.9352h-3.203c-.04-.0499-.0701-.10982-.1101-.15974h3.3131c.56052-.97838 1.131-1.9568 1.7016-2.9252-.57053-.97839-1.1411-1.9568-1.7016-2.9352h-3.4132l-1.4113 2.436-.1101-.13977c.46043-.7887.92086-1.5874 1.3813-2.3761-.56053-.9684-1.1311-1.9468-1.6916-2.9152l-.01-.01h-1.121l-.01-.16972h1.131c.57053-.9684 1.1411-1.9468 1.7016-2.9252-.56052-.97838-1.131-1.9568-1.7016-2.9352h-1.2311l.0701-.15973h1.1611c.57053-.97839 1.1411-1.9468 1.7016-2.9252-.5405-.93845-1.091-1.8869-1.6315-2.8253.03-.16972.0601-.34942.0901-.53911.51048-.87855 1.031-1.7671 1.5414-2.6556l-.15013-.25957.1101-.13977.18017.31947h3.4132c.56052-.97838 1.131-1.9568 1.7016-2.9352-.57053-.97839-1.1411-1.9468-1.7016-2.9252h-.81076l.0701-.15973h.74069c.56052-.97839 1.131-1.9568 1.7016-2.9352l-.47043-.80866.0901-.15974.52048.88854h3.4032c.56052-.9684 1.131-1.9468 1.6916-2.9152l.01-.01c-.57053-.97838-1.131-1.9568-1.7016-2.9352h-1.5815c.04-.0499.0801-.10982.12012-.15974h1.4614c.56052-.9684 1.131-1.9468 1.6916-2.9152l.01-.01-.84079-1.4576c.02-.0699.04-.13976.0601-.20965l.92086 1.5774h3.4132c.56052-.9684 1.131-1.9468 1.7016-2.9252-.57053-.97839-1.1411-1.9568-1.7016-2.9252h-2.9027l.05-.16972h2.8526l.78072-1.3478.13013.0899-.78073 1.3378 1.7116 2.9352h3.4032l1.2812-2.2064.16015.0499-1.3012 2.2363 1.7016 2.9252h3.4032c.55051-.93844 1.101-1.8869 1.6515-2.8353l.16015.0499-1.6716 2.8752 1.7016 2.9252h3.4132c.56052-.97838 1.131-1.9568 1.7016-2.9252l-1.121-1.9268c.0901.0499.19018.10982.28026.15974l.98091 1.6772h3.4032l.45042-.76873.18017.02-.49045.83862 1.7016 2.9252h3.4132c.56052-.97838 1.131-1.9568 1.7016-2.9252l-.05-.0899h.03c.37035.0699.76071.10982 1.1611.10982h2.2621c.1001 0 .19018-.01.29027-.01l1.6916 2.9152h3.4032c.57053-.97838 1.1411-1.9568 1.7116-2.9252l-.19018-.32946h.18017l.15014.2396h3.4032l.47044-.80866c.0801-.03.16015-.0599.24022-.0799l-.57053.97839 1.7016 2.9252h3.4032c.57053-.97838 1.1411-1.9568 1.7016-2.9252l-.88082-1.5275.17016-.02.85079 1.4576h3.4132c.53049-.91848 1.061-1.837 1.6015-2.7554.0701-.01.14013-.0299.2202-.0499l-1.6816 2.8952 1.7016 2.9252h3.4032c.57053-.97838 1.131-1.9568 1.7016-2.9252-.57054-.97839-1.1411-1.9568-1.7016-2.9352h-3.3031c.15014-.0399.29027-.0899.4304-.13977l2.8727-.02.4304-.73878c.0601 0 .13012-.01.20019-.02l-.49046.83862 1.7016 2.9252h3.4132c.56052-.9684 1.131-1.9468 1.7016-2.9252l-1.5014-2.5758.13012-.0898 1.5114 2.5857h3.4032l1.7016-2.9352-1.051-1.797.14013-.0898 1.051 1.807h.60056l-.03.16972h-.57053c-.57053.9684-1.1411 1.9468-1.7016 2.9252.57053.97838 1.131 1.9568 1.7016 2.9252h.68064v.16972h-.68064c-.57053.9684-1.1411 1.9468-1.7016 2.9252.56052.97838 1.131 1.9568 1.7016 2.9352h1.111l.01.15974h-1.121c-.57053.97838-1.131 1.9468-1.7016 2.9252.57053.97839 1.131 1.9568 1.7016 2.9352h1.6315v.15973h-1.6315c-.57053.97838-1.131 1.9568-1.7016 2.9252.57053.97838 1.131 1.9568 1.7016 2.9352h2.5023v.15974h-2.5023c-.57053.97838-1.131 1.9568-1.7016 2.9252.57053.97838 1.131 1.9568 1.7016 2.9352h2.8526v.15974h-2.8526c-.57053.97838-1.131 1.9568-1.7016 2.9252.56052.97839 1.131 1.9568 1.7016 2.9352h2.8026l-.01.15973h-2.7926c-.57053.97839-1.131 1.9568-1.7016 2.9352.57053.9684 1.131 1.9468 1.7016 2.9252h2.9928l.02.15974h-3.0128c-.57053.97838-1.131 1.9568-1.7016 2.9352.57053.9684 1.131 1.9468 1.7016 2.9252h2.7726v.15974h-2.7726c-.57053.97838-1.131 1.9568-1.7016 2.9352.57053.97838 1.131 1.9468 1.7016 2.9252h.92086c-.04.0499-.0801.10981-.1101.15973h-.81076c-.57053.97839-1.131 1.9568-1.7016 2.9352l.05.0899c-.04.03-.0901.0699-.13012.0899l-.0601-.0998h-3.4032l-1.121 1.9268-.19018.01 1.1711-2.0167c-.57053-.97838-1.1411-1.9568-1.7016-2.9352h-3.4132l-1.7016 2.9352 1.4514 2.4859-.16015.0499c-.48044-.81865-.96089-1.6373-1.4313-2.456h-3.4032l-1.2011 2.0566-.18017-.01 1.2412-2.1265c-.57053-.97838-1.1411-1.9568-1.7016-2.9352h-3.4132l-1.7016 2.9352 1.2211 2.0965h-.18017c-.40037-.6689-.79073-1.3478-1.1811-2.0167h-3.4032l-1.4213 2.446h-.19018c.49046-.83861.98092-1.6872 1.4714-2.5258-.57053-.97838-1.1411-1.9568-1.7016-2.9352h-3.4032l-1.7116 2.9352 1.6515 2.8253zm-36.504-56.956-1.7116 2.9352 1.7116 2.9252h3.4032c.56052-.97838 1.131-1.9568 1.7016-2.9252-.57053-.97839-1.1411-1.9568-1.7016-2.9352zm-1.8417 3.015h-3.4132l-1.7016 2.9252 1.7016 2.9352h3.4132c.56052-.97838 1.131-1.9568 1.7016-2.9352-.57053-.97838-1.1411-1.9468-1.7016-2.9252zm10.49 0h-3.4032l-1.7016 2.9252 1.7016 2.9352h3.4032c.57052-.97838 1.1411-1.9568 1.7116-2.9352-.57053-.97838-1.1411-1.9468-1.7116-2.9252zm7.0966 0-1.7016 2.9252 1.7016 2.9352h3.4032c.57054-.97838 1.1411-1.9568 1.7016-2.9352-.57053-.97838-1.131-1.9568-1.7016-2.9252zm-1.8417 3.005h-3.4132l-1.7016 2.9352 1.7016 2.9252h3.4132c.56052-.97839 1.131-1.9468 1.7016-2.9252-.57053-.97838-1.1411-1.9568-1.7016-2.9352zm-13.903 0-1.7116 2.9352 1.7116 2.9252h3.4032c.57053-.97839 1.131-1.9568 1.7016-2.9252-.57053-.97838-1.131-1.9568-1.7016-2.9352zm15.745 3.015-1.7016 2.9252 1.7016 2.9352h3.4032c.57054-.97839 1.1411-1.9568 1.7016-2.9352-.56053-.97838-1.131-1.9468-1.7016-2.9252zm-5.425 2.8653c-.56052-.95841-1.121-1.9068-1.6716-2.8653h-3.4032l-1.7016 2.9252 1.7016 2.9352h3.4032c.57052-.97839 1.1411-1.9568 1.7116-2.9352zm10.67-5.8803-1.7016 2.9352 1.7016 2.9252h3.4132c.56052-.97839 1.131-1.9568 1.7016-2.9252-.57053-.97838-1.1411-1.9568-1.7016-2.9352zm-26.244 3.015-1.7016 2.9252 1.7016 2.9352h3.4132c.56052-.97839 1.131-1.9568 1.7016-2.9352-.57053-.97838-1.1411-1.9468-1.7016-2.9252zm5.2549 3.005-1.7116 2.9352 1.7116 2.9252h3.4032c.56052-.97838 1.131-1.9568 1.7016-2.9252-.57053-.97838-1.1411-1.9568-1.7016-2.9352zm-1.8417 3.015h-3.4132l-1.7016 2.9252 1.7016 2.9352h3.4132c.56052-.97838 1.131-1.9568 1.7016-2.9352-.57053-.9684-1.1511-1.9468-1.7016-2.9252zm-3.5933-.14975c-.55051-.94843-1.111-1.9068-1.6616-2.8653h-3.4032l-1.7016 2.9352 1.7016 2.9252h3.4032c.57053-.97838 1.131-1.9568 1.7016-2.9252zm14.083.14975h-3.4032l-1.7016 2.9252 1.7016 2.9352h3.4032c.57052-.97838 1.1411-1.9568 1.7116-2.9352-.57053-.9684-1.1311-1.9368-1.7016-2.9152zm.14012-.0799 1.7016 2.9252h3.4132c.56052-.97838 1.131-1.9468 1.7016-2.9252-.57053-.97838-1.1411-1.9568-1.7016-2.9352h-3.4132zm6.9565.0799-1.7016 2.9252 1.7016 2.9352h3.4032c.57054-.97838 1.1411-1.9568 1.7016-2.9352-.57053-.9684-1.131-1.9468-1.7016-2.9252zm-1.8417 3.005h-3.4132l-1.7016 2.9352 1.7016 2.9252h3.4132c.56052-.97838 1.131-1.9468 1.7016-2.9252-.57053-.97839-1.1411-1.9568-1.7016-2.9352zm7.0866-6.0201-1.7016 2.9352 1.7016 2.9252h3.4132c.56052-.97838 1.131-1.9568 1.7016-2.9252-.57053-.97838-1.1411-1.9568-1.7016-2.9352zm-28.086 6.0201h-3.4032l-1.7016 2.9352 1.7016 2.9252h3.4032c.57053-.97838 1.131-1.9568 1.7016-2.9252-.57053-.97839-1.131-1.9568-1.7016-2.9352zm7.0966 0-1.7116 2.9352 1.7116 2.9252h3.4032c.57053-.97838 1.131-1.9468 1.7016-2.9252-.57053-.97839-1.131-1.9568-1.7016-2.9352zm15.745 3.015-1.7016 2.9252 1.7016 2.9352h3.4032c.57054-.97838 1.1411-1.9568 1.7016-2.9352-.56053-.9684-1.131-1.9468-1.7016-2.9252zm-1.8417 3.005h-3.4132l-1.7016 2.9352 1.7016 2.9252h3.4132c.56052-.9684 1.131-1.9468 1.7016-2.9252-.57053-.97838-1.1411-1.9568-1.7016-2.9352zm-3.5533-.0799c-.56052-.9684-1.1411-1.9468-1.7016-2.9252h-3.4032l-1.7016 2.9252 1.7016 2.9352h3.4032c.57052-.97838 1.1411-1.9568 1.7016-2.9352zm10.64-5.9402-1.7016 2.9352 1.7016 2.9252h3.4132c.56052-.97838 1.131-1.9468 1.7016-2.9252-.57053-.97839-1.1411-1.9568-1.7016-2.9352zm-36.744 8.8753h3.4132c.56052-.97838 1.131-1.9568 1.7016-2.9352-.57053-.9684-1.1411-1.9468-1.7016-2.9252h-3.4132l-1.7016 2.9252zm3.4132.15974h-3.4132l-1.7016 2.9252 1.7016 2.9352h3.4132c.56052-.97839 1.131-1.9568 1.7016-2.9352-.57053-.96839-1.1411-1.9468-1.7016-2.9252zm7.0866-6.02-1.7016 2.9252 1.7016 2.9352h3.4132c.56052-.97838 1.131-1.9568 1.7016-2.9352-.57053-.9684-1.1411-1.9468-1.7016-2.9252zm-1.8417 3.005h-3.4032l-1.7016 2.9352 1.7016 2.9252h3.4032c.57053-.97839 1.131-1.9468 1.7016-2.9252-.57053-.97838-1.131-1.9568-1.7016-2.9352zm7.0966 0-1.7116 2.9352 1.7116 2.9252h3.4032c.56052-.97839 1.131-1.9468 1.7016-2.9252-.57053-.97838-1.1411-1.9568-1.7016-2.9352zm-1.8417 3.015h-3.4132l-1.7016 2.9252 1.7016 2.9352h3.4132c.56052-.97839 1.131-1.9568 1.7016-2.9352-.57053-.96839-1.1411-1.9468-1.7016-2.9252zm10.49 0h-3.4032l-1.7016 2.9252 1.7016 2.9352h3.4032c.57052-.97839 1.1411-1.9568 1.7116-2.9352-.57053-.97838-1.1411-1.9468-1.7116-2.9252zm7.0966 0-1.7016 2.9252 1.7016 2.9352h3.4032c.57054-.97839 1.1411-1.9568 1.7016-2.9352-.57053-.96839-1.131-1.9468-1.7016-2.9252zm-1.8417 3.005h-3.4132l-1.7016 2.9352 1.7016 2.9252h3.4132c.56052-.9684 1.131-1.9468 1.7016-2.9252-.57053-.97838-1.1411-1.9568-1.7016-2.9352zm7.0866-6.02-1.7016 2.9352 1.7016 2.9252h3.4132c.56052-.9684 1.131-1.9468 1.7016-2.9252-.57053-.97838-1.1511-1.9468-1.7016-2.9352zm8.658-21.065h-3.4032l-1.7016 2.9252 1.7016 2.9352h3.4032c.57053-.97838 1.131-1.9568 1.7016-2.9352-.57053-.97838-1.1411-1.9468-1.7016-2.9252zm10.5 0h-3.4032l-1.7116 2.9252 1.7116 2.9352h3.4032c.56052-.97838 1.131-1.9568 1.7016-2.9352-.57053-.97838-1.1411-1.9568-1.7016-2.9252zm7.0866 0-1.7016 2.9252 1.7016 2.9352h3.4132c.56052-.97838 1.131-1.9568 1.7016-2.9352-.57053-.97838-1.131-1.9568-1.7016-2.9252zm-1.8417 3.005h-3.4032l-1.7016 2.9352 1.7016 2.9252h3.4032c.57053-.97839 1.1411-1.9568 1.7016-2.9252-.56052-.97838-1.131-1.9568-1.7016-2.9352zm15.755-3.005h-3.4132l-1.7016 2.9252 1.7016 2.9352h3.4132c.56052-.97838 1.131-1.9568 1.7016-2.9352-.57053-.97838-1.1411-1.9568-1.7016-2.9252zm6.7863-.34942-1.5414-2.6656h-3.4032l-1.7016 2.9352 1.7016 2.9252h3.4032l1.7016-2.9252zm-33.041 3.3545h-3.4032l-1.7016 2.9352 1.7016 2.9252h3.4032c.57053-.97839 1.1411-1.9568 1.7116-2.9252-.57053-.97838-1.1411-1.9568-1.7116-2.9352zm12.341 3.015-1.7016 2.9252 1.7016 2.9352h3.4132c.56052-.97839 1.131-1.9568 1.7016-2.9352-.57053-.97838-1.131-1.9568-1.7016-2.9252zm-5.4551 2.8154c-.54051-.93845-1.091-1.8769-1.6315-2.8154h-3.4032l-1.7116 2.9252 1.7116 2.9352h3.4032c.56052-.97839 1.131-1.9568 1.7016-2.9352zm14.113-5.8304h-3.4032l-1.7016 2.9352 1.7016 2.9252h3.4032c.57053-.97839 1.131-1.9568 1.7016-2.9252-.56052-.97838-1.1311-1.9568-1.7016-2.9352zm10.5 0h-3.4032l-1.7016 2.9352 1.7016 2.9252h3.4032l1.7016-2.9252zm-41.849 5.9402 1.7016 2.9352h3.4032c.57053-.97839 1.131-1.9568 1.7016-2.9352-.57053-.97838-1.1411-1.9468-1.7016-2.9252h-3.4032zm5.1047 3.0949h-3.4032l-1.7016 2.9252 1.7016 2.9352h3.4032c.57053-.97838 1.131-1.9568 1.7016-2.9352-.56052-.9684-1.131-1.9368-1.6916-2.9152zm12.341-3.015-1.7016 2.9352 1.7016 2.9252h3.4032c.57053-.97838 1.1411-1.9568 1.7016-2.9252-.56052-.97838-1.1411-1.9568-1.7016-2.9352zm-1.8417 3.015h-3.4032l-1.7116 2.9252 1.7116 2.9352h3.4032c.56052-.97838 1.131-1.9568 1.7016-2.9352-.57053-.9684-1.1411-1.9468-1.7016-2.9252zm-3.5433-.0799c-.57053-.97838-1.1411-1.9568-1.7116-2.9352h-3.4032l-1.7016 2.9352 1.7016 2.9252h3.4032c.57053-.97838 1.1411-1.9568 1.7116-2.9252zm10.63.0799-1.7016 2.9252 1.7016 2.9352h3.4132c.56052-.97838 1.131-1.9568 1.7016-2.9352-.57053-.97839-1.1411-1.9468-1.7016-2.9252zm-1.8417 3.005h-3.4032l-1.7016 2.9352 1.7016 2.9252h3.4032c.57053-.97838 1.1411-1.9468 1.7016-2.9252-.56052-.97839-1.131-1.9568-1.7016-2.9352zm10.64-6.0999 1.7016 2.9352h3.4132c.56052-.97839 1.131-1.9568 1.7016-2.9352-.57053-.97838-1.1411-1.9468-1.7016-2.9252h-3.4132zm5.1148 3.0949h-3.4132l-1.7016 2.9252 1.7016 2.9352h3.4132c.56052-.97838 1.131-1.9568 1.7016-2.9352-.57053-.97839-1.1411-1.9468-1.7016-2.9252zm-3.5533-.0799c-.57054-.97838-1.1411-1.9568-1.7016-2.9352h-3.4032l-1.7016 2.9352 1.7016 2.9252h3.4032c.57053-.97838 1.131-1.9568 1.7016-2.9252zm10.34-.26955-1.5414-2.6656h-3.4032l-1.7016 2.9352 1.7016 2.9252h3.4032l1.7016-2.9252zm-33.041 3.3545h-3.4032l-1.7016 2.9352 1.7016 2.9252h3.4032c.57053-.97838 1.1411-1.9468 1.7116-2.9252-.57053-.97839-1.1411-1.9568-1.7116-2.9352zm12.341 3.015-1.7016 2.9252 1.7016 2.9352h3.4132c.57053-.97838 1.131-1.9568 1.7016-2.9352-.57053-.9684-1.131-1.9368-1.6916-2.9152l-.01-.01zm-1.8417 3.005h-3.4032l-1.7016 2.9352 1.7016 2.9252h3.4032c.57053-.9684 1.1411-1.9468 1.7016-2.9252-.56052-.97838-1.131-1.9568-1.7016-2.9352zm-3.6134-.18969c-.54051-.93845-1.091-1.8769-1.6315-2.8153h-3.4032l-1.7116 2.9252 1.7116 2.9352h3.4032c.56052-.97838 1.1411-1.9568 1.7016-2.9352zm14.113-5.8304h-3.4032l-1.7016 2.9352 1.7016 2.9252h3.4032c.57053-.97838 1.131-1.9468 1.7016-2.9252-.56052-.97839-1.1311-1.9568-1.7016-2.9352zm10.5 0h-3.4032l-1.7016 2.9352 1.7016 2.9252h3.4032l1.7016-2.9252zm-41.849 5.9402 1.7016 2.9352h3.4032c.57053-.97838 1.131-1.9568 1.7016-2.9352-.57053-.9684-1.1411-1.9468-1.7016-2.9252h-3.4032zm5.1047 3.0949h-3.4032l-1.7016 2.9252 1.7016 2.9352h3.4032c.57053-.97839 1.131-1.9568 1.7016-2.9352-.57053-.96839-1.131-1.9468-1.7016-2.9252zm5.2449-3.015h-3.4032l-1.7016 2.9352 1.7016 2.9252h3.4032c.57053-.97839 1.1411-1.9468 1.7116-2.9252-.57053-.97838-1.1411-1.9568-1.7116-2.9352zm5.2549 3.015h-3.4032l-1.7116 2.9252 1.7116 2.9352h3.4032c.56052-.97839 1.131-1.9568 1.7016-2.9352-.57053-.96839-1.1411-1.9468-1.7016-2.9252zm7.0866 0-1.7016 2.9252 1.7016 2.9352h3.4132c.56052-.97839 1.131-1.9568 1.7016-2.9352-.57053-.96839-1.1411-1.9468-1.7016-2.9252zm-1.8417 3.005h-3.4032l-1.7016 2.9352 1.7016 2.9252h3.4032c.57053-.9684 1.1411-1.9468 1.7016-2.9252-.56052-.97838-1.131-1.9568-1.7016-2.9352zm10.5-6.02h-3.4032l-1.7016 2.9352 1.7016 2.9252h3.4032c.57053-.97839 1.131-1.9468 1.7016-2.9252-.56052-.97838-1.1411-1.9468-1.7016-2.9352zm.14013-.0799 1.7016 2.9352h3.4132c.56052-.97838 1.131-1.9568 1.7016-2.9352-.57053-.9684-1.1411-1.9468-1.7016-2.9252h-3.4132zm5.1148 3.0949h-3.4132l-1.7016 2.9252 1.7016 2.9352h3.4132c.56052-.97839 1.131-1.9568 1.7016-2.9352-.57053-.96839-1.1411-1.9468-1.7016-2.9252zm5.2449-3.015h-3.4032l-1.7016 2.9352 1.7016 2.9252h3.4032l1.7016-2.9252zm-73.488 6.02h-3.4032l-1.7016 2.9352 1.7016 2.9252h3.4032c.56052-.9684 1.131-1.9368 1.6916-2.9152l.01-.01c-.57053-.97838-1.131-1.9568-1.7016-2.9352zm7.0966 0-1.7116 2.9352 1.7116 2.9252h3.4032c.57053-.9684 1.131-1.9468 1.7016-2.9252-.57053-.97838-1.131-1.9568-1.7016-2.9352zm15.745 3.015-1.7016 2.9352 1.7016 2.9252h3.4032c.57054-.97838 1.1411-1.9568 1.7016-2.9252-.56053-.97838-1.131-1.9568-1.7016-2.9352zm-1.8417 3.015h-3.4132l-1.7016 2.9252 1.7016 2.9352h3.4132c.56052-.97839 1.131-1.9568 1.7016-2.9352-.57053-.97839-1.1411-1.9568-1.7016-2.9252zm-3.5533-.0799c-.56052-.97838-1.1411-1.9568-1.7016-2.9352h-3.4032l-1.7016 2.9352 1.7016 2.9252h3.4032c.57052-.97838 1.1411-1.9568 1.7016-2.9252zm10.64-5.9502-1.7016 2.9352 1.7016 2.9252h3.4132c.56052-.9684 1.131-1.9468 1.7016-2.9252-.57053-.97838-1.1411-1.9568-1.7016-2.9352zm-36.744 8.8753h3.4132c.56052-.97838 1.131-1.9568 1.7016-2.9252-.57053-.97838-1.1411-1.9568-1.7016-2.9352h-3.4132l-1.7016 2.9352zm10.5-5.8603-1.7016 2.9352 1.7016 2.9252h3.4132c.56052-.97838 1.131-1.9568 1.7016-2.9252-.57053-.97838-1.1411-1.9568-1.7016-2.9352zm-1.8417 3.015h-3.4032l-1.7016 2.9252 1.7016 2.9352h3.4032c.15014-.25957 1.7016-2.9352 1.7016-2.9352-.57053-.97839-1.131-1.9568-1.7016-2.9252zm7.0966 0-1.7116 2.9252 1.7116 2.9352h3.4032c.57053-.97839 1.131-1.9568 1.7016-2.9352-.57053-.97839-1.1411-1.9468-1.7016-2.9252zm-1.8417 3.005h-3.4132l-1.7016 2.9352 1.7016 2.9252h3.4132c.56052-.97838 1.131-1.9568 1.7016-2.9252-.57053-.97839-1.1411-1.9568-1.7016-2.9352zm10.49 0h-3.4032l-1.7016 2.9352 1.7016 2.9252h3.4032c.57052-.97838 1.1411-1.9568 1.7116-2.9252-.57053-.97839-1.1411-1.9568-1.7116-2.9352zm7.0966 0-1.7016 2.9352 1.7016 2.9252h3.4032c.57054-.97838 1.1411-1.9568 1.7016-2.9252-.56053-.97839-1.131-1.9568-1.7016-2.9352zm5.2449-3.005-1.7016 2.9252 1.7016 2.9352h3.4132c.56052-.97839 1.131-1.9568 1.7016-2.9352-.57053-.9684-1.131-1.9368-1.6916-2.9152l-.01-.01zm-20.99 6.0201-1.7116 2.9252 1.7116 2.9352h3.4032c.57053-.97838 1.131-1.9568 1.7016-2.9352-.57053-.97838-1.1411-1.9468-1.7016-2.9252zm-5.435 2.8653c-.55051-.95842-1.111-1.9168-1.6616-2.8653h-3.4032l-1.7016 2.9252 1.7016 2.9352h3.4032c.56052-.97838 1.131-1.9468 1.6916-2.9152l.01-.02zm14.223.0599 1.7016 2.9352h3.4132c.56052-.97838 1.131-1.9568 1.7016-2.9352-.57053-.97838-1.1411-1.9468-1.7016-2.9252h-3.4132zm6.9565.0799-1.7016 2.9352 1.7016 2.9252h3.4032c.57054-.97839 1.1411-1.9568 1.7016-2.9252-.56053-.97838-1.131-1.9568-1.7016-2.9352zm-1.8417 3.015h-3.4132l-1.7016 2.9252 1.7016 2.9352h3.4132c.56052-.97839 1.131-1.9568 1.7016-2.9352-.57053-.97838-1.1411-1.9468-1.7016-2.9252zm-3.5533-.0799c-.56052-.97838-1.1411-1.9568-1.7016-2.9352h-3.4032l-1.7016 2.9352 1.7016 2.9252h3.4032c.57052-.97839 1.1411-1.9568 1.7016-2.9252zm10.64-5.9402-1.7016 2.9252 1.7016 2.9352h3.4132c.56052-.97838 1.131-1.9568 1.7016-2.9352-.57053-.97838-1.1411-1.9468-1.7016-2.9252zm-26.244 3.005-1.7016 2.9352 1.7016 2.9252h3.4132c.56052-.97839 1.131-1.9568 1.7016-2.9252-.57053-.97838-1.1411-1.9568-1.7016-2.9352zm5.2549 3.015-1.7116 2.9252 1.7116 2.9352h3.4032c.57053-.97839 1.131-1.9568 1.7016-2.9352-.57053-.97838-1.1411-1.9468-1.7016-2.9252zm20.99 0-1.7016 2.9252 1.7016 2.9352h3.4132c.56052-.97839 1.131-1.9568 1.7016-2.9352-.57053-.9684-1.131-1.9368-1.6916-2.9152l-.01-.01zm13.903-18.07h-3.4032l-1.7016 2.9352 1.7016 2.9252h3.4032c.57053-.9684 1.1411-1.9468 1.7116-2.9252-.57053-.97838-1.1411-1.9568-1.7116-2.9352zm12.341 3.015-1.7016 2.9352 1.7016 2.9252h3.4132c.57053-.97838 1.131-1.9568 1.7016-2.9252-.57053-.97838-1.131-1.9468-1.6916-2.9252l-.01-.01zm-1.8417 3.015h-3.4032l-1.7016 2.9252 1.7016 2.9352h3.4032c.57053-.97839 1.1411-1.9568 1.7016-2.9352-.56052-.97839-1.131-1.9468-1.7016-2.9252zm-3.6134-.19967c-.54051-.93845-1.091-1.8769-1.6315-2.8154h-3.4032l-1.7116 2.9352 1.7116 2.9252h3.4032c.56052-.97838 1.131-1.9568 1.7016-2.9252zm14.113-5.8304h-3.4032l-1.7016 2.9352 1.7016 2.9252h3.4032c.57053-.9684 1.131-1.9468 1.7016-2.9252-.56052-.97838-1.1311-1.9568-1.7016-2.9352zm10.5 0h-3.4032l-1.7016 2.9352 1.7016 2.9252h3.4032l1.7016-2.9252zm-41.849 5.9502 1.7016 2.9252h3.4032c.57053-.97838 1.131-1.9568 1.7016-2.9252-.57053-.97838-1.1411-1.9568-1.7016-2.9352h-3.4032zm5.1047 3.0849h-3.4032l-1.7016 2.9352 1.7016 2.9252h3.4032c.57053-.97838 1.131-1.9568 1.7016-2.9252-.57053-.97839-1.131-1.9568-1.7016-2.9352zm5.2449-3.005h-3.4032l-1.7016 2.9252 1.7016 2.9352h3.4032c.57053-.97839 1.1411-1.9568 1.7116-2.9352-.57053-.97839-1.1411-1.9568-1.7116-2.9252zm5.2549 3.005h-3.4032l-1.7116 2.9352 1.7116 2.9252h3.4032c.56052-.97838 1.131-1.9468 1.7016-2.9252-.57053-.97839-1.1411-1.9568-1.7016-2.9352zm7.0866 0-1.7016 2.9352 1.7016 2.9252h3.4132c.56052-.97838 1.131-1.9568 1.7016-2.9252-.57053-.97839-1.1411-1.9568-1.7016-2.9352zm8.658-3.005h-3.4032l-1.7016 2.9252 1.7016 2.9352h3.4032c.57053-.97839 1.131-1.9568 1.7016-2.9352-.56052-.9684-1.1311-1.9368-1.6916-2.9152zm.14013-.0799 1.7016 2.9252h3.4132c.56052-.97838 1.131-1.9568 1.7016-2.9252-.57053-.97838-1.1411-1.9568-1.7016-2.9352h-3.4132zm5.1148 3.0849h-3.4132l-1.7016 2.9352 1.7016 2.9252h3.4132c.56052-.97838 1.131-1.9568 1.7016-2.9252-.57053-.97839-1.1411-1.9568-1.7016-2.9352zm5.2449-3.005h-3.4032l-1.7016 2.9252 1.7016 2.9352h3.4032l1.7016-2.9352zm-24.403 6.0201-1.7016 2.9252 1.7016 2.9352h3.4032c.57053-.97838 1.1411-1.9568 1.7016-2.9352-.56052-.97838-1.131-1.9468-1.7016-2.9252zm-5.425 2.8653c-.56052-.95842-1.111-1.9168-1.6716-2.8653h-3.4032l-1.7016 2.9252 1.7016 2.9352h3.4032c.57053-.97838 1.1411-1.9568 1.7116-2.9352zm10.67.13977-1.7016 2.9352 1.7016 2.9252h3.4132c.57053-.97839 1.131-1.9568 1.7016-2.9252-.57053-.97838-1.131-1.9568-1.7016-2.9352zm-1.8417 3.015h-3.4032l-1.7016 2.9252 1.7016 2.9352h3.4032c.57053-.97839 1.1411-1.9568 1.7016-2.9352-.56052-.97838-1.131-1.9468-1.7016-2.9252zm-3.6134-.19967c-.54051-.93845-1.091-1.8769-1.6315-2.8154h-3.4032l-1.7116 2.9352 1.7116 2.9252h3.4032c.57053-.97839 1.131-1.9468 1.7016-2.9252zm15.785-2.9551c-.56052-.95842-1.121-1.9068-1.6716-2.8653h-3.4032l-1.7016 2.9252 1.7016 2.9352h3.4032c.57053-.97838 1.131-1.9568 1.7016-2.9352zm10.019-.80866-1.1911-2.0566h-3.4032l-1.7016 2.9252 1.7016 2.9352h3.4032l1.7016-2.9352zm-43.04 3.8836 1.7016 2.9252h3.4032c.57053-.97839 1.131-1.9568 1.7016-2.9252-.57053-.97838-1.1411-1.9568-1.7016-2.9352h-3.4032zm10.35.0799h-3.4032l-1.7016 2.9252 1.7016 2.9352h3.4032c.57053-.97839 1.1411-1.9568 1.7116-2.9352-.57053-.97838-1.1411-1.9468-1.7116-2.9252zm21 0h-3.4032l-1.7016 2.9252 1.7016 2.9352h3.4032c.57053-.97839 1.131-1.9568 1.7016-2.9352-.56052-.9684-1.1311-1.9368-1.6916-2.9152zm.14013-.0799 1.7016 2.9252h3.4132c.56052-.97839 1.131-1.9568 1.7016-2.9252-.57053-.97838-1.1411-1.9568-1.7016-2.9352h-3.4132zm10.36.0799h-3.4032l-1.7016 2.9252 1.7016 2.9352h3.4032l1.7016-2.9352z" fill-rule="evenodd"/></g></svg>
