<svg id="svg5" width="91.225mm" height="63.056mm" version="1.1" viewBox="0 0 91.225 63.056" xmlns="http://www.w3.org/2000/svg"><g id="layer1" transform="translate(64.822 -255.81)" fill="#a00"><path id="path1362" transform="matrix(.26458 0 0 .26458 -64.822 255.81)" d="m85.203 18.293-.12109.20898h-1.5391c.1235.08299.25472.16037.375.24609.02586.0096.05227.01769.07813.02734.24094.09865.97666.35202.72266.29492-.2733-.06144-.55342-.14562-.78125-.30859-.0064-.0046-.01312-.0091-.01953-.01367-.24071-.0894-.4885-.1601-.73047-.24609h-11.117c-.24881.2628-.5139.48757-.78711.67774-2.0869 3.6455-4.2064 7.2585-6.291 10.906h-3.5c-.11385.19655-.2292.42383-.34766.60742h3.8496c2.1562 3.7735 4.3515 7.5086 6.5078 11.244-2.1562 3.7735-4.3515 7.5099-6.5078 11.283h-13.051l-4.082-7.0762c-.16666.12565-.3325.2527-.49609.38086 1.3516 2.3336 2.7057 4.6707 4.0469 6.9941l-.03711.03711c-2.1562 3.7735-4.3144 7.4708-6.4707 11.244h-6.8535c.01589.24631.0093.39533.02148.60742h6.834c2.1188 3.6601 4.237 7.3575 6.3555 11.018l.15234.22656c-2.194 3.7357-4.3515 7.508-6.5078 11.281h-13.051l-1.7363-3.0098c-.10048.23224-.20251.46349-.30859.69336.5049.87233 1.0119 1.748 1.5137 2.6172-1.385 2.3995-2.7831 4.8122-4.1797 7.2227.25904.008.47325.02457.69727.04102l4.0137-6.9609h13.053c2.1562 3.7735 4.3495 7.5099 6.5059 11.283-2.194 3.7357-4.3495 7.5086-6.5059 11.244h-13.053l-6.3047-10.896c-.18405.0885-.37333.18574-.55078.26758 2.098 3.6334 4.2301 7.3005 6.3262 10.932-2.1562 3.7735-4.3515 7.508-6.5078 11.281h-8.2129c-.02193.0445-.04487.0906-.06641.13476-.07652.15683-.15563.31281-.23437.46875h8.5137c2.1562 3.7735 4.3515 7.5086 6.5078 11.244-2.1562 3.7735-4.3515 7.5099-6.5078 11.283h-13.051l-5.4004-9.3652c-.18911.10178-.38212.1885-.57812.25196 1.8136 3.1355 3.6423 6.2854 5.4473 9.4121-2.1562 3.7357-4.3515 7.5086-6.5078 11.244h-4.3496l.037109.64257h4.3125l.039063.0371c2.1562 3.7357 4.3124 7.4715 6.4687 11.207-1.778 3.0565-3.5188 6.1122-5.2969 9.1309l.41602.56641 5.4102-9.3965h13.051c2.1562 3.7735 4.3515 7.5099 6.5078 11.283-2.1562 3.7357-4.3515 7.5086-6.5078 11.244h-12.672c.1513.22639.26468.41423.41602.64062h12.256c2.1562 3.7357 4.3515 7.5105 6.5078 11.246l-2.3828 4.1504.45312.41406 2.459-4.2637h13.051c2.1562 3.7735 4.3515 7.5099 6.5078 11.283l-2.6484 4.6035.5293.30078 2.6484-4.6035h13.051c2.1562 3.7357 4.3515 7.5105 6.5078 11.246l-1.9668 3.4336.45312.45117 2.043-3.5469h13.051c1.3242 2.2265 2.6103 4.4905 3.8965 6.7168.26483.0378.49298.0391.75781.0391l-4.123-7.0938 6.543-11.246h13.014c2.1562 3.7357 4.3508 7.5105 6.5449 11.246l-5.2578 9.0547h.71875l5.0684-8.7168h13.014c1.9669 3.3585 3.9359 6.7551 5.8652 10.113l.71875-.0371-6.0547-10.414 6.5449-11.246h13.014c2.194 3.7357 4.3508 7.5105 6.5449 11.246-2.1562 3.7353-4.3124 7.4324-6.4688 11.168l.68164.0762 6.3164-10.904h13.014c1.589 2.7545 3.2158 5.5092 4.8047 8.2637l.68164-.0762-4.918-8.5273 6.5059-11.246h13.053c2.1562 3.7357 4.3117 7.5105 6.5059 11.246l-5.0684 8.7148.71875.0391 4.8809-8.4141h13.051c2.0428 3.5471 4.0861 7.0547 6.1289 10.602l.67969-.0762-6.2793-10.867 6.5078-11.244h13.051c2.156 3.7357 4.3136 7.5086 6.5078 11.244-1.8539 3.2451-3.7452 6.4913-5.6367 9.7363h.71875l5.4473-9.3965h13.051c1.4754 2.5659 2.9887 5.1699 4.502 7.7734.227-.0378.45464-.0371.68164-.0371l-4.6543-8.0762 6.5078-11.244h13.051c2.1562 3.7357 4.3515 7.5086 6.5078 11.244l-4.7305 8.1895.68164.0742 4.5781-7.9238h13.051c1.8157 3.1321 3.6314 6.3018 5.4473 9.4336l.64258-.1875-5.5606-9.584 6.5078-11.246h13.051c2.1562 3.7357 4.3495 7.5105 6.5059 11.246l-4.4629 7.7715.71875-.0371 4.2754-7.3965h13.051l.22656.3789c.18913-.0752.34013-.22683.5293-.33984l-.22657-.37695c2.194-3.7357 4.3515-7.5106 6.5078-11.246h3.1016c.15133-.22654.26468-.41491.41602-.60351h-3.5176c-2.1562-3.7735-4.3136-7.508-6.5078-11.281 2.194-3.7357 4.3515-7.5086 6.5078-11.244h10.629v-.64258h-10.629c-2.1562-3.7357-4.3515-7.5086-6.5078-11.244 2.194-3.7735 4.3515-7.508 6.5078-11.281h11.576l-.11523-.60547h-11.461c-2.1562-3.7357-4.3136-7.5086-6.5078-11.244 2.194-3.7735 4.3515-7.508 6.5078-11.281h10.668l.0742-.60352h-10.742c-2.1562-3.7735-4.3515-7.5099-6.5078-11.283 2.194-3.7357 4.3515-7.5086 6.5078-11.244h10.932v-.60352h-10.932c-2.1562-3.7735-4.3136-7.5099-6.5078-11.283 2.194-3.7357 4.3515-7.5086 6.5078-11.244h9.6074v-.64062h-9.6074c-2.1562-3.7357-4.3136-7.5086-6.5078-11.244 2.194-3.7357 4.3515-7.5105 6.5078-11.246h6.2793v-.64062h-6.2793c-2.1562-3.7357-4.3136-7.5086-6.5078-11.244 2.194-3.7735 4.3515-7.5099 6.5078-11.283h4.3125l-.0391-.60352h-4.2734c-2.1562-3.7735-4.3515-7.508-6.5078-11.281 2.1562-3.7357 4.3515-7.4728 6.5078-11.246h2.6465l-.0371-.60352h-2.6094c-2.1444-3.7527-4.291-7.4667-6.4727-11.219-.25333.07778-.50224.17053-.75781.24023h.19726l5.9395 10.227.56836 1.0566-6.5078 11.244h-13.051l-6.5078-11.244 4.2676-7.4004c-.16053.05641-.2493.08331-.44531.1543-.14616.05293-.29519.10096-.44141.1543-1.3079 2.259-2.6168 4.517-3.9141 6.7871h-.50977c-.0684.20952-.13857.41181-.20898.60547h.72265c2.1562 3.7735 4.3515 7.5086 6.5078 11.244-2.1562 3.7735-4.3515 7.5099-6.5078 11.283h-13.051l-6.4746-11.225c-.17287.13195-.34592.24913-.51953.35352 2.1432 3.7127 4.322 7.4617 6.4648 11.174-2.1562 3.7735-4.3495 7.508-6.5059 11.281h-13.053l-6.5059-11.281 6.5059-11.244h8.4863c-.32005-.18154-.63904-.40142-.95508-.64453h-7.5352l-5.1875-8.9629c-.0932.25618-.18854.49223-.28516.7207 1.6572 2.8486 3.3065 5.7059 4.9453 8.5449-2.1562 3.7735-4.3495 7.5099-6.5059 11.283h-13.053l-4.2617-7.3906c-.35079-.18174-.70527-.38576-1.0664-.60352 1.6012 2.7664 3.2081 5.5392 4.7988 8.2949-2.194 3.7735-4.3495 7.5099-6.5059 11.283h-13.053l-6.5059-11.283 6.5059-11.244h10.641c-.26875-.21841-.49474-.42456-.7539-.64258h-9.8887l-1.9824-3.4238c-.25572.06854-.39645.10097-.61133.15625.69022 1.1874 1.3696 2.3841 2.0664 3.5703-2.194 3.7735-4.3495 7.5099-6.5059 11.283h-13.053l-6.5059-11.283.58789-1.0176c-.24739.0035-.46682.02873-.72461.02734-.13174.22848-.26475.4593-.39649.6875h-13.051l-.0937-.16211c-.23436 5.6e-5-.46876-3.8e-5-.70312 0 .0907.1545.17878.31034.26953.46484-2.194 3.7735-4.3515 7.5099-6.5078 11.283h-13.051l-4.6719-8.1016c-.22499.04079-.45362.09303-.67578.125 1.6048 2.7612 3.2028 5.5288 4.8184 8.2793-2.194 3.7735-4.3508 7.5099-6.5449 11.283h-13.014l-6.5449-11.283 6.5449-11.244h3.4844c-.23498-.20664-.4622-.42026-.67969-.64453h-2.8066l-3.0859-5.3027c-.24719-.04004-.46934-.06641-.77734-.12109 1.1083 1.908 2.2163 3.8254 3.334 5.7285-2.1938 3.7735-4.3508 7.5099-6.5449 11.283h-13.014l-6.543-11.283 5.6602-9.7285c-.20529-.08088-.38377-.15271-.57227-.23047-1.876 3.2152-3.7352 6.447-5.6191 9.6543h-13.014l-6.5449-11.244 1.9277-3.3359c-.18689-.07446-.35435-.18825-.50195-.3418-.6505 1.1267-1.2994 2.2421-1.9551 3.375h-13.014l-5.6523-9.7422c-.13274-.04436-.07095-.01922-.23047-.07227-.37572-.64616-.71331-1.3193-1.0703-1.9785zm-13.172.81641h13.051c2.1562 3.7735 4.3515 7.508 6.5078 11.281-2.1562 3.7357-4.3515 7.5105-6.5078 11.246h-13.051l-6.5078-11.246zm219.56 8.4688c-.0868.0052-.1659.0094-.24805.01367.14982.72991.46077 1.2508 1.0527 1.3828zm.85352 1.4785c-.2337.01612-.45037.02493-.6836.03711.24898.43254.49867.86629.7461 1.2949-.6394 1.1078-1.2857 2.2216-1.9297 3.334.0809.29638.15161.5849.21094.86133l2.2539-3.8926h3.3106c-.15894-.19636-.31843-.3991-.47852-.60547h-2.8359zm-200.29 1.6367h13.014c2.1562 3.7735 4.3508 7.5086 6.5449 11.244-2.194 3.7735-4.3886 7.5099-6.5449 11.283h-13.014l-6.543-11.283zm39.029.75586c-.0737.12612-.14704.25272-.22071.37891.23001.01387.44838.04373.65625.08594l.10352-.17773c-.0901-.05676-.16231-.0915-.25391-.15039-.0943-.04725-.19002-.09138-.28515-.13672zm57.1 2.7617c-.0117.04487-.0175.09189-.0293.13672.0132-.04168.022-.08524.0352-.12695zm-40.807.14648c.0909.15632.18264.31231.27343.46875.1405.05615.30331.11847.45508.17773l.11914.0098c.0208-.02141.14462-.09978.16992-.12305l-.25781-.44141c-.2538-.02611-.50673-.05651-.75976-.0918zm.72851.64648-.37305-.03516c.0549.09462.11111.18862.16602.2832.31159.15755.60905.22904.91406.35742l-.15234-.26172c-.44769-.01149-.65567-.09052-.45899-.30664-.0315-.01233-.0638-.02466-.0957-.03711zm141.97.62695c-.34635.06849-.49596.10297-.80469.16602-.58146 1.0038-1.16 2.0033-1.7402 3.0059.23512.03867.45636.06493.66406.07813zm-97.58 6.6445h13.051c2.1562 3.7357 4.3515 7.5086 6.5078 11.244-2.194 3.7735-4.3515 7.5099-6.5078 11.283h-13.051l-6.5078-11.283zm-120.57.002h13.053c2.1562 3.7357 4.3495 7.5086 6.5059 11.244-2.1562 3.7735-4.3495 7.5099-6.5059 11.283h-13.053l-6.5059-11.283zm40.215 0h13.014c2.194 3.7357 4.3488 7.5086 6.543 11.244-2.194 3.7735-4.3488 7.5099-6.543 11.283h-13.014l-6.5449-11.283zm200.88 0h13.051l6.5078 11.244-6.5078 11.281h-13.051l-6.5078-11.281zm-265.62 3.3007c-.0073.001-.03682.02414-.09375.07422-.12571.1106-.23662.23475-.34766.35938.01244.02148.02467.04298.03711.06445.23266-.28368.42712-.50126.4043-.49805zm125.01 8.2441h13.053c2.1184 3.7735 4.3117 7.5099 6.5059 11.283-2.194 3.7357-4.3495 7.5086-6.5059 11.244h-13.053l-6.5059-11.244zm40.176 0h13.051c2.0806 3.6227 4.1615 7.2455 6.2422 10.83l.26563.45312c-2.1562 3.7357-4.3515 7.5086-6.5078 11.244h-13.051l-6.5078-11.244zm40.176 0h13.051c2.194 3.7735 4.3515 7.5099 6.5078 11.283-2.1562 3.7357-4.3515 7.5086-6.5078 11.244h-13.051l-6.5078-11.244zm40.178 0h13.053c2.1562 3.7735 4.3495 7.5099 6.5059 11.283-2.1562 3.7357-4.3495 7.5086-6.5059 11.244h-13.053l-6.5059-11.244zm-241.1.002h13.051c2.1562 3.7735 4.3515 7.508 6.5078 11.281-2.1562 3.7357-4.3515 7.5105-6.5078 11.246h-13.051l-6.5078-11.246zm40.215 0h13.014c2.1182 3.6979 4.2362 7.3575 6.3926 11.018l.15235.26367c-2.194 3.7357-4.3888 7.5086-6.5449 11.244h-13.014l-6.5449-11.244zm40.176 0h13.014c2.194 3.7735 4.3508 7.508 6.5449 11.281-2.194 3.7357-4.3508 7.5086-6.5449 11.244h-13.014l-6.5449-11.244zm-97.891 10.977c-.04041.21209-.07454.40935-.10742.60742h3.5312c-.001-.20497-.0056-.39996-.0078-.60742zm158.16.60547h13.051c2.1562 3.7357 4.3136 7.5086 6.5078 11.244-2.194 3.7735-4.3515 7.5099-6.5078 11.283h-13.051l-6.5059-11.283zm40.176 0h13.051c2.1562 3.7735 4.3515 7.5086 6.5078 11.244-2.194 3.7735-4.3515 7.5099-6.5078 11.283h-13.051l-6.5059-11.283zm40.176 0h13.053c2.1562 3.7735 4.3495 7.5086 6.5059 11.244-2.1562 3.7735-4.3495 7.5099-6.5059 11.283h-13.053l-6.5059-11.283zm40.178 0h13.051l5.9395 10.227.56836 1.0176-6.5078 11.283h-13.051l-6.5078-11.283zm-241.1.002h13.051c2.1562 3.7357 4.3515 7.5086 6.5078 11.244-2.1562 3.7735-4.3515 7.508-6.5078 11.281h-13.051l-6.5078-11.281zm40.213 0h13.014c2.194 3.7357 4.3508 7.5086 6.5449 11.244-2.194 3.7735-4.3508 7.508-6.5449 11.281h-13.014l-6.5449-11.281zm40.176 0h13.014c2.1562 3.7735 4.3508 7.5086 6.5449 11.244-2.194 3.7735-4.3508 7.508-6.5449 11.281h-13.014l-6.5449-11.281zm20.094 11.582h13.053v.03906c2.1562 3.7357 4.3495 7.4695 6.5059 11.205-2.194 3.7357-4.3495 7.5105-6.5059 11.246h-13.053l-6.5059-11.246zm40.178 0h13.051c2.1562 3.7357 4.3136 7.5086 6.5078 11.244-2.1562 3.7735-4.3515 7.5105-6.5078 11.246h-13.051l-6.5059-11.246zm40.176 0h13.053c2.1562 3.7357 4.3495 7.5086 6.5059 11.244-2.1562 3.7357-4.3495 7.5105-6.5059 11.246h-13.053l-6.5059-11.246zm40.176 0h13.053c2.1562 3.7357 4.3495 7.5086 6.5059 11.244-2.1562 3.7357-4.3495 7.5105-6.5059 11.246h-13.053l-6.5059-11.246zm-241.1.002h13.051c2.1562 3.7357 4.3515 7.5086 6.5078 11.244-2.1562 3.7357-4.3515 7.5086-6.5078 11.244h-13.051l-6.5078-11.244zm40.213 0h13.014l.0371.03711c2.1562 3.7357 4.3136 7.4715 6.5078 11.207-2.194 3.7357-4.3886 7.5086-6.5449 11.244h-13.014l-6.5449-11.244zm40.176 0h13.014c2.194 3.7357 4.3509 7.5086 6.5449 11.244-2.1938 3.7357-4.3508 7.5086-6.5449 11.244h-13.014l-6.5449-11.244zm-60.301 11.545h13.053c2.1562 3.7735 4.3495 7.5099 6.5059 11.283-2.1562 3.7357-4.3495 7.4708-6.5059 11.244h-13.053l-6.5059-11.244zm40.213 0h13.014c2.194 3.7735 4.3508 7.5099 6.5449 11.283-2.194 3.7357-4.3508 7.4708-6.5449 11.244h-13.014l-6.5449-11.244zm40.178 0h13.014c2.194 3.7735 4.3508 7.5099 6.5449 11.283-2.194 3.7357-4.3508 7.4708-6.5449 11.244h-13.014l-6.5449-11.244zm40.184 0h13.051c2.1562 3.7735 4.3136 7.508 6.5078 11.281-2.194 3.7357-4.3515 7.4728-6.5078 11.246h-13.051l-6.5078-11.246zm40.174 0h13.053c2.1562 3.7735 4.3117 7.508 6.5059 11.281-2.194 3.7357-4.3495 7.4728-6.5059 11.246h-13.053l-6.5059-11.246zm40.178 0h13.053c2.1562 3.7735 4.3497 7.508 6.5058 11.281-2.156 3.7357-4.3495 7.4728-6.5058 11.246h-13.053l-6.5059-11.246zm40.178 0h13.051l6.5059 11.281-6.5059 11.246h-13.051l-6.5078-11.246zm-285.73 7.3672c-.04654-.01379-.07406.23196-.10352.53906l.18945-.32812c-.0069-.02576-.0097-.05015-.01758-.07617-.02634-.08738-.04974-.12925-.06836-.13476zm-.86133 1.8555c-.44136.26979-.82682.5137-1.1523.73242-.16227.28075-.32641.56337-.48828.84375.0045.0086.0091.02094.01367.0293.08511-.09749.17423-.19845.27344-.30664.18351-.20011.07336.18286-.05664.60156.01461.0138.02988.02516.04492.03711.13435-.08057.26372-.17336.39648-.25977zm-1.3652 1.9375c-.02331.01398-.04703.0272-.07031.04102-.0693.22218-.13667.43873-.16797.58594.0023.004.0055.008.0078.0117.18835-.0818.36584-.18011.53711-.28906l-.13086-.22657.01953-.03516c-.06835-.01601-.13461-.03968-.19531-.08789zm-1.8164-.21875c-.0197.03281-.03289.06073-.05273.09375-.05859.18715-.14062.36362-.20313.54882h.50586c.02161-.14417.18196-.35996.48438-.64257zm68.801.64257h13.014c2.156 3.7735 4.3515 7.5106 6.5078 11.246-2.1562 3.7735-4.3517 7.508-6.5078 11.281h-13.014l-6.5449-11.281zm40.176 0h13.014c2.194 3.7357 4.3508 7.5106 6.5449 11.246-2.194 3.7735-4.3508 7.508-6.5449 11.281h-13.014l-6.5449-11.281zm40.186 0h13.051c2.1184 3.7357 4.3138 7.5086 6.5078 11.244-2.1938 3.7735-4.3515 7.5099-6.5078 11.283h-13.051l-6.5059-11.283zm40.176 0h13.051c2.0806 3.5849 4.1615 7.2077 6.2422 10.83l.26563.41406c-2.1562 3.7735-4.3515 7.5099-6.5078 11.283h-13.051l-6.5078-11.283zm40.176 0h13.051l.0371.0371c2.1562 3.7357 4.3144 7.4715 6.4707 11.207-2.1562 3.7735-4.3517 7.508-6.5078 11.281h-13.051l-6.5078-11.281zm40.176 0h13.053c2.1562 3.7357 4.3495 7.5086 6.5059 11.244-2.1562 3.7735-4.3495 7.508-6.5059 11.281h-13.053l-6.5059-11.281zm-241.1.002h13.051c2.194 3.7357 4.3515 7.5086 6.5078 11.244-2.1562 3.7735-4.3136 7.508-6.5078 11.281h-13.051l-6.5078-11.281zm221.02 11.543h13.053c2.1184 3.7735 4.3495 7.5099 6.5059 11.283-2.1562 3.7357-4.3495 7.5086-6.5059 11.244h-13.053l-6.5059-11.244zm40.176 0h13.053l6.5059 11.283-6.5059 11.244h-13.053l-6.5059-11.244zm-281.28.002h13.051c2.1562 3.7735 4.3515 7.5099 6.5078 11.283-2.1562 3.7357-4.3515 7.5086-6.5078 11.244h-13.051l-6.5059-11.244zm40.176 0h13.051c2.1562 3.7735 4.3515 7.5476 6.5078 11.283-2.1562 3.7357-4.3515 7.5086-6.5078 11.244h-13.051l-6.5059-11.244zm40.215 0h13.014c2.194 3.7735 4.3508 7.5099 6.5449 11.283-2.194 3.7357-4.3508 7.5086-6.5449 11.244h-13.014l-6.5449-11.244zm40.176 0h13.014c2.1562 3.7735 4.3508 7.5099 6.5449 11.283-2.194 3.7357-4.3508 7.5086-6.5449 11.244h-13.014l-6.5449-11.244zm40.186 0h13.051c2.1562 3.7735 4.3515 7.508 6.5078 11.281-2.194 3.7357-4.3515 7.5086-6.5078 11.244h-13.051l-6.5059-11.244zm40.176 0h13.051c2.1562 3.7735 4.3515 7.508 6.5078 11.281-2.194 3.7357-4.3515 7.5086-6.5078 11.244h-13.051l-6.5078-11.244zm60.264 11.582h13.053c2.1562 3.7735 4.3495 7.5106 6.5059 11.246-2.1562 3.7735-4.3495 7.508-6.5059 11.281h-13.053l-6.5059-11.281zm-241.1.002h13.053c2.1562 3.7735 4.3495 7.5086 6.5059 11.244-2.1562 3.7735-4.3495 7.5099-6.5059 11.283h-13.053l-6.5059-11.283zm40.215 0h13.014c2.156 3.7735 4.3508 7.5086 6.5449 11.244-2.194 3.7735-4.3888 7.5099-6.5449 11.283h-13.014l-6.5449-11.283zm40.176 0h13.014c2.194 3.7735 4.3508 7.5086 6.5449 11.244-2.194 3.7735-4.3508 7.5099-6.5449 11.283h-13.014l-6.5449-11.283zm40.186 0h13.051c2.1562 3.7735 4.3138 7.5086 6.5078 11.244-2.1938 3.7735-4.3515 7.508-6.5078 11.281h-13.051l-6.5059-11.281zm40.176 0h13.051c2.1562 3.7735 4.3136 7.5086 6.5078 11.244-2.194 3.7735-4.3515 7.508-6.5078 11.281h-13.051l-6.5078-11.281zm40.176 0h13.051c2.156 3.7735 4.3515 7.5086 6.5078 11.244-2.1562 3.7735-4.3517 7.508-6.5078 11.281h-13.051l-6.5059-11.281zm-60.266 11.582h13.053c2.1562 3.7357 4.3117 7.5088 6.5059 11.244-2.194 3.7357-4.3495 7.5086-6.5059 11.244h-13.053l-6.5059-11.244zm80.354 0h13.051c2.1562 3.7357 4.3515 7.471 6.5078 11.244-2.1562 3.7357-4.3515 7.5086-6.5078 11.244h-13.051l-6.5078-11.244zm40.176 0h13.051l6.5078 11.244-6.5078 11.244h-13.051l-6.5059-11.244zm-281.27.002h13.051c2.1562 3.7357 4.3515 7.5086 6.5078 11.244l-.03906.0371c-2.1562 3.7357-4.3124 7.4715-6.4688 11.207h-13.051l-6.5078-11.244zm40.176 0h13.051c2.1562 3.7357 4.3515 7.5086 6.5078 11.244-2.1562 3.7357-4.3515 7.5086-6.5078 11.244h-13.051l-6.5078-11.244zm40.203 0h13.014c2.194 3.7357 4.3508 7.5086 6.5449 11.244-2.194 3.7735-4.3508 7.5106-6.5449 11.246h-13.014l-6.5449-11.246zm40.188 0h13.014c2.194 3.7357 4.3886 7.4708 6.5449 11.244-2.194 3.7357-4.3508 7.5086-6.5449 11.244h-13.014l-6.5449-11.244zm80.35 0h13.051c2.1562 3.7357 4.3136 7.5086 6.5078 11.244-2.194 3.7357-4.3515 7.5086-6.5078 11.244h-13.051l-6.5059-11.244zm60.266 11.543h13.051c2.1562 3.7735 4.3495 7.5099 6.5059 11.283-2.1562 3.7357-4.3495 7.5086-6.5059 11.244h-13.051l-6.5078-11.244zm-281.27.002h13.051c2.1562 3.7735 4.3495 7.5099 6.5059 11.283-2.1562 3.7357-4.3495 7.5086-6.5059 11.244h-13.051l-6.5078-11.244zm40.176 0h13.051c2.194 3.7735 4.3515 7.5099 6.5078 11.283-2.1562 3.7357-4.3136 7.5086-6.5078 11.244h-13.051l-6.5078-11.244zm40.215 0h13.014c2.1562 3.7735 4.3495 7.5099 6.5059 11.283-2.1562 3.7357-4.3117 7.5086-6.5059 11.244h-13.014l-6.5449-11.244zm40.176 0h13.014c2.1938 3.7735 4.3508 7.5099 6.5449 11.283-2.194 3.7357-4.3509 7.5086-6.5449 11.244h-13.014l-6.5449-11.244zm40.176 0h13.051c2.1184 3.7735 4.3119 7.5079 6.5058 11.281-2.1938 3.7357-4.3495 7.5086-6.5058 11.244h-13.051l-6.5078-11.244zm40.174 0h13.053c2.0806 3.6227 4.1596 7.2435 6.2402 10.828l.26563.45313c-2.1562 3.7357-4.3495 7.5086-6.5059 11.244h-13.053l-6.5059-11.244zm40.176 0h13.051l.0391.0742c2.1562 3.7357 4.3124 7.4715 6.4688 11.207-2.1562 3.7357-4.3495 7.5086-6.5059 11.244h-13.053l-6.5059-11.244zm60.264 11.582h13.053l6.5059 11.246-6.5059 11.281h-13.053l-6.5059-11.281zm-281.27.002h13.051c2.1562 3.7357 4.3515 7.5086 6.5078 11.244 0 .0378-5.9404 10.302-6.5078 11.283h-13.051l-6.5078-11.283zm40.176 0h13.051c2.1562 3.7735 4.3515 7.5086 6.5078 11.244-2.1562 3.7735-4.3515 7.51-6.5078 11.283h-13.051l-6.5078-11.283zm40.215 0h13.014c2.194 3.7357 4.3508 7.5086 6.5449 11.244-2.194 3.7735-4.3508 7.51-6.5449 11.283h-13.014l-6.5449-11.283zm40.176 0h13.014l.0371.0371c2.156 3.7357 4.3136 7.4715 6.5078 11.207-2.194 3.7735-4.3508 7.51-6.5449 11.283h-13.014l-6.5449-11.283zm40.174 0h13.053c2.1562 3.7357 4.3117 7.5086 6.5059 11.244-2.194 3.7735-4.3495 7.508-6.5059 11.281h-13.053l-6.5059-11.281zm40.176 0h13.053c2.1562 3.7735 4.3495 7.5086 6.5059 11.244-2.194 3.7735-4.3495 7.508-6.5059 11.281h-13.053l-6.5059-11.281zm40.178 0h13.051l.0371.0371c2.1562 3.7357 4.3124 7.4715 6.4688 11.207-2.1562 3.7735-4.3495 7.508-6.5059 11.281h-13.051l-6.5078-11.281zm-100.44 11.545h13.051c2.1562 3.7735 4.3119 7.5099 6.5058 11.283-2.1938 3.7357-4.3495 7.5086-6.5058 11.244h-13.051l-6.5078-11.244zm40.174 0h13.053c2.1562 3.7735 4.3117 7.5476 6.5059 11.283-2.1562 3.7357-4.3495 7.5086-6.5059 11.244h-13.053l-6.5059-11.244zm40.178 0h13.051c2.1562 3.7735 4.3495 7.5099 6.5059 11.283-2.1562 3.7357-4.3495 7.5086-6.5059 11.244h-13.051l-6.5078-11.244zm40.176 0h13.051c2.1562 3.7735 4.3495 7.5099 6.5059 11.283-2.1562 3.7357-4.3495 7.5086-6.5059 11.244h-13.051l-6.5078-11.244zm-241.09.002h13.051c2.1562 3.7735 4.3515 7.508 6.5078 11.281-2.1562 3.7357-4.3515 7.5105-6.5078 11.246h-13.051l-6.5059-11.246zm40.215 0h13.014c2.1562 3.7735 4.3508 7.508 6.5449 11.281-2.194 3.7357-4.3886 7.5105-6.5449 11.246h-13.014l-6.5449-11.246zm40.176 0h13.014c2.1938 3.7735 4.3508 7.508 6.5449 11.281-2.194 3.7357-4.3509 7.5105-6.5449 11.246h-13.014l-6.5449-11.246zm60.262 11.582h13.051c2.1188 3.6601 4.2391 7.3576 6.3574 11.018l.1504.22656c-2.194 3.7735-4.3515 7.5099-6.5078 11.283h-13.051l-6.5059-11.283zm40.176 0h13.053c2.1562 3.7735 4.3495 7.5086 6.5059 11.244-2.194 3.7735-4.3495 7.5099-6.5059 11.283h-13.053l-6.5059-11.283zm40.178 0h13.051c2.0806 3.6979 4.237 7.3574 6.3555 11.018l.15039.22656c-2.1562 3.7735-4.3495 7.5099-6.5059 11.283h-13.051l-6.5078-11.283zm40.174 0h13.051l4.5781 7.8867 1.9297 3.3574-6.5078 11.283h-13.051l-6.5078-11.283zm-281.27.002h13.051c2.1188 3.6601 4.237 7.3574 6.3555 11.018l.15234.22656-.03906.0762c-2.1562 3.7357-4.3124 7.4695-6.4688 11.205h-13.051l-6.5078-11.281zm40.176 0h13.051c2.1562 3.7735 4.3515 7.5086 6.5078 11.244-2.1562 3.7735-4.3515 7.508-6.5078 11.281h-13.051l-6.5078-11.281zm40.211 0h13.014c2.194 3.7735 4.3508 7.5086 6.5449 11.244-2.194 3.7735-4.3508 7.508-6.5449 11.281h-13.014l-6.543-11.281zm40.178 0h13.014c2.1562 3.7735 4.3866 7.5086 6.543 11.244-2.194 3.7735-4.3488 7.5099-6.543 11.283h-13.014l-6.5449-11.283zm20.086 11.582h13.051c2.1184 3.7357 4.3117 7.5086 6.5059 11.244-2.194 3.7733-4.3495 7.5099-6.5059 11.283h-13.051l-6.5078-11.283zm40.178 0h13.053c2.0806 3.5849 4.1596 7.2078 6.2402 10.83l.26563.41407c-2.1562 3.7733-4.3495 7.5099-6.5059 11.283h-13.053l-6.5059-11.283zm40.176 0h13.053c2.194 3.7357 4.3495 7.5086 6.5059 11.244-2.1562 3.7733-4.3495 7.5099-6.5059 11.283h-13.053l-6.5059-11.283zm40.176 0h13.051c2.1562 3.7357 4.3515 7.5086 6.5078 11.244-2.1562 3.7733-4.3515 7.5099-6.5078 11.283h-13.051l-6.5078-11.283zm-241.1.002h13.053c2.1562 3.7357 4.3495 7.5086 6.5059 11.244-2.1562 3.7735-4.3117 7.5099-6.5059 11.283h-13.053l-6.5059-11.283zm40.217 0h13.014c2.1562 3.7357 4.3495 7.5086 6.5059 11.244-2.1562 3.7735-4.3117 7.5099-6.5059 11.283h-13.014l-6.5449-11.283zm40.174 0h13.014c2.194 3.7357 4.3508 7.5086 6.5449 11.244-2.194 3.7735-4.3508 7.5099-6.5449 11.283h-13.014l-6.543-11.283zm60.264 11.545h13.053c2.1562 3.7735 4.3117 7.5099 6.5059 11.283-2.194 3.7357-4.3495 7.5086-6.5059 11.244h-13.053l-6.5059-11.244zm40.178 0h13.053c2.1562 3.7735 4.3495 7.508 6.5059 11.281-2.194 3.7357-4.3495 7.5106-6.5059 11.246h-13.053l-6.5059-11.246zm40.176 0h13.051l.0371.0762c2.156 3.7357 4.3144 7.4715 6.4707 11.207-2.1562 3.7357-4.3515 7.5086-6.5078 11.244h-13.051l-6.5078-11.244zm40.176 0h13.053l6.5059 11.283-6.5059 11.244h-13.053l-6.5059-11.244zm-241.1.002h13.053c2.1562 3.7735 4.3495 7.508 6.5059 11.281-2.1562 3.7357-4.3495 7.5086-6.5059 11.244h-13.053l-6.5059-11.244zm40.215 0h13.014c2.194 3.7735 4.3508 7.508 6.5449 11.281-2.194 3.7357-4.3508 7.5086-6.5449 11.244h-13.014l-6.543-11.244zm40.176 0h13.014l.0391.0742c2.1562 3.7357 4.3117 7.4715 6.5059 11.207-2.194 3.7357-4.3508 7.5086-6.5449 11.244h-13.014l-6.543-11.244z" fill="#a00" stroke-width="3.7795"/></g></svg>
