<svg id="svg5" width="92.016mm" height="63.475mm" version="1.1" viewBox="0 0 92.016 63.475" xmlns="http://www.w3.org/2000/svg"><g id="layer1" transform="translate(66.383 -251.29)"><path id="path1679" d="m-50.538 251.34c2.3722.88854 4.5542 1.7771 6.6362 2.6157l.3203.12979.08007.0299.04004.02.03003.01.04004.02.04004.01c.72067.2995 1.4313.57904 2.0519.82863.69064.27954 1.3713.54909 2.0519.80866l.04004.01.06006.02c.52048.19967 1.051.39935 1.6015.59902.51047.18968 1.0209.36938 1.5414.54909l.03003.01.02002.01c1.3312.45925 2.6725.86857 4.0337 1.238 1.3713.35941 2.7726.67888 4.2239.92847l.04004.01.03003.01h.04004c.71066.1198 1.4313.22962 2.172.31947.78073.0998 1.5815.17971 2.3922.23961h.05005c.5405.0399 1.091.0699 1.6415.0898.58054.03 1.1711.0399 1.7616.0499l.82076-.01.99092-.02h.05005c1.1711-.01 2.3021-.0399 3.4032-.0799 1.101-.0299 2.172-.0799 3.213-.12979h.05005l.05005-.01h.11011c.67062-.0399 1.3212-.0799 1.9718-.1198s1.3012-.0899 1.9318-.13977l.06005-.01h.06006c1.2612-.10982 2.4623-.22962 3.6134-.35941 1.1811-.12979 2.3121-.28952 3.4032-.44926.91085-.13977 1.7917-.28952 2.6324-.44926.84078-.14975 1.6515-.31947 2.4423-.48919l.080074-.02.080076-.02c.80074-.1797 1.5915-.36939 2.3622-.55908.78072-.20965 1.5514-.41931 2.3121-.63894l.03003-.01.04004-.01c1.5414-.44926 3.0328-.93845 4.5242-1.4576 1.4413-.49918 2.8627-1.0283 4.324-1.5874l.05005-.02.14013-.0599 1.5614-.59901.02002-.01c.62058-.2396 1.2412-.47921 1.8717-.7288l.35032-.13977.19018 2.8653.7507 10.742c.1101 1.6173.2202 3.2347.33031 4.862v.02l.02002.02-.02002.02.03003.35941c.10009 1.4875.19018 2.995.29027 4.5026.10009 1.5774.20019 3.1648.29027 4.7621l.1001 1.6772.10009 1.9368c.06005.99835.1101 1.9967.16015 2.995.05005 1.0283.10009 2.0566.15014 3.0749l.01001.26955c.05005.99835.09009 1.9967.13012 2.9951.04004.98836.07006 1.9767.1101 2.9751l.01001.33944-.01001-.01c0 .9684 0 2.2163-.07007 3.604l-.02002.34942c-.07006 1.0283-.18017 2.1365-.36033 3.2646-.19018 1.0982-.44041 2.2064-.79074 3.2846l-.09008.27954c-.47044 1.3478-1.091 2.6356-1.9418 3.7638-.85079 1.1381-1.9218 2.0965-3.273 2.7854l-.25023.12979c-.66061.2995-1.3813.54909-2.162.71881-.82076.1797-1.7116.26955-2.6825.27954-12.912.02-25.824.0998-38.736.12978h-10.149c-1.2412 0-2.4723-.01-3.7034-.01-.4304 0-.85079-.02-1.2812-.0399-.30028-.01-.61057-.0399-.93086-.0599h.01001c-.3203-.03-.63059-.0599-.95088-.0899-1.3312-.15973-2.6725-.38935-3.9937-.71881-1.3913-.33944-2.7626-.76873-4.0938-1.2779l-.27025-.10982c-1.1611-.45924-2.2821-.97838-3.3731-1.5674-1.101-.58902-2.162-1.238-3.1729-1.9568l-.2102-.14976c-.99092-.71881-1.9318-1.4975-2.8026-2.3262-.85079-.80867-1.6415-1.6772-2.3522-2.5857l-.16015-.20965c-.79074-1.0283-1.4814-2.1165-2.0619-3.2646-.55051-1.0782-1.0009-2.2064-1.3412-3.3744l-.08008-.28952c-.13012-.46922-.24022-.94843-.33031-1.4276-.10009-.49917-.17016-1.0083-.23021-1.5175-.07006-.70883-.12011-1.4077-.14013-2.0965-.02002-.68886-.01001-1.3677.02002-2.0266l.01001-.2995h.01001c.02002-.38936.05005-.77872.09008-1.1681.04004-.34942.08007-.68886.13012-1.0383h-.01001l.07006-.38936c.18017-1.218.45042-2.396.78072-3.5641s.73068-2.3162 1.1711-3.4543l.08007-.18969c.52048-1.3078 1.111-2.6057 1.7416-3.9135.6506-1.3278 1.3513-2.6656 2.0819-4.0134l.01001-.02.04004-.0699.01001-.02.01001-.01.01001-.02v-.01l.02002-.04.01001-.01.02002-.04c.17016-.30949.35032-.63895.53049-.97839l.19018-.34942.59055-1.0682c.94087-1.7271 1.9118-3.4842 2.8627-5.3312.68063-1.2978 1.3412-2.6356 1.9818-4.0134.63059-1.3578 1.2311-2.7654 1.7917-4.213l.01001-.01.02002-.0699.01001-.03.02002-.0299.01001-.0299c.23021-.609.46043-1.218.68063-1.847.2202-.65891.45042-1.3178.66061-1.9967l.04004-.13977zm69.384 13.937-5.9155 5.8603 5.0447 5.0017c1.2912-1.2779 2.5824-2.5558 3.8636-3.8237l2.0619-2.0366zm-5.2449-5.1914-5.1548 5.1116-.05005.0399-.10009.10982-.13012.12979-.02002.02-.46043.44926c1.5815 1.5674 3.1629 3.1248 4.7344 4.6922l.08008.0799.08007.0799.08007.0699.08008.0799 5.9155-5.8603-3.1229-3.0949-.16015-.15973-.3203-.31947-.3203-.31948-.16015-.14975-.16015-.15974-.16015-.15973-.16015-.15974-.16015-.15973-.17016-.15974zm4.3741 16.423-5.9155 5.8603 5.0547 5.0117 3.9537-3.9135 1.9618-1.9468zm-5.9155 5.8603m-.37034.01c-1.5214-1.5075-3.0428-3.015-4.5642-4.5225l-.08007-.0799-.09008-.0899-.08008-.0799-.09008-.0899-.15014-.1498-5.9155 5.8603 5.0547 5.0117zm1.051-11.062-5.6953 5.6507-.2202.21964 5.0547 5.0017 5.9155-5.8603zm-5.2349-5.1814-5.9255 5.8603 5.0547 5.0017 5.9155-5.8603zm-5.2449-5.1914-5.9155 5.8603c1.5815 1.5574 3.1529 3.1248 4.7344 4.6922l.08007.0799.08008.0699.16014.1598 5.9155-5.8603zm13.803 37.857c-1.2712-1.2479-2.5324-2.5059-3.8035-3.7638l-.08008-.0799-.09008-.0899-.08008-.0799-.08007-.0799-.09008-.0899-.08008-.0799-.09008-.0899-.08007-.0799-.09009-.0899-.17016-.15974-.08008-.0898-.09008-.0799-.08008-.0899-.07006-.0599-2.7025 2.6756c-1.071 1.0582-2.142 2.1265-3.213 3.1847l.16015.1598.080076.0699.080074.0799.070064.0799 4.6643 4.6124 1.7917-1.7771zm1.051-11.052-5.9155 5.8603 1.2612 1.2479.08008.0799.16014.1598.08008.0799.07006.0799 3.4032 3.3545 5.9155-5.8603zm-5.9155 5.8603m.68063-11.052-5.7153 5.6606-.04004.0399-.17016.15973 5.0547 5.0117 5.9155-5.8703zm-11.16.66889m-.37034 0c-1.5214-1.4975-3.0428-3.005-4.5642-4.5125l-.09008-.0899-.08008-.0799-.09008-.0799-.08007-.0899-.15014-.1498-5.9155 5.8603 5.0447 5.0117zm1.051-11.052-5.6953 5.6507-.2202.20966 5.0447 5.0117 5.9155-5.8603zm-5.2449-5.1914-5.9155 5.8703 5.0547 5.0017 5.9155-5.8603zm-5.2349-5.1914-5.4651 5.421-.45042.44926c1.5815 1.5574 3.1529 3.1248 4.7344 4.6922l.08007.0699.08008.0799.08007.0799.07006.0799 5.9255-5.8603zm30.568 42.39c-1.5915 1.5774-3.193 3.1548-4.7844 4.7322l-.07006.0699-.1001.0998-.96089.95841 3.3031 3.2746c1.3513-.66889 2.4223-1.6273 3.263-2.7554.85079-1.1281 1.4814-2.436 1.9418-3.8137zm-6.2959 5.8603c-1.6015-1.5874-3.203-3.1847-4.8145-4.7721l-.08007-.0899-.09008-.0799-.06006-.0699-.08007.0799c-1.9418 1.9268-3.8936 3.8536-5.8354 5.7904l3.5133 3.4842 3.0729-.01zm1.061-11.052-5.9255 5.8603 5.0547 5.0017 5.9155-5.8603zm-6.2959 5.8603c-1.6115-1.5874-3.213-3.1847-4.8145-4.7721l-.090085-.0799-.080073-.0898-.070064-.0599-5.8154 5.7605-.10009.0998 5.0547 5.0017zm-5.2349-5.1914c-1.6916-1.6672-3.3731-3.3345-5.0547-5.0017l-2.7025 2.6756c-1.071 1.0582-2.142 2.1265-3.213 3.1847l.15014.1498.08007.0799.08008.0799.08007.0799 4.6543 4.6124 1.8017-1.7771zm1.051-11.052-5.9155 5.8603 5.0447 5.0017 5.9155-5.8603zm-5.9155 5.8603m.67062-11.052-5.7153 5.6606-.04004.0399-.16015.15973 5.0547 5.0017 5.9155-5.8603zm-11.15.66889m-.38035 0c-1.5214-1.5075-3.0428-3.005-4.5542-4.5125l-.09008-.0899-.08008-.0799-.09008-.0899-.08008-.0799-.09008-.0799-.06005-.0699-5.7153 5.6606-.04004.0399-.17016.15973 5.0547 5.0017zm1.051-11.052-5.6953 5.6407-.2202.21964 5.0547 5.0117 5.9155-5.8703zm-5.2349-5.1914-5.9155 5.8603 5.0547 5.0117 5.9155-5.8603zm-5.2349-5.1914-5.4651 5.4111-.46043.45924c1.5815 1.5574 3.1629 3.1248 4.7444 4.6922l.08007.0699.07006.0799.08008.0799.08007.0799 5.9155-5.8603zm24.273 48.25c-1.6816-1.6672-3.3631-3.3445-5.0547-5.0117l-2.9928 2.9651-2.9227 2.8952 2.7025 2.6856 4.7244-.02zm-5.2349-5.1914c-1.6415-1.6173-3.273-3.2346-4.9046-4.862l-.08007-.0799-.07006-.0699-2.6024 2.5857-.13012.1198-.05005.0599c-1.051 1.0283-2.0919 2.0666-3.1329 3.1049l5.0547 5.0017zm-5.2449-5.1914c-1.6816-1.6672-3.3631-3.3345-5.0447-5.0117l-5.4651 5.4111-.13012.12979-.1001.0998-.23021.22962 5.0547 5.0017 1.8017-1.787zm1.051-11.052-5.9155 5.8603 5.0547 5.0017 5.9155-5.8603zm-5.9155 5.8603m.68063-11.052-5.9155 5.8603 5.0547 5.0017 5.9155-5.8603zm-5.9155 5.8603m-4.5642-16.243-5.9155 5.8603 5.0547 5.0017 5.9155-5.8603zm-5.9155 5.8603m.68063-11.052-5.9155 5.8603 5.0447 5.0117 5.9155-5.8703zm-6.2959 5.8603c-1.5214-1.5075-3.0428-3.005-4.5542-4.5126l-.09008-.0899-.08007-.0799-.17016-.1698-.09009-.0799-.07006-.0699-5.7053 5.6606-.04004.0399-.17016.15974 5.0547 5.0017zm1.051-11.052-5.5351 5.4909-.02002.01-.13012.13977-.1101.0998-.04004.0499-.08007.0699 5.0547 5.0117 5.9155-5.8603zm-5.0447-5.3711c1.5214 1.5075 3.0328 3.005 4.5542 4.5126l.09008.0899.08007.0799.17016.1698.09008.0799.06006.0699c1.2612-1.2479 2.5223-2.4959 3.7835-3.7438-1.3813-.24958-2.7025-.54909-4.0037-.89851-1.3412-.35941-2.6625-.76873-3.9737-1.208zm-.19018.1797-5.0747 5.0317-.03003.03-.23021.22962-.04004.0399-.5405.52912 5.0447 5.0117 5.9255-5.8603c-1.5815-1.5674-3.1629-3.1348-4.7444-4.6922l-.07006-.0799-.08007-.0799-.08008-.0799zm29.517 53.432c-1.6916-1.6672-3.3731-3.3345-5.0547-5.0017l-2.9928 2.9651-2.9227 2.8952 1.8818 1.8769 6.3559-.03zm-5.2449-5.1814c-1.6315-1.6173-3.263-3.2446-4.8945-4.862l-.09008-.0799-.06006-.0699-2.6024 2.5857-.13012.1198-.06005.0599c-1.041 1.0283-2.0819 2.0666-3.1229 3.0949l5.0447 5.0117zm-5.2349-5.1914c-1.6115-1.5874-3.213-3.1847-4.8145-4.7721l-.17016-.1698-.07006-.0699-5.4351 5.3911-.16015.15973-.08007.0799-.24022.22962 5.0547 5.0117zm1.051-11.052-2.7025 2.6756c-1.071 1.0582-2.142 2.1265-3.213 3.1847l5.0547 5.0017 5.9155-5.8603zm-6.2858 5.8603c-1.6916-1.6672-3.3731-3.3345-5.0547-5.0117l-2.7025 2.6856c-1.071 1.0582-2.142 2.1165-3.213 3.1847l5.0447 5.0017zm1.051-11.052-5.9155 5.8603 5.0447 5.0017 5.9155-5.8603zm-5.9155 5.8603m.67062-11.052-5.7153 5.6606-.04004.0399-.16015.15973 5.0547 5.0017 5.9155-5.8603zm-5.2349-5.1914-5.9155 5.8603 5.0447 5.0017 5.9255-5.8603zm-5.9155 5.8603m-4.5642-16.243-5.9155 5.8603 5.0547 5.0117 5.9155-5.8703zm-5.0547-5.3711 5.0547 5.0017 5.9155-5.8603-2.0719-2.0566c-.70065-.26956-1.4113-.54909-2.132-.83862-.7507-.2995-1.4413-.56906-2.122-.84859l-4.4241 4.3828-.02002.02-.10009.0998zm-.8608 11.231m-5.2449-5.1914 5.0547 5.0117 5.9155-5.8703-5.0447-5.0017zm35.443 47.571c-1.6916-1.6672-3.3731-3.3345-5.0547-5.0017l-2.9928 2.9651-2.9227 2.8952 1.041 1.0383h4.0037l4.0237-.01zm-5.2449-5.1914c-1.6315-1.6173-3.263-3.2346-4.8945-4.852l-.09009-.0799-.07006-.0699-2.6024 2.5757-.12011.12979-.06005.0599c-1.041 1.0283-2.0819 2.0666-3.1329 3.0949l5.0547 5.0117zm-5.2349-5.1814c-1.6115-1.5974-3.213-3.1847-4.8145-4.7721l-.09008-.0899-.08007-.0799-.07007-.0699-5.435 5.3911-.16015.15973-.08008.0799-.24022.22962 5.0547 5.0117zm-5.2449-5.1914c-1.6816-1.6672-3.3631-3.3445-5.0447-5.0117l-2.6124 2.5857-.12011.1198-.06006.0599c-1.041 1.0283-2.0819 2.0666-3.1329 3.0949l5.0547 5.0117 1.7817-1.7671zm1.051-11.052-5.9155 5.8603 5.0547 5.0017 5.9155-5.8603zm-5.9155 5.8603m.68063-11.052-5.7153 5.6606-.03003.03-.17016.16971 5.0547 5.0017 5.9155-5.8603zm-5.2349-5.1914-5.9255 5.8603 5.0547 5.0017 5.9155-5.8603zm-5.9255 5.8603m.68063-11.052-5.7153 5.6606-.04004.0399-.16015.15974 5.0547 5.0017 5.9155-5.8603zm19.038 43.049c-1.6816-1.6672-3.3631-3.3345-5.0447-5.0017l-5.9255 5.8603.04004.0399c.41038.0399.83077.0699 1.2412.0899.42039.02.84078.03 1.2612.0399 1.2311 0 2.4623 0 3.7034.01h3.6834zm-5.2349-5.1914c-1.6315-1.6173-3.273-3.2346-4.9046-4.852l-.08007-.0799-.07006-.0699-2.5123 2.4859-.12011.1198-.09008.0899c-1.061 1.0583-2.132 2.1065-3.193 3.1648l5.0547 5.0017zm-5.2449-5.1914c-1.6015-1.5874-3.203-3.1748-4.8145-4.7621l-.08008-.0899-.09008-.0799-.06005-.0699-5.9155 5.8603 5.0447 5.0117zm-5.2349-5.1914c-1.6816-1.6672-3.3631-3.3345-5.0547-5.0017l-2.6124 2.5957c-1.101 1.0882-2.202 2.1764-3.3031 3.2646l5.0547 5.0117 1.8217-1.807zm1.051-11.052-5.9155 5.8703 5.0547 5.0017 5.9155-5.8603zm-5.9155 5.8703m.68063-11.062-5.7153 5.6706-.04004.0299-.16015.16972 5.0447 5.0017 5.9155-5.8603zm-6.1057 5.6806 5.9155-5.8603-5.0547-5.0017-5.9155 5.8603zm14.664 26.995c-1.6916-1.6672-3.3731-3.3345-5.0547-5.0017l-3.0729 3.045c1.2912.48919 2.6124.89852 3.9537 1.228 1.3813.32946 2.7726.57905 4.1739.7288zm-5.2349-5.1914c-1.6415-1.6173-3.273-3.2346-4.9046-4.852l-.08007-.0899-.07006-.0599-4.6643 4.6124c.99092.69884 2.0319 1.3378 3.1029 1.9168 1.111.59901 2.2721 1.1281 3.4632 1.5974zm-5.2449-5.1914c-1.6015-1.5874-3.213-3.1748-4.8145-4.7721l-.08008-.0799-.09008-.0799-.07007-.0699-4.7844 4.7522c.71066.90849 1.4914 1.7671 2.3422 2.5757.87081.82863 1.8117 1.6073 2.8126 2.3262zm-5.2349-5.1914c-1.5514-1.5275-3.1029-3.0649-4.6443-4.6024l-.09008-.0799-.08007-.0899-.09008-.0799-.08007-.0799-.07007-.0699-3.0929 3.0649c.34032 1.198.80074 2.3661 1.3613 3.4643.57053 1.1281 1.2512 2.1864 2.0119 3.1947zm.18017-.1797 5.9255-5.8603-5.0547-5.0117-5.9155 5.8603zm-2.8126-26.985.5405.53911 4.0037 3.9634 5.9155-5.8603-5.0447-5.0017-4.2339 4.1931-.61057 1.1182zm11.331-12.589-3.3731-3.3545c-.56052 1.4276-1.1511 2.7954-1.7616 4.1232-.63059 1.3478-1.2812 2.6656-1.9418 3.9435l1.1611 1.1481zm.37034 0m-7.7072 16.912c-1.3713-1.3578-2.7526-2.7155-4.1238-4.0832-.71066 1.3278-1.4013 2.6356-2.0419 3.9435-.6506 1.3278-1.2512 2.6556-1.7817 3.9934l2.3922 2.3761 5.9255-5.8603-.19018-.1797zm-2.3622-7.3079 3.5933-3.5641-1.101-1.0882c-.82076 1.5974-1.6615 3.1448-2.4923 4.6523zm82.236 1.9368-5.8354 5.7904 5.0547 5.0017 1.3813-1.3677c-.09008-1.5874-.19018-3.1847-.29027-4.7921-.1001-1.5375-.20019-3.0749-.31029-4.6324zm.62058 9.7739-1.2111 1.208 1.3513 1.3478zm.17016 2.9451-1.5715-1.5574-2.9628 2.9352-2.9527 2.9252 5.0447 5.0117 2.7626-2.7455c-.04004-1.0882-.10009-2.1764-.15014-3.2746-.06006-1.0982-.1101-2.1964-.17016-3.2946zm.34032 6.9286-2.5924 2.5658 2.8026 2.7754c-.03003-.87855-.06006-1.7571-.10009-2.6456-.03003-.89852-.07006-1.797-.1101-2.6956zm.2202 5.7305-3.0028-2.9751-2.9728 2.9451-2.9427 2.9152 5.0547 5.0017 3.7835-3.7438c.10009-1.5874.09008-3.005.09008-4.0433zm-.1101 4.5425-3.5633 3.5342 2.4923 2.4759c.33031-1.0283.56052-2.0766.74069-3.1248.16015-.98837.26024-1.9568.33031-2.8852zm-6.6162 12.979-3.243-3.2147-4.1839 4.1531 2.7826-.01c.95088 0 1.8217-.0899 2.6224-.26955.73068-.15974 1.4013-.37938 2.0219-.65891zm-11.25.94843-3.3331-3.3045-3.3631 3.3245zm-12.161.0499-2.5123-2.4959-2.5424 2.5158zm-12.161.0499-1.7016-1.6872-1.7116 1.6972zm-12.181.02-.8608-.8486-.8608.8486zm-36.334-17.99 2.9828-2.9551-3.6234-3.5841c-.02002.55908-.02002 1.1281 0 1.7072.02002.67888.06006 1.3677.14013 2.0766.05005.50916.12011 1.0083.2202 1.4975.08008.42929.18017.8486.28026 1.2579zm-.62058-6.8986 3.7935 3.7638 5.9155-5.8603-5.0547-5.0117-4.3741 4.3428c-.07006.44926-.13012.9085-.18017 1.3777-.04004.45925-.08007.91849-.10009 1.3877zm.35032-3.2047 4.1238-4.0833-2.3121-2.2962c-.42039 1.0682-.78072 2.1464-1.091 3.2446-.30028 1.0283-.5405 2.0666-.72067 3.1348zm86.61-33.535-.98091.9684 3.1729 3.1448-.16015-2.3361-.17016-2.5059h-.01001zm-7.2768 6.8387c1.9718-1.9568 3.9437-3.9235 5.9155-5.8703l-.3203-.31947c-1.5114.57904-2.9728 1.1281-4.4441 1.6373-1.4213.49917-2.8526.9684-4.324 1.3977l1.9918 1.9767zm6.1057-6.05.55051-.54909-.20019.0799-.59055.22962zm3.3932 3.7238-3.3932-3.3545-5.9155 5.8603 5.0547 5.0017 4.4641-4.4227zm.24022 3.4343-4.304 4.263 4.9346 4.8919c-.1101-1.5275-.2102-3.0649-.3203-4.5924zm-17.977-2.9551-2.9127 2.8852 5.0547 5.0017 5.9155-5.8603-1.2412-1.228-2.0419-2.0167c-.76071.21964-1.5314.42929-2.3121.62896-.80074.20965-1.6215.39934-2.4623.58903zm-2.9928 2.5957c.84078-.83862 1.6716-1.6672 2.5123-2.4959-.67062.14975-1.3513.27954-2.0419.40933-.78073.14975-1.5715.27953-2.3822.40932l1.8017 1.7771.01001-.01.05005-.0399zm-9.2786-.81865-1.9818 1.9668 5.0447 5.0017 5.9155-5.8603-1.9318-1.9168c-1.071.15973-2.192.30949-3.3531.43927-1.1811.13977-2.4022.25957-3.6934.36939zm-2.172 1.7771c.59055-.57904 1.1811-1.1681 1.7616-1.7471-.51048.0399-1.031.0799-1.5715.10982-.57053.0399-1.1411.0799-1.7416.10982zm-8.7982-1.2879-2.3622 2.3361 5.0547 5.0017 5.9155-5.8603-1.7116-1.6972c-1.061.0499-2.172.0998-3.3231.13976-1.1411.03-2.3322.0599-3.5733.0799zm-4.8045-.0899 2.2621 2.2363 2.162-2.1365-1.3112.01c-.60056-.01-1.1911-.02-1.7716-.0399-.46043-.02-.90084-.0399-1.3412-.0699zm-2.7626-.25957c-.76071-.0998-1.5014-.20965-2.2221-.32946l-3.9136 3.8736 5.0547 5.0017 5.9155-5.8603-2.4823-2.4559c-.80074-.0599-1.5915-.13977-2.3522-.22962zm-13.212-3.4743c.45042.43927.89083.88853 1.3312 1.3278l.04004.0299.04004.0399.03003.0299.04004.0399.03003.0399.04004.0299.03003.0399.04004.0299.03003.0299.77072-.75874c-.47044-.15974-.93086-.32946-1.4013-.49918-.3303-.1198-.67062-.24958-1.0209-.37937zm-9.689 2.4959c1.5214-1.5075 3.0328-3.015 4.5642-4.5225l-.2202-.0799c-2.0519-.83861-4.1939-1.6972-6.496-2.5658-.20019.62896-.41038 1.2579-.63059 1.8769-.2202.62896-.45042 1.2479-.68063 1.8669l1.2412 1.228z"  fill-rule="evenodd"/></g></svg>
