<svg id="svg850" version="1.1" viewBox="0 0 211.67 183.09" xmlns="http://www.w3.org/2000/svg"><g id="layer1" transform="translate(-39.509 -68.084)"><path id="path1362" d="m145.57 120.57-.0175.0301h-.22206c.0178.012.0367.0231.0541.0355.004.001.008.003.0113.004.0348.0142.14091.0508.10426.0425-.0394-.009-.0798-.021-.11272-.0445-.001-8e-4-.002-.001-.003-.002-.0347-.0129-.0705-.0231-.1054-.0355h-1.604c-.0359.0379-.0742.0703-.11357.0978-.3011.52599-.60691 1.0473-.90768 1.5736h-.505c-.0164.0284-.0331.0611-.0502.0876h.55543c.31111.54446.62786 1.0834.93898 1.6223-.31111.54446-.62786 1.0836-.93898 1.628h-1.883l-.58897-1.021c-.024.0181-.048.0365-.0716.055.19502.3367.39039.6739.5839 1.0091l-.005.005c-.3111.54446-.6225 1.0779-.93361 1.6223h-.98884c.002.0355.001.057.003.0876h.98603c.30571.5281.61133 1.0616.917 1.5897l.022.0327c-.31656.53901-.62785 1.0833-.93897 1.6277h-1.8831l-.25052-.43425c-.0145.0335-.0292.0669-.0445.10004.0729.12586.14601.2522.21841.37762-.19984.3462-.40156.69432-.60307 1.0421.0374.001.0683.004.10062.006l.5791-1.0044h1.8833c.3111.54446.62756 1.0836.93869 1.628-.31655.53899-.62756 1.0834-.93869 1.6223h-1.8833l-.90967-1.5721c-.0266.0127-.0539.0268-.0795.0386.3027.52423.61033 1.0533.91276 1.5773-.3111.54446-.62785 1.0833-.93897 1.6277h-1.185c-.003.006-.006.0131-.01.0194-.0111.0226-.0225.0451-.0338.0676h1.2284c.3111.54446.62784 1.0834.93897 1.6223-.31111.54446-.62786 1.0836-.93897 1.628h-1.883l-.7792-1.3512c-.0273.0147-.0551.0272-.0834.0363.26167.4524.52553.90688.78596 1.358-.3111.53901-.62785 1.0834-.93897 1.6223h-.62758l.005.0927h.62223l.006.005c.31111.539.62222 1.078.93333 1.617-.25653.441-.5077.88189-.76425 1.3174l.06.0817.78061-1.3558h1.883c.3111.54445.62785 1.0836.93898 1.628-.31111.539-.62785 1.0834-.93898 1.6223h-1.8284c.0218.0327.0382.0598.06.0924h1.7684c.31109.539.62785 1.0836.93897 1.6226l-.3438.59883.0654.0598.35479-.61519h1.883c.3111.54446.62785 1.0836.93896 1.628l-.38211.66421.0764.0434.38213-.66421h1.883c.31111.53901.62786 1.0836.93898 1.6226l-.28378.49541.0654.0651.29477-.51176h1.883c.19106.32125.37662.6479.5622.96913.0382.005.0711.006.10934.006l-.59488-1.0235.94405-1.6226h1.8777c.3111.539.62775 1.0836.94432 1.6226l-.75862 1.3064h.10371l.73129-1.2577h1.8777c.28379.48458.56788.97465.84625 1.4591l.1037-.005-.87359-1.5026.94432-1.6226h1.8777c.31656.539.62775 1.0836.94432 1.6226-.3111.53894-.62221 1.0724-.93334 1.6114l.0984.011.91136-1.5733h1.8777c.22926.39743.46398.79489.69324 1.1923l.0983-.011-.70958-1.2304.93869-1.6226h1.8833c.31111.539.62211 1.0836.9387 1.6226l-.73129 1.2574.1037.006.70424-1.214h1.883c.29475.51179.58957 1.0179.88431 1.5297l.0981-.011-.90601-1.5679.93898-1.6223h1.883c.31108.539.62238 1.0834.93897 1.6223-.26749.46822-.54037.93659-.81328 1.4048h.1037l.78596-1.3558h1.883c.21287.37022.43122.74593.64956 1.1216.0328-.005.0656-.005.0984-.005l-.67154-1.1653.93897-1.6223h1.883c.31111.539.62785 1.0834.93897 1.6223l-.68253 1.1816.0984.0107.66054-1.1433h1.883c.26198.45191.52395.90924.78596 1.3611l.0927-.0271-.8023-1.3828.93897-1.6226h1.883c.3111.539.62756 1.0836.93869 1.6226l-.64392 1.1213.1037-.005.61687-1.0672h1.883l.0327.0547c.0273-.0109.0491-.0327.0764-.049l-.0327-.0544c.31655-.539.62785-1.0837.93897-1.6226h.44751c.0218-.0327.0382-.0599.06-.0871h-.50753c-.31111-.54445-.62238-1.0833-.93897-1.6277.31656-.53899.62785-1.0834.93897-1.6223h1.5336v-.0935h-1.5336c-.31111-.539-.62785-1.0834-.93897-1.6223.31656-.54445.62785-1.0833.93897-1.6277h1.6702l-.0166-.0874h-1.6536c-.31111-.539-.62239-1.0834-.93898-1.6223.31656-.54445.62786-1.0833.93898-1.6277h1.5392l.0107-.0871h-1.5499c-.31111-.54445-.62786-1.0836-.93898-1.628.31656-.539.62786-1.0834.93898-1.6223h1.5773v-.0871h-1.5773c-.31111-.54446-.62239-1.0836-.93898-1.628.31656-.539.62786-1.0834.93898-1.6223h1.3862v-.0924h-1.3862c-.31111-.539-.62239-1.0834-.93898-1.6223.31656-.539.62786-1.0836.93898-1.6226h.906v-.0924h-.906c-.31111-.539-.62239-1.0834-.93898-1.6223.31656-.54446.62786-1.0836.93898-1.628h.62222l-.006-.0871h-.61659c-.3111-.54445-.62785-1.0833-.93897-1.6277.31111-.53899.62785-1.0782.93897-1.6226h.38185l-.005-.0871h-.37647c-.30941-.54147-.61913-1.0773-.93391-1.6187-.0365.0112-.0725.0246-.10934.0347h.0285l.85698 1.4756.082.15245-.93897 1.6223h-1.883l-.93897-1.6223.61575-1.0678c-.0232.008-.036.012-.0642.0223-.0211.008-.0426.0146-.0637.0222-.18871.32594-.37757.65173-.56474.97927h-.0736c-.01.0302-.02.0594-.0302.0874h.10427c.3111.54446.62785 1.0834.93897 1.6223-.31111.54445-.62785 1.0836-.93897 1.628h-1.883l-.93418-1.6196c-.025.019-.0499.0359-.075.051.30923.53568.6236 1.0766.93277 1.6122-.31111.54445-.62757 1.0833-.9387 1.6277h-1.8833l-.93869-1.6277.93869-1.6223h1.2244c-.0462-.0262-.0922-.0579-.1378-.093h-1.0874l-.74847-1.2932c-.0134.037-.0272.071-.0411.10398.23911.41101.47708.82327.71353 1.2329-.3111.54446-.62756 1.0836-.93869 1.628h-1.8833l-.61489-1.0663c-.0506-.0262-.10176-.0557-.15387-.0871.23103.39915.46288.79922.69239 1.1968-.31656.54446-.62757 1.0836-.9387 1.628h-1.8833l-.9387-1.628.9387-1.6223h1.5353c-.0388-.0315-.0714-.0613-.10877-.0927h-1.4268l-.28603-.494c-.0369.01-.0572.0146-.0882.0225.0996.17132.19761.34399.29815.51514-.31656.54445-.62756 1.0836-.93869 1.628h-1.8834l-.9387-1.628.0848-.14683c-.0357.00053-.0674.004-.10454.004-.019.033-.0382.0663-.0572.0992h-1.883l-.0135-.0234c-.0338 1e-5-.0676 0-.10145 0 .0131.0223.0258.0448.0389.0671-.31656.54446-.62785 1.0836-.93897 1.628h-1.883l-.67408-1.1689c-.0325.006-.0654.0134-.0975.018.23155.39839.46211.79771.69522 1.1946-.31656.54445-.62776 1.0836-.94433 1.628h-1.8777l-.94432-1.628.94432-1.6223h.50275c-.0339-.0298-.0667-.0606-.0981-.093h-.40495l-.44525-.76509c-.0357-.006-.0677-.01-.11215-.0175.15991.27529.31977.55194.48104.82653-.31653.54445-.62775 1.0836-.94433 1.628h-1.8777l-.94405-1.628.81667-1.4037c-.0296-.0117-.0554-.0221-.0826-.0332-.27067.4639-.53893.9302-.81074 1.393h-1.8777l-.94433-1.6223.27814-.48131c-.027-.0107-.0511-.0272-.0724-.0493-.0939.16256-.18749.3235-.28209.48696h-1.8777l-.81554-1.4056c-.0192-.006-.0102-.003-.0332-.0105-.0542-.0932-.10292-.19035-.15443-.28546zm-1.9005.11779h1.883c.31111.54446.62786 1.0833.93898 1.6277-.31111.539-.62785 1.0836-.93898 1.6226h-1.883l-.93898-1.6226zm31.679 1.2219c-.0126 8e-4-.024.001-.0358.002.0216.10531.0665.18047.15188.19951zm.12315.21333c-.0337.002-.065.004-.0986.005.0359.0624.072.12499.10766.18683-.0923.15984-.18551.32055-.27843.48105.0117.0428.0219.0844.0304.12427l.32521-.56164h.47766c-.0229-.0283-.0459-.0576-.069-.0874h-.40917zm-28.899.23615h1.8777c.3111.54445.62775 1.0834.94432 1.6223-.31656.54445-.6332 1.0836-.94432 1.628h-1.8777l-.94405-1.628zm5.6312.10906c-.0106.0182-.0212.0365-.0318.0547.0332.002.0647.006.0947.0124l.0149-.0256c-.013-.008-.0234-.0132-.0366-.0217-.0136-.007-.0274-.0132-.0411-.0197zm8.2386.39846c-.001.006-.003.0133-.004.0197.002-.006.003-.0123.005-.0183zm-5.8878.0211c.0131.0226.0263.0451.0394.0676.0202.008.0438.0171.0657.0256l.0172.001c.003-.003.0209-.0144.0245-.0177l-.0372-.0637c-.0366-.004-.0731-.008-.10963-.0133zm.10511.0933-.0538-.005c.008.0136.016.0272.024.0409.045.0227.0879.033.13188.0516l-.022-.0378c-.0646-.001-.0946-.0131-.0662-.0442-.005-.002-.009-.004-.0138-.005zm20.484.0905c-.05.01-.0716.0148-.1161.0239-.0839.14483-.16738.28905-.25109.43371.0339.006.0659.009.0958.0112zm-14.079.95869h1.883c.3111.53901.62785 1.0834.93897 1.6223-.31656.54446-.62785 1.0836-.93897 1.628h-1.883l-.93897-1.628zm-17.396.00022h1.8833c.3111.539.62756 1.0834.93869 1.6223-.3111.54446-.62756 1.0836-.93869 1.628h-1.8833l-.9387-1.628zm5.8024 0h1.8777c.31656.539.62746 1.0834.94405 1.6223-.31656.54446-.62746 1.0836-.94405 1.628h-1.8777l-.94432-1.628zm28.984 0h1.883l.93897 1.6223-.93897 1.6277h-1.883l-.93897-1.6277zm-38.325.47624c-.001.00015-.005.003-.0135.0107-.0181.016-.0342.0339-.0502.0519.001.003.004.006.005.009.0336-.0409.0616-.0723.0583-.0719zm18.037 1.1895h1.8833c.30565.54446.6221 1.0836.93869 1.628-.31656.539-.62756 1.0834-.93869 1.6223h-1.8833l-.9387-1.6223zm5.7968 0h1.883c.30021.5227.60044 1.0454.90065 1.5626l.0383.0654c-.31111.53899-.62785 1.0834-.93897 1.6223h-1.883l-.93897-1.6223zm5.7967 0h1.883c.31656.54446.62785 1.0836.93897 1.628-.3111.539-.62785 1.0834-.93897 1.6223h-1.883l-.93897-1.6223zm5.797 0h1.8833c.3111.54446.62756 1.0836.93869 1.628-.3111.539-.62756 1.0834-.93869 1.6223h-1.8833l-.9387-1.6223zm-34.787.00022h1.883c.31111.54446.62786 1.0833.93897 1.6277-.3111.539-.62785 1.0836-.93897 1.6226h-1.883l-.93898-1.6226zm5.8024 0h1.8777c.30562.53355.61122 1.0616.92235 1.5897l.022.038c-.31656.539-.63323 1.0834-.94432 1.6223h-1.8777l-.94432-1.6223zm5.7968 0h1.8777c.31656.54446.62775 1.0833.94432 1.6277-.31656.539-.62775 1.0834-.94432 1.6223h-1.8777l-.94432-1.6223zm-14.124 1.5838c-.006.0306-.0107.0591-.0155.0876h.50949c-.00014-.0296-.001-.0577-.001-.0876zm22.82.0874h1.883c.31111.53899.62238 1.0834.93897 1.6223-.31656.54446-.62785 1.0836-.93897 1.628h-1.883l-.93869-1.628zm5.7968 0h1.883c.3111.54445.62785 1.0834.93897 1.6223-.31656.54446-.62785 1.0836-.93897 1.628h-1.883l-.9387-1.628zm5.7968 0h1.8833c.31111.54445.62757 1.0834.9387 1.6223-.31111.54446-.62756 1.0836-.9387 1.628h-1.8833l-.9387-1.628zm5.797 0h1.883l.85697 1.4756.082.14683-.93897 1.628h-1.883l-.93897-1.628zm-34.787.00022h1.883c.3111.53899.62785 1.0834.93897 1.6223-.31111.54446-.62785 1.0833-.93897 1.6277h-1.883l-.93897-1.6277zm5.8021 0h1.8777c.31657.53899.62776 1.0834.94433 1.6223-.31656.54446-.62775 1.0833-.94433 1.6277h-1.8777l-.94433-1.6277zm5.7967 0h1.8777c.31111.54445.62775 1.0834.94432 1.6223-.31655.54446-.62775 1.0833-.94432 1.6277h-1.8777l-.94432-1.6277zm2.8992 1.6711h1.8833v.006c.3111.539.62756 1.0777.93869 1.6167-.31655.53901-.62756 1.0836-.93869 1.6226h-1.8833l-.93869-1.6226zm5.797 0h1.883c.3111.539.62238 1.0834.93897 1.6223-.31111.54445-.62785 1.0836-.93897 1.6226h-1.883l-.9387-1.6226zm5.7968 0h1.8833c.31111.539.62757 1.0834.9387 1.6223-.31111.539-.62756 1.0836-.9387 1.6226h-1.8833l-.9387-1.6226zm5.7967 0h1.8833c.3111.539.62756 1.0834.9387 1.6223-.31111.539-.62757 1.0836-.9387 1.6226h-1.8833l-.93869-1.6226zm-34.787.00022h1.883c.3111.539.62785 1.0834.93897 1.6223-.3111.539-.62785 1.0834-.93897 1.6223h-1.883l-.93897-1.6223zm5.8021 0h1.8777l.005.005c.3111.539.62238 1.078.93897 1.617-.31656.539-.63321 1.0834-.94432 1.6223h-1.8777l-.94432-1.6223zm5.7967 0h1.8777c.31656.539.62777 1.0834.94433 1.6223-.31653.539-.62775 1.0834-.94433 1.6223h-1.8777l-.94432-1.6223zm-8.7005 1.6658h1.8833c.31111.54445.62756 1.0836.9387 1.628-.31111.539-.62757 1.0779-.9387 1.6223h-1.8833l-.93869-1.6223zm5.8021 0h1.8777c.31656.54445.62775 1.0836.94432 1.628-.31656.539-.62775 1.0779-.94432 1.6223h-1.8777l-.94432-1.6223zm5.797 0h1.8777c.31656.54445.62775 1.0836.94433 1.628-.31656.539-.62775 1.0779-.94433 1.6223h-1.8777l-.94433-1.6223zm5.7979 0h1.883c.3111.54445.62238 1.0833.93897 1.6277-.31656.539-.62786 1.0782-.93897 1.6226h-1.883l-.93897-1.6226zm5.7965 0h1.8833c.31111.54445.62211 1.0833.9387 1.6277-.31656.539-.62756 1.0782-.9387 1.6226h-1.8833l-.9387-1.6226zm5.797 0h1.8833c.3111.54445.62759 1.0833.93868 1.6277-.31107.539-.62756 1.0782-.93868 1.6226h-1.8833l-.93869-1.6226zm5.797 0h1.883l.93869 1.6277-.93869 1.6226h-1.883l-.93897-1.6226zm-41.226 1.063c-.007-.002-.0107.0335-.0149.0778l.0273-.0473c-.001-.004-.001-.007-.003-.011-.004-.0126-.007-.0187-.01-.0194zm-.12427.26771c-.0637.0389-.1193.0741-.16627.10568-.0234.0405-.0471.0813-.0704.12174.00053.001.001.003.002.004.0123-.0141.0251-.0286.0395-.0443.0265-.0289.0106.0264-.008.0868.002.002.004.004.006.005.0195-.0116.0381-.025.0572-.0375zm-.19698.27955c-.003.002-.007.004-.0102.006-.01.0321-.0197.0633-.0242.0845.00022.00053.001.001.001.001.0272-.0118.0528-.026.0775-.0417l-.0189-.0327.003-.005c-.01-.002-.0194-.006-.0282-.0127zm-.26208-.0317c-.003.005-.005.009-.008.0135-.008.027-.0203.0525-.0293.0792h.073c.003-.0208.0262-.0519.0699-.0927zm9.9269.0927h1.8777c.31108.54446.62785 1.0837.93897 1.6226-.3111.54445-.62788 1.0833-.93897 1.6277h-1.8777l-.94432-1.6277zm5.7968 0h1.8777c.31656.539.62775 1.0837.94432 1.6226-.31656.54445-.62775 1.0833-.94432 1.6277h-1.8777l-.94433-1.6277zm5.7982 0h1.883c.30565.539.62241 1.0834.93897 1.6223-.31653.54446-.62785 1.0836-.93897 1.628h-1.883l-.9387-1.628zm5.7967 0h1.883c.3002.51724.60044 1.04.90065 1.5626l.0383.0597c-.31111.54445-.62785 1.0836-.93897 1.628h-1.883l-.93897-1.628zm5.7968 0h1.883l.005.005c.3111.539.62249 1.078.93361 1.617-.3111.54445-.62788 1.0833-.93897 1.6277h-1.883l-.93897-1.6277zm5.7968 0h1.8833c.3111.539.62756 1.0834.9387 1.6223-.31111.54446-.62757 1.0833-.9387 1.6277h-1.8833l-.9387-1.6277zm-34.787.00022h1.883c.31655.53901.62785 1.0834.93897 1.6223-.31111.54446-.62239 1.0833-.93897 1.6277h-1.883l-.93897-1.6277zm31.89 1.6655h1.8833c.30565.54446.62756 1.0836.93869 1.628-.3111.539-.62756 1.0834-.93869 1.6223h-1.8833l-.93869-1.6223zm5.7968 0h1.8833l.9387 1.628-.9387 1.6223h-1.8833l-.9387-1.6223zm-40.584.00022h1.883c.3111.54446.62785 1.0836.93897 1.628-.31111.539-.62785 1.0834-.93897 1.6223h-1.883l-.9387-1.6223zm5.7968 0h1.883c.3111.54446.62785 1.089.93896 1.628-.3111.539-.62784 1.0834-.93896 1.6223h-1.883l-.9387-1.6223zm5.8024 0h1.8777c.31656.54446.62775 1.0836.94433 1.628-.31656.539-.62776 1.0834-.94433 1.6223h-1.8777l-.94432-1.6223zm5.7968 0h1.8777c.3111.54446.62775 1.0836.94432 1.628-.31655.539-.62775 1.0834-.94432 1.6223h-1.8777l-.94432-1.6223zm5.7982 0h1.883c.31111.54446.62785 1.0833.93897 1.6277-.31656.539-.62785 1.0834-.93897 1.6223h-1.883l-.9387-1.6223zm5.7968 0h1.883c.3111.54446.62785 1.0833.93897 1.6277-.31656.539-.62785 1.0834-.93897 1.6223h-1.883l-.93897-1.6223zm8.6951 1.6711h1.8833c.31111.54445.62757 1.0837.9387 1.6226-.3111.54445-.62756 1.0833-.9387 1.6277h-1.8833l-.9387-1.6277zm-34.787.00022h1.8833c.3111.54446.62756 1.0834.9387 1.6223-.3111.54445-.62757 1.0836-.9387 1.628h-1.8833l-.9387-1.628zm5.8024 0h1.8777c.31108.54446.62775 1.0834.94432 1.6223-.31656.54445-.63323 1.0836-.94432 1.628h-1.8777l-.94432-1.628zm5.7968 0h1.8777c.31656.54446.62775 1.0834.94432 1.6223-.31656.54445-.62775 1.0836-.94432 1.628h-1.8777l-.94433-1.628zm5.7982 0h1.883c.3111.54446.62241 1.0834.93897 1.6223-.31653.54445-.62786 1.0833-.93897 1.6277h-1.883l-.9387-1.6277zm5.7968 0h1.883c.31111.54446.62239 1.0834.93897 1.6223-.31655.54445-.62785 1.0833-.93897 1.6277h-1.883l-.93898-1.6277zm5.7967 0h1.883c.31108.54446.62785 1.0834.93897 1.6223-.3111.54445-.62788 1.0833-.93897 1.6277h-1.883l-.93869-1.6277zm-8.6954 1.671h1.8833c.31111.539.62211 1.0834.9387 1.6223-.31656.539-.62756 1.0834-.9387 1.6223h-1.8833l-.9387-1.6223zm11.594 0h1.883c.31111.539.62786 1.0779.93898 1.6223-.31111.539-.62786 1.0834-.93898 1.6223h-1.883l-.93897-1.6223zm5.7967 0h1.883l.93897 1.6223-.93897 1.6223h-1.883l-.93869-1.6223zm-40.583.00022h1.883c.3111.539.62785 1.0834.93897 1.6223l-.006.005c-.3111.53901-.62221 1.078-.93334 1.617h-1.8831l-.93896-1.6223zm5.7967 0h1.8831c.3111.539.62785 1.0834.93897 1.6223-.31111.539-.62785 1.0834-.93897 1.6223h-1.8831l-.93896-1.6223zm5.8006 0h1.8777c.31656.539.62775 1.0834.94432 1.6223-.31656.54445-.62775 1.0837-.94432 1.6226h-1.8777l-.94432-1.6226zm5.7985 0h1.8777c.31656.539.6332 1.0779.94432 1.6223-.31656.539-.62775 1.0834-.94432 1.6223h-1.8777l-.94433-1.6223zm11.593 0h1.883c.31111.539.62239 1.0834.93897 1.6223-.31656.539-.62785 1.0834-.93897 1.6223h-1.883l-.93869-1.6223zm8.6954 1.6655h1.883c.31111.54445.62757 1.0836.9387 1.628-.31111.53901-.62756 1.0834-.9387 1.6223h-1.883l-.93897-1.6223zm-40.583.00022h1.883c.3111.54445.62756 1.0836.9387 1.628-.3111.53901-.62757 1.0834-.9387 1.6223h-1.883l-.93897-1.6223zm5.7968 0h1.883c.31656.54445.62785 1.0836.93897 1.628-.3111.53901-.62239 1.0834-.93897 1.6223h-1.883l-.93897-1.6223zm5.8024 0h1.8777c.31111.54445.62756 1.0836.9387 1.628-.31111.53901-.62211 1.0834-.9387 1.6223h-1.8777l-.94432-1.6223zm5.7968 0h1.8777c.31653.54445.62775 1.0836.94432 1.628-.31656.53901-.62776 1.0834-.94432 1.6223h-1.8777l-.94432-1.6223zm5.7968 0h1.883c.30565.54445.62213 1.0833.93868 1.6277-.31653.539-.62757 1.0834-.93868 1.6223h-1.883l-.93898-1.6223zm5.7965 0h1.8833c.3002.5227.60017 1.0451.90036 1.5623l.0383.0654c-.31111.53901-.62756 1.0834-.9387 1.6223h-1.8833l-.9387-1.6223zm5.7967 0h1.883l.006.0107c.31111.53901.62221 1.078.93335 1.617-.31111.53899-.62757 1.0834-.9387 1.6223h-1.8833l-.93869-1.6223zm8.6951 1.6711h1.8833l.9387 1.6226-.9387 1.6277h-1.8833l-.93869-1.6277zm-40.583.00022h1.883c.3111.539.62785 1.0834.93897 1.6223 0 .005-.85711 1.4864-.93897 1.628h-1.883l-.93897-1.628zm5.7967 0h1.8831c.3111.54445.62785 1.0834.93897 1.6223-.31111.54446-.62785 1.0836-.93897 1.628h-1.8831l-.93896-1.628zm5.8024 0h1.8777c.31656.539.62775 1.0834.94433 1.6223-.31657.54446-.62776 1.0836-.94433 1.628h-1.8777l-.94432-1.628zm5.7968 0h1.8777l.005.005c.31108.539.62238 1.078.93897 1.617-.31656.54445-.62775 1.0836-.94432 1.628h-1.8777l-.94432-1.628zm5.7965 0h1.8833c.31111.539.62211 1.0834.9387 1.6223-.31656.54446-.62756 1.0833-.9387 1.6277h-1.8833l-.9387-1.6277zm5.7967 0h1.8833c.31111.54445.62756 1.0834.9387 1.6223-.31656.54446-.62757 1.0833-.9387 1.6277h-1.8833l-.93869-1.6277zm5.797 0h1.883l.005.005c.31111.539.62222 1.078.93335 1.617-.31111.54445-.62756 1.0833-.9387 1.6277h-1.883l-.93896-1.6277zm-14.492 1.6658h1.883c.31111.54446.62214 1.0836.93868 1.628-.31653.53901-.62756 1.0834-.93868 1.6223h-1.883l-.93897-1.6223zm5.7965 0h1.8833c.3111.54446.62211 1.089.93869 1.628-.3111.53901-.62756 1.0834-.93869 1.6223h-1.8833l-.93869-1.6223zm5.797 0h1.883c.3111.54446.62756 1.0836.93869 1.628-.3111.53901-.62756 1.0834-.93869 1.6223h-1.883l-.93897-1.6223zm5.7967 0h1.883c.31111.54446.62757 1.0836.9387 1.628-.31111.53901-.62756 1.0834-.9387 1.6223h-1.883l-.93897-1.6223zm-34.785.00022h1.883c.3111.54446.62784 1.0833.93897 1.6277-.31111.539-.62786 1.0836-.93897 1.6226h-1.883l-.9387-1.6226zm5.8024 0h1.8777c.3111.54446.62775 1.0833.94432 1.6277-.31656.539-.6332 1.0836-.94432 1.6226h-1.8777l-.94431-1.6226zm5.7968 0h1.8777c.31653.54446.62775 1.0833.94432 1.6277-.31656.539-.62776 1.0836-.94432 1.6226h-1.8777l-.94433-1.6226zm8.6948 1.6711h1.883c.30571.52809.61163 1.0616.91727 1.5897l.0217.0327c-.31656.54446-.62785 1.0836-.93897 1.628h-1.883l-.9387-1.628zm5.7968 0h1.8833c.31111.54445.62757 1.0834.9387 1.6223-.31656.54445-.62756 1.0836-.9387 1.628h-1.8833l-.9387-1.628zm5.797 0h1.883c.3002.53354.61133 1.0616.917 1.5897l.0217.0327c-.3111.54446-.62756 1.0836-.93869 1.628h-1.883l-.93897-1.628zm5.7965 0h1.883l.66054 1.1379.27843.48442-.93897 1.628h-1.883l-.93897-1.628zm-40.583.00022h1.883c.3057.52809.61133 1.0616.91699 1.5897l.022.0327-.006.011c-.3111.53901-.62221 1.0777-.93335 1.6167h-1.883l-.93897-1.6277zm5.7967 0h1.883c.31111.54445.62785 1.0834.93897 1.6223-.3111.54446-.62785 1.0833-.93897 1.6277h-1.883l-.93897-1.6277zm5.8018 0h1.8777c.31656.54445.62775 1.0834.94433 1.6223-.31657.54446-.62776 1.0833-.94433 1.6277h-1.8777l-.94405-1.6277zm5.797 0h1.8777c.3111.54445.63291 1.0834.94405 1.6223-.31656.54446-.62747 1.0836-.94405 1.628h-1.8777l-.94433-1.628zm2.8981 1.6711h1.883c.30565.539.62211 1.0834.9387 1.6223-.31656.54442-.62757 1.0836-.9387 1.628h-1.883l-.93897-1.628zm5.797 0h1.8833c.30019.51725.60016 1.04.90035 1.5626l.0383.0597c-.31111.54442-.62756 1.0836-.93869 1.628h-1.8833l-.9387-1.628zm5.7968 0h1.8833c.31656.539.62756 1.0834.9387 1.6223-.31111.54442-.62756 1.0836-.9387 1.628h-1.8833l-.9387-1.628zm5.7967 0h1.883c.3111.539.62785 1.0834.93897 1.6223-.3111.54442-.62785 1.0836-.93897 1.628h-1.883l-.93897-1.628zm-34.787.00022h1.8833c.31111.53901.62756 1.0834.93869 1.6223-.3111.54445-.6221 1.0836-.93869 1.628h-1.8833l-.93869-1.628zm5.8027 0h1.8777c.31111.53901.62757 1.0834.9387 1.6223-.31111.54445-.62211 1.0836-.9387 1.628h-1.8777l-.94432-1.628zm5.7965 0h1.8777c.31656.53901.62775 1.0834.94433 1.6223-.31656.54445-.62775 1.0836-.94433 1.628h-1.8777l-.94405-1.628zm8.6951 1.6658h1.8833c.31111.54445.62211 1.0836.9387 1.628-.31656.53899-.62756 1.0834-.9387 1.6223h-1.8833l-.9387-1.6223zm5.797 0h1.8833c.3111.54445.62756 1.0833.93869 1.6277-.31656.539-.62756 1.0836-.93869 1.6226h-1.8833l-.93869-1.6226zm5.7968 0h1.883l.005.011c.31107.539.62249 1.078.93361 1.617-.3111.539-.62785 1.0834-.93897 1.6223h-1.883l-.93896-1.6223zm5.7967 0h1.8833l.9387 1.628-.9387 1.6223h-1.8833l-.93869-1.6223zm-34.787.00022h1.8833c.3111.54445.62756 1.0833.93869 1.6277-.3111.539-.62756 1.0834-.93869 1.6223h-1.8833l-.9387-1.6223zm5.8024 0h1.8777c.31655.54445.62775 1.0833.94432 1.6277-.31656.539-.62775 1.0834-.94432 1.6223h-1.8777l-.94404-1.6223zm5.7968 0h1.8777l.006.0107c.3111.539.62211 1.078.9387 1.617-.31657.539-.62776 1.0834-.94433 1.6223h-1.8777l-.94405-1.6223z" fill-rule="evenodd"/></g></svg>
