<svg id="svg5" width="91.225mm" height="63.056mm" version="1.1" viewBox="0 0 91.225 63.056" xmlns="http://www.w3.org/2000/svg"><g id="layer1" transform="translate(64.822 -255.81)"><path id="path1362" d="m-8.7899 318.78c-.5405-.93845-1.081-1.8669-1.6215-2.8054h-3.4532l-1.2912 2.2263-.19018-.01 1.3412-2.3062c-.58054-.98837-1.1511-1.9867-1.7216-2.9751h-3.4532l-1.7216 2.9751 1.3012 2.2563-.18017.02c-.42039-.72879-.85079-1.4576-1.2712-2.1864h-3.4432l-1.6716 2.8852-.18017-.02c.57053-.98837 1.1411-1.9668 1.7116-2.9551-.58054-.98837-1.1511-1.9867-1.7316-2.9751h-3.4432l-1.7316 2.9751 1.6015 2.7554-.19018.01c-.51047-.88853-1.031-1.787-1.5514-2.6756h-3.4432l-1.3412 2.3062h-.19018l1.3913-2.396c-.58054-.98837-1.1611-1.9867-1.7316-2.9751h-3.4432l-1.7316 2.9751 1.091 1.8769c-.07007 0-.13012 0-.20019-.01-.34032-.58903-.68063-1.188-1.031-1.7771h-3.4532l-.5405.93845-.12011-.1198.52048-.9085c-.57053-.98837-1.1511-1.9867-1.7216-2.9751h-3.4532l-.70065 1.218-.14013-.0799.70065-1.218c-.57053-.99835-1.1511-1.9867-1.7216-2.9851h-3.4532l-.6506 1.1281-.12011-.10982.63058-1.0982c-.57053-.98837-1.1511-1.9867-1.7216-2.9751h-3.243c-.04004-.0599-.07007-.10982-.1101-.16972h3.3531c.57053-.98837 1.1511-1.9867 1.7216-2.9751-.57053-.99835-1.1511-1.9867-1.7216-2.9851h-3.4532l-1.4313 2.4859-.1101-.14976c.47044-.79868.93086-1.6073 1.4013-2.416-.57053-.98837-1.1411-1.9767-1.7116-2.9651l-.01001-.01h-1.1411l-.01001-.16972h1.1511c.57053-.98836 1.1511-1.9867 1.7216-2.9751-.57053-.98837-1.1511-1.9867-1.7216-2.9751h-1.2512l.07006-.16972h1.1811c.57053-.98836 1.1511-1.9867 1.7216-2.9751-.55051-.95842-1.111-1.9168-1.6615-2.8752.04004-.1797.07006-.35941.10009-.53911.52048-.9085 1.041-1.807 1.5615-2.7055l-.15014-.26955.10009-.13977.19018.31947h3.4532c.57053-.98837 1.1511-1.9867 1.7216-2.9751-.57053-.98837-1.1511-1.9867-1.7216-2.9751h-.82076l.07006-.16972h.7507c.57053-.98837 1.1511-1.9867 1.7216-2.9751l-.48045-.82863.10009-.16972.52048.91848h3.4532c.57053-.99835 1.1411-1.9767 1.7116-2.9751l.01001-.01c-.57053-.98837-1.1511-1.9867-1.7216-2.9751h-1.6015c.04004-.0599.08007-.10982.12011-.16972h1.4814c.57053-.98837 1.1411-1.9767 1.7116-2.9651l.01001-.01-.85079-1.4776c.02002-.0699.04004-.13977.06006-.21963l.93086 1.6173h3.4532c.57053-.99835 1.1511-1.9867 1.7216-2.9851-.57053-.98837-1.1511-1.9867-1.7216-2.9751h-2.9327l.05005-.16972h2.8827l.79074-1.3677.14013.0899-.79074 1.3677 1.7216 2.9751h3.4532l1.3012-2.2363.16015.0399-1.3212 2.2762 1.7316 2.9851h3.4432c.56052-.9684 1.111-1.9268 1.6716-2.8852l.16015.0399-1.6916 2.9252 1.7316 2.9751h3.4432c.58054-.98837 1.1511-1.9867 1.7316-2.9751l-1.1411-1.9568c.10009.0599.19018.10982.29027.15974l.99092 1.7172h3.4432l.46043-.78869.17016.02-.49046.8486 1.7316 2.9751h3.4432c.58054-.98837 1.1511-1.9867 1.7316-2.9751l-.06006-.0898h.03003c.39036.0699.78072.10982 1.1811.10982h2.2921c.10009 0 .20019 0 .29027-.01l1.7216 2.9651h3.4532c.57053-.98837 1.1411-1.9867 1.7216-2.9751l-.19018-.32945h.18017l.15014.24958h3.4532l.48045-.82863c.08007-.0299.15014-.0599.23021-.0898l-.57053.99835 1.7216 2.9751h3.4532c.57053-.98837 1.1411-1.9867 1.7216-2.9751l-.90084-1.5474.18017-.03.8608 1.4975h3.4532c.5405-.93845 1.081-1.8769 1.6215-2.8054.07006-.02.15014-.0399.2202-.0599l-1.7016 2.9451 1.7216 2.9751h3.4532c.57053-.98837 1.1511-1.9867 1.7216-2.9751-.57053-.98837-1.1511-1.9867-1.7216-2.9851h-3.3431c.14013-.0399.29027-.0898.4304-.13977l2.9127-.02.4304-.74877c.07006 0 .14013-.01.20018-.02l-.49046.8486 1.7216 2.9851h3.4532c.57053-.99835 1.1511-1.9867 1.7216-2.9851l-1.5114-2.6157.13012-.0998 1.5214 2.6356h3.4532l1.7216-2.9751-1.061-1.837.14013-.0898 1.061 1.837h.61056l-.03003.16972h-.58054c-.57053.98837-1.1511 1.9867-1.7216 2.9751.58054.99835 1.1511 1.9867 1.7216 2.9851h.69064l.01001.15974h-.70065c-.57053.99835-1.1511 1.9867-1.7216 2.9751.57053.99835 1.1511 1.9867 1.7216 2.9851h1.1311l.01001.15974h-1.1411c-.57053.99835-1.1411 1.9867-1.7216 2.9851.58054.98836 1.1511 1.9867 1.7216 2.9751h1.6615v.16972h-1.6615c-.57053.98837-1.1411 1.9867-1.7216 2.9751.58054.98836 1.1511 1.9867 1.7216 2.9751h2.5424v.16972h-2.5424c-.57053.98837-1.1411 1.9867-1.7216 2.9751.58054.99835 1.1511 1.9867 1.7216 2.9851h2.8927v.15974h-2.8927c-.57053.98836-1.1411 1.9867-1.7216 2.9751.57053.99835 1.1511 1.9867 1.7216 2.9851h2.8426l-.02002.15974h-2.8226c-.57053.99835-1.1411 1.9867-1.7216 2.9851.58054.98836 1.1511 1.9867 1.7216 2.9751h3.0328l.03003.15974h-3.0628c-.57053.99835-1.1411 1.9867-1.7216 2.9851.57053.98837 1.1511 1.9867 1.7216 2.9751h2.8126v.16972h-2.8126c-.57053.98836-1.1411 1.9867-1.7216 2.9751.58054.99835 1.1511 1.9867 1.7216 2.9851h.93086c-.04004.0499-.07006.0998-.1101.15974h-.82076c-.57053.98836-1.1411 1.9867-1.7216 2.9751l.06006.0998c-.05005.0299-.09009.0699-.14013.0898l-.06006-.0998h-3.4532l-1.1311 1.9568-.19018.01 1.1811-2.0566c-.57053-.98837-1.1511-1.9867-1.7216-2.9751h-3.4532l-1.7216 2.9751 1.4714 2.5358-.17016.0499c-.48045-.82863-.96089-1.6672-1.4413-2.4959h-3.4532l-1.2111 2.0965-.18017-.02 1.2512-2.1664c-.57053-.98837-1.1511-1.9867-1.7216-2.9751h-3.4532l-1.7216 2.9751 1.2311 2.1365c-.06006 0-.12011 0-.18017.01-.40037-.68886-.80074-1.3777-1.1911-2.0566h-3.4532l-1.4413 2.4859h-.19018c.50046-.85859 1.0009-1.7172 1.4914-2.5758-.58054-.98837-1.1511-1.9867-1.7216-2.9751h-3.4532l-1.7216 2.9751 1.6615 2.8752zm-36.974-57.914-1.7216 2.9851 1.7216 2.9751h3.4532c.57053-.98837 1.1511-1.9867 1.7216-2.9751-.57053-.99835-1.1511-1.9867-1.7216-2.9851zm-1.8617 3.0649h-3.4532l-1.7216 2.9751 1.7216 2.9851h3.4532c.57053-.99835 1.1511-1.9867 1.7216-2.9851-.57053-.98836-1.1511-1.9767-1.7216-2.9751zm10.63 0h-3.4432l-1.7316 2.9751 1.7316 2.9851h3.4432c.57053-.99835 1.1511-1.9867 1.7316-2.9851-.58054-.98836-1.1611-1.9767-1.7316-2.9751zm7.1867 0-1.7316 2.9751 1.7316 2.9851h3.4432c.58054-.99835 1.1511-1.9867 1.7316-2.9851-.58054-.98836-1.1511-1.9767-1.7316-2.9751zm-1.8717 3.0649h-3.4432l-1.7316 2.9751 1.7316 2.9851h3.4432c.58054-.99835 1.1511-1.9867 1.7316-2.9851-.58054-.98837-1.1511-1.9867-1.7316-2.9751zm-14.083 0-1.7216 2.9751 1.7216 2.9851h3.4532c.57053-.99835 1.1511-1.9867 1.7216-2.9851-.57053-.98837-1.1511-1.9867-1.7216-2.9751zm15.955 3.055-1.7316 2.9851 1.7316 2.9751h3.4432c.58054-.98837 1.1511-1.9867 1.7316-2.9751-.58054-.99835-1.1511-1.9867-1.7316-2.9851zm-5.4951 2.9152c-.57053-.9684-1.1311-1.9368-1.6916-2.9152h-3.4432l-1.7316 2.9851 1.7316 2.9751h3.4432c.57053-.98837 1.1511-1.9867 1.7316-2.9751zm10.81-5.9701-1.7316 2.9751 1.7316 2.9851h3.4432c.58054-.99835 1.1511-1.9867 1.7316-2.9851-.58054-.98837-1.1511-1.9867-1.7316-2.9751zm-26.585 3.055-1.7216 2.9851 1.7216 2.9751h3.4532c.57053-.98837 1.1511-1.9867 1.7216-2.9751-.57053-.99835-1.1511-1.9867-1.7216-2.9851zm5.3149 3.0649-1.7216 2.9751 1.7216 2.9851h3.4532c.57053-.99835 1.1511-1.9867 1.7216-2.9851-.57053-.98837-1.1511-1.9867-1.7216-2.9751zm-1.8617 3.0649h-3.4532l-1.7216 2.9751 1.7216 2.9751h3.4532c.57053-.98837 1.1511-1.9867 1.7216-2.9751-.57053-.98837-1.1511-1.9867-1.7216-2.9751zm-3.6334-.14975c-.56052-.9684-1.121-1.9468-1.6816-2.9152h-3.4532l-1.7216 2.9751 1.7216 2.9851h3.4532c.57053-.99835 1.1411-1.9967 1.7216-2.9851zm14.263.14975h-3.4432l-1.7316 2.9751 1.7316 2.9751h3.4432c.57053-.98837 1.1511-1.9867 1.7316-2.9751-.58054-.98837-1.1511-1.9767-1.7216-2.9651zm.14013-.0899 1.7316 2.9851h3.4432c.58054-.99835 1.1511-1.9867 1.7316-2.9851-.58054-.98837-1.1511-1.9867-1.7316-2.9751h-3.4432zm7.0465.0899-1.7316 2.9751 1.7316 2.9751h3.4432c.58054-.98837 1.1511-1.9867 1.7316-2.9751-.58054-.98837-1.1511-1.9867-1.7316-2.9751zm-1.8717 3.055h-3.4432l-1.7316 2.9851 1.7316 2.9751h3.4432c.58054-.99836 1.1511-1.9867 1.7316-2.9751-.58054-.99835-1.1511-1.9867-1.7316-2.9851zm7.1867-6.1199-1.7316 2.9751 1.7316 2.9851h3.4432c.58054-.99835 1.1511-1.9867 1.7316-2.9851-.58054-.98837-1.1611-1.9767-1.7316-2.9751zm-28.446 6.1199h-3.4532l-1.7216 2.9851 1.7216 2.9751h3.4532c.57053-.98837 1.1411-1.9867 1.7216-2.9751-.57053-.99835-1.1511-1.9867-1.7216-2.9851zm7.1767 0-1.7216 2.9851 1.7216 2.9751h3.4532c.57053-.99836 1.1511-1.9867 1.7216-2.9751-.57053-.99835-1.1511-1.9867-1.7216-2.9851zm15.955 3.0649-1.7316 2.9751 1.7316 2.9851h3.4432c.58054-.99835 1.1511-1.9867 1.7316-2.9851-.58054-.98836-1.1511-1.9867-1.7316-2.9751zm-1.8717 3.055h-3.4432l-1.7316 2.9851 1.7316 2.9751h3.4432c.58054-.98836 1.1511-1.9867 1.7316-2.9751-.58054-.99835-1.1511-1.9867-1.7316-2.9851zm-3.5933-.0799c-.57053-.98836-1.1511-1.9767-1.7216-2.9751h-3.4432l-1.7316 2.9751 1.7316 2.9851h3.4432c.57053-.99835 1.1511-1.9867 1.7216-2.9851zm10.78-6.04-1.7316 2.9851 1.7316 2.9751h3.4432c.58054-.99836 1.1511-1.9867 1.7316-2.9751-.58054-.99835-1.1511-1.9867-1.7316-2.9851zm-37.215 9.0251h3.4532c.57053-.99835 1.1511-1.9867 1.7216-2.9851-.57053-.98836-1.1511-1.9867-1.7216-2.9751h-3.4532l-1.7216 2.9751zm3.4532.15974h-3.4532l-1.7216 2.9751 1.7216 2.9851h3.4532c.57053-.99835 1.1511-1.9867 1.7216-2.9851-.57053-.98836-1.1511-1.9767-1.7216-2.9751zm7.1767-6.1199-1.7216 2.9751 1.7216 2.9851h3.4532c.58054-.99835 1.1511-1.9867 1.7216-2.9851-.57053-.98836-1.1411-1.9867-1.7216-2.9751zm-1.8617 3.055h-3.4532l-1.7216 2.9851 1.7216 2.9751h3.4532c.57053-.98836 1.1511-1.9867 1.7216-2.9751-.57053-.99835-1.1511-1.9867-1.7216-2.9851zm7.1767 0-1.7216 2.9851 1.7216 2.9751h3.4532c.57053-.98836 1.1511-1.9867 1.7216-2.9751-.57053-.98837-1.1511-1.9867-1.7216-2.9851zm-1.8617 3.0649h-3.4532l-1.7216 2.9751 1.7216 2.9851h3.4532c.57053-.99835 1.1511-1.9867 1.7216-2.9851-.57053-.98836-1.1511-1.9767-1.7216-2.9751zm10.63 0h-3.4432l-1.7316 2.9751 1.7316 2.9851h3.4432c.57053-.99835 1.1511-1.9867 1.7316-2.9851-.58054-.98836-1.1611-1.9767-1.7316-2.9751zm7.1867 0-1.7316 2.9751 1.7316 2.9851h3.4432c.58054-.99835 1.1511-1.9867 1.7316-2.9851-.58054-.98836-1.1511-1.9767-1.7316-2.9751zm-1.8717 3.0649h-3.4432l-1.7316 2.9751 1.7316 2.9751h3.4432c.58054-.98836 1.1511-1.9767 1.7316-2.9751-.58054-.98837-1.1511-1.9867-1.7316-2.9751zm7.1867-6.1299-1.7316 2.9851 1.7316 2.9751h3.4432c.58054-.98836 1.1511-1.9867 1.7316-2.9751-.58054-.99835-1.1611-1.9867-1.7316-2.9851zm8.7681-21.425h-3.4532l-1.7216 2.9751 1.7216 2.9851h3.4532c.57053-.99835 1.1411-1.9867 1.7216-2.9851-.58054-.98836-1.1611-1.9767-1.7216-2.9751zm10.63 0h-3.4532l-1.7216 2.9751 1.7216 2.9851h3.4532c.57053-.99835 1.1411-1.9867 1.7216-2.9851-.58054-.98836-1.1511-1.9767-1.7216-2.9751zm7.1767 0-1.7216 2.9751 1.7216 2.9851h3.4532c.57053-.99835 1.1511-1.9867 1.7216-2.9851-.57053-.98836-1.1411-1.9867-1.7216-2.9751zm-1.8617 3.0649h-3.4532l-1.7216 2.9751 1.7216 2.9851h3.4532c.57053-.99835 1.1411-1.9867 1.7216-2.9851-.57053-.98837-1.1511-1.9867-1.7216-2.9751zm15.945-3.0649h-3.4532l-1.7216 2.9751 1.7216 2.9851h3.4532c.57053-.99835 1.1511-1.9867 1.7216-2.9851-.57053-.98836-1.1511-1.9767-1.7216-2.9751zm6.8864-.35941-1.5715-2.7055h-3.4532l-1.7216 2.9851 1.7216 2.9751h3.4532l1.7216-2.9751zm-33.461 3.4244h-3.4532l-1.7216 2.9751 1.7216 2.9851h3.4532c.57053-.99835 1.1411-1.9867 1.7216-2.9851-.57053-.98837-1.1511-1.9867-1.7216-2.9751zm12.492 3.055-1.7216 2.9851 1.7216 2.9751h3.4532c.57053-.98837 1.1511-1.9867 1.7216-2.9751-.57053-.99835-1.1411-1.9867-1.7216-2.9851zm-5.5251 2.8653c-.55051-.94843-1.101-1.9068-1.6515-2.8653h-3.4532l-1.7216 2.9851 1.7216 2.9751h3.4532c.57053-.98837 1.1511-1.9867 1.7216-2.9751zm14.293-5.9202h-3.4532l-1.7216 2.9751 1.7216 2.9851h3.4532c.57053-.99835 1.1511-1.9867 1.7216-2.9851-.57053-.98837-1.1511-1.9867-1.7216-2.9751zm10.63 0h-3.4532l-1.7216 2.9751 1.7216 2.9851h3.4532l1.7216-2.9851zm-42.379 6.04 1.7216 2.9751h3.4532c.57053-.98837 1.1411-1.9867 1.7216-2.9751-.58054-.99835-1.1611-1.9867-1.7216-2.9851h-3.4532zm5.1748 3.1448h-3.4532l-1.7216 2.9751 1.7216 2.9751h3.4532c.57053-.98837 1.1411-1.9867 1.7216-2.9751-.57053-.98837-1.1511-1.9767-1.7216-2.9651zm12.492-3.0649-1.7216 2.9751 1.7216 2.9851h3.4532c.57053-.99835 1.1411-1.9867 1.7216-2.9851-.57053-.98837-1.1511-1.9767-1.7216-2.9751zm-1.8617 3.0649h-3.4532l-1.7216 2.9751 1.7216 2.9751h3.4532c.57053-.98837 1.1511-1.9767 1.7216-2.9751-.58054-.98837-1.1511-1.9867-1.7216-2.9751zm-3.5933-.0899c-.58054-.98837-1.1511-1.9867-1.7216-2.9751h-3.4532l-1.7216 2.9751 1.7216 2.9851h3.4532c.57053-.99835 1.1411-1.9867 1.7216-2.9851zm10.77.0899-1.7216 2.9751 1.7216 2.9751h3.4532c.57053-.98837 1.1511-1.9867 1.7216-2.9751-.57053-.98837-1.1511-1.9867-1.7216-2.9751zm-1.8617 3.055h-3.4532l-1.7216 2.9851 1.7216 2.9751h3.4532c.57053-.99836 1.1411-1.9867 1.7216-2.9751-.58054-.99835-1.1511-1.9867-1.7216-2.9851zm10.77-6.1998 1.7216 2.9751h3.4532c.57053-.98837 1.1511-1.9867 1.7216-2.9751-.57053-.99835-1.1511-1.9867-1.7216-2.9851h-3.4532zm5.1748 3.1448h-3.4532l-1.7216 2.9751 1.7216 2.9751h3.4532c.57053-.98837 1.1511-1.9867 1.7216-2.9751-.57053-.98837-1.1511-1.9867-1.7216-2.9751zm-3.5933-.0899c-.57053-.98837-1.1511-1.9767-1.7216-2.9751h-3.4532l-1.7216 2.9751 1.7216 2.9851h3.4532c.57053-.99835 1.1511-1.9867 1.7216-2.9851zm10.48-.26956-1.5715-2.7055h-3.4532l-1.7216 2.9751 1.7216 2.9851h3.4532l1.7216-2.9851zm-33.461 3.4144h-3.4532l-1.7216 2.9851 1.7216 2.9751h3.4532c.57053-.99836 1.1411-1.9867 1.7216-2.9751-.58054-.99835-1.1511-1.9867-1.7216-2.9851zm12.492 3.0649-1.7216 2.9751 1.7216 2.9851h3.4532c.57053-.99835 1.1511-1.9867 1.7216-2.9851-.57053-.98836-1.1411-1.9767-1.7116-2.9651l-.01001-.01zm-1.8617 3.055h-3.4532l-1.7216 2.9851 1.7216 2.9751h3.4532c.57053-.98836 1.1411-1.9867 1.7216-2.9751-.57053-.99835-1.1511-1.9867-1.7216-2.9851zm-3.6634-.18968c-.55051-.95842-1.101-1.9168-1.6515-2.8653h-3.4532l-1.7216 2.9751 1.7216 2.9851h3.4532c.57053-.99835 1.1511-1.9867 1.7216-2.9851zm14.293-5.9302h-3.4532l-1.7216 2.9851 1.7216 2.9751h3.4532c.57053-.99836 1.1511-1.9867 1.7216-2.9751-.57053-.99835-1.1511-1.9867-1.7216-2.9851zm10.63 0h-3.4532l-1.7216 2.9851 1.7216 2.9751h3.4532l1.7216-2.9751zm-42.379 6.04 1.7216 2.9851h3.4532c.57053-.99835 1.1411-1.9867 1.7216-2.9851-.58054-.98836-1.1611-1.9867-1.7216-2.9751h-3.4532zm5.1748 3.1448h-3.4532l-1.7216 2.9751 1.7216 2.9851h3.4532c.57053-.99835 1.1411-1.9867 1.7216-2.9851-.58054-.98836-1.1511-1.9767-1.7216-2.9751zm5.3149-3.0649h-3.4532l-1.7216 2.9851 1.7216 2.9751h3.4532c.57053-.98836 1.1411-1.9867 1.7216-2.9751-.57053-.99835-1.1511-1.9867-1.7216-2.9851zm5.3149 3.0649h-3.4532l-1.7216 2.9751 1.7216 2.9851h3.4532c.57053-.99835 1.1411-1.9867 1.7216-2.9851-.58054-.98836-1.1511-1.9767-1.7216-2.9751zm7.1767 0-1.7216 2.9751 1.7216 2.9851h3.4532c.57053-.99835 1.1511-1.9867 1.7216-2.9851-.57053-.98836-1.1511-1.9767-1.7216-2.9751zm-1.8617 3.0649h-3.4532l-1.7216 2.9751 1.7216 2.9751h3.4532c.57053-.98836 1.1411-1.9867 1.7216-2.9751-.58054-.98837-1.1511-1.9867-1.7216-2.9751zm10.63-6.1299h-3.4532l-1.7216 2.9851 1.7216 2.9751h3.4532c.57053-.98836 1.1511-1.9867 1.7216-2.9751-.57053-.99835-1.1611-1.9867-1.7216-2.9851zm.14013-.0799 1.7216 2.9851h3.4532c.57053-.99835 1.1511-1.9867 1.7216-2.9851-.57053-.98836-1.1511-1.9867-1.7216-2.9751h-3.4532zm5.1748 3.1448h-3.4532l-1.7216 2.9751 1.7216 2.9851h3.4532c.57053-.99835 1.1511-1.9867 1.7216-2.9851-.57053-.98836-1.1511-1.9767-1.7216-2.9751zm5.3149-3.0649h-3.4532l-1.7216 2.9851 1.7216 2.9751h3.4532l1.7216-2.9751zm-74.419 6.1299h-3.4532l-1.7216 2.9751 1.7216 2.9751h3.4532c.57053-.98836 1.1411-1.9767 1.7116-2.9651l.01001-.01c-.57053-.98837-1.1511-1.9867-1.7216-2.9751zm7.1767 0-1.7216 2.9751 1.7216 2.9751h3.4532c.57053-.98836 1.1511-1.9867 1.7216-2.9751-.57053-.98837-1.1511-1.9867-1.7216-2.9751zm15.955 3.055-1.7316 2.9851 1.7316 2.9751h3.4432c.58054-.98837 1.1511-1.9867 1.7316-2.9751-.58054-.99836-1.1511-1.9867-1.7316-2.9851zm-1.8717 3.0649h-3.4432l-1.7316 2.9751 1.7316 2.9851h3.4432c.58054-.99834 1.1511-1.9867 1.7316-2.9851-.58054-.98837-1.1511-1.9867-1.7316-2.9751zm-3.5933-.0799c-.57053-.99836-1.1511-1.9867-1.7216-2.9851h-3.4432l-1.7316 2.9851 1.7316 2.9751h3.4432c.58054-.98837 1.1511-1.9867 1.7216-2.9751zm10.78-6.04-1.7316 2.9751 1.7316 2.9751h3.4432c.58054-.98836 1.1511-1.9867 1.7316-2.9751-.57053-.99835-1.1511-1.9867-1.7316-2.9751zm-37.215 9.0151h3.4532c.57053-.98837 1.1511-1.9867 1.7216-2.9751-.57053-.99836-1.1511-1.9867-1.7216-2.9851h-3.4532l-1.7216 2.9851zm10.63-5.9602-1.7216 2.9851 1.7216 2.9751h3.4532c.58054-.98837 1.1511-1.9867 1.7216-2.9751-.57053-.99836-1.1411-1.9867-1.7216-2.9851zm-1.8617 3.0649h-3.4532l-1.7216 2.9751 1.7216 2.9851h3.4532c.15014-.25956 1.7216-2.9751 1.7216-2.9851-.57053-.98837-1.1511-1.9867-1.7216-2.9751zm7.1767 0-1.7216 2.9751 1.7216 2.9851h3.4532c.57053-.99834 1.1511-1.9867 1.7216-2.9851-.57053-.98837-1.1511-1.9767-1.7216-2.9751zm-1.8617 3.055h-3.4532l-1.7216 2.9851 1.7216 2.9751h3.4532c.57053-.98837 1.1511-1.9867 1.7216-2.9751-.57053-.99835-1.1511-1.9867-1.7216-2.9851zm10.63 0h-3.4432l-1.7316 2.9851 1.7316 2.9751h3.4432c.57053-.98837 1.1511-1.9867 1.7316-2.9751-.58054-.99835-1.1611-1.9867-1.7316-2.9851zm7.1867 0-1.7316 2.9851 1.7316 2.9751h3.4432c.58054-.98837 1.1511-1.9867 1.7316-2.9751-.58054-.99835-1.1511-1.9867-1.7316-2.9851zm5.3149-3.055-1.7316 2.9751 1.7316 2.9851h3.4432c.58054-.99834 1.1511-1.9867 1.7316-2.9851-.58054-.98837-1.1511-1.9767-1.7216-2.9651l-.01001-.01zm-21.27 6.1199-1.7216 2.9751 1.7216 2.9851h3.4532c.57053-.99835 1.1511-1.9867 1.7216-2.9851-.57053-.98837-1.1511-1.9767-1.7216-2.9751zm-5.4951 2.9152c-.56052-.96841-1.121-1.9468-1.6816-2.9152h-3.4532l-1.7216 2.9751 1.7216 2.9851h3.4532c.57053-.98836 1.1411-1.9767 1.7116-2.9651l.01001-.02zm14.403.0599 1.7316 2.9851h3.4432c.58054-.99835 1.1511-1.9867 1.7316-2.9851-.58054-.98837-1.1511-1.9767-1.7316-2.9751h-3.4432zm7.0465.0899-1.7316 2.9751 1.7316 2.9851h3.4432c.58054-.99835 1.1511-1.9867 1.7316-2.9851-.58054-.98837-1.1511-1.9867-1.7316-2.9751zm-1.8717 3.055h-3.4432l-1.7316 2.9851 1.7316 2.9751h3.4432c.58054-.98836 1.1511-1.9867 1.7316-2.9751-.58054-.99835-1.1511-1.9867-1.7316-2.9851zm-3.5933-.0799c-.57053-.98837-1.1511-1.9867-1.7216-2.9751h-3.4432l-1.7316 2.9751 1.7316 2.9851h3.4432c.58054-.99835 1.1511-1.9867 1.7216-2.9851zm10.78-6.04-1.7316 2.9751 1.7316 2.9851h3.4432c.58054-.99835 1.1511-1.9867 1.7316-2.9851-.57053-.98837-1.1611-1.9767-1.7316-2.9751zm-26.585 3.0649-1.7216 2.9751 1.7216 2.9851h3.4532c.58054-.99835 1.1511-1.9867 1.7216-2.9851-.57053-.98837-1.1511-1.9867-1.7216-2.9751zm5.3149 3.055-1.7216 2.9851 1.7216 2.9751h3.4532c.57053-.98836 1.1511-1.9867 1.7216-2.9751-.57053-.99835-1.1511-1.9867-1.7216-2.9851zm21.27 0-1.7316 2.9851 1.7316 2.9751h3.4432c.58054-.98836 1.1511-1.9867 1.7316-2.9751-.58054-.98837-1.1511-1.9767-1.7216-2.9651l-.01001-.02zm14.083-18.36h-3.4532l-1.7216 2.9751 1.7216 2.9751h3.4532c.57053-.98836 1.1411-1.9867 1.7216-2.9751-.58054-.98837-1.1511-1.9867-1.7216-2.9751zm12.492 3.055-1.7216 2.9851 1.7216 2.9751h3.4532c.57053-.98837 1.1511-1.9867 1.7216-2.9751-.57053-.98837-1.1411-1.9767-1.7116-2.9651l-.01001-.02zm-1.8617 3.0649h-3.4532l-1.7216 2.9751 1.7216 2.9851h3.4532c.57053-.99834 1.1411-1.9867 1.7216-2.9851-.57053-.98837-1.1511-1.9767-1.7216-2.9751zm-3.6634-.19967c-.55051-.94843-1.101-1.9068-1.6515-2.8653h-3.4532l-1.7216 2.9851 1.7216 2.9751h3.4532c.57053-.98837 1.1511-1.9867 1.7216-2.9751zm14.293-5.9202h-3.4532l-1.7216 2.9751 1.7216 2.9751h3.4532c.57053-.98836 1.1511-1.9867 1.7216-2.9751-.57053-.99835-1.1511-1.9867-1.7216-2.9751zm10.63 0h-3.4532l-1.7216 2.9751 1.7216 2.9751h3.4532l1.7216-2.9751zm-42.379 6.04 1.7216 2.9751h3.4532c.57053-.98837 1.1411-1.9867 1.7216-2.9751-.58054-.99836-1.1611-1.9867-1.7216-2.9851h-3.4532zm5.1748 3.1348h-3.4532l-1.7216 2.9851 1.7216 2.9751h3.4532c.57053-.98837 1.1411-1.9867 1.7216-2.9751-.58054-.99835-1.1511-1.9867-1.7216-2.9851zm5.3149-3.055h-3.4532l-1.7216 2.9751 1.7216 2.9851h3.4532c.57053-.99834 1.1411-1.9867 1.7216-2.9851-.58054-.98837-1.1511-1.9867-1.7216-2.9751zm5.3149 3.055h-3.4532l-1.7216 2.9851 1.7216 2.9751h3.4532c.57053-.98837 1.1511-1.9867 1.7216-2.9751-.58054-.98837-1.1511-1.9867-1.7216-2.9851zm7.1767 0-1.7216 2.9851 1.7216 2.9751h3.4532c.57053-.98837 1.1511-1.9867 1.7216-2.9751-.57053-.99835-1.1511-1.9867-1.7216-2.9851zm8.7681-3.055h-3.4532l-1.7216 2.9751 1.7216 2.9851h3.4532c.57053-.99834 1.1511-1.9867 1.7216-2.9851-.57053-.98837-1.1411-1.9767-1.7116-2.9651zm.14013-.0799 1.7216 2.9751h3.4532c.57053-.98837 1.1511-1.9867 1.7216-2.9751-.57053-.99836-1.1511-1.9867-1.7216-2.9851h-3.4532zm5.1748 3.1348h-3.4532l-1.7216 2.9851 1.7216 2.9751h3.4532c.57053-.98837 1.1511-1.9867 1.7216-2.9751-.57053-.99835-1.1511-1.9867-1.7216-2.9851zm5.3149-3.055h-3.4532l-1.7216 2.9751 1.7216 2.9851h3.4532l1.7216-2.9851zm-24.713 6.1199-1.7216 2.9751 1.7216 2.9851h3.4532c.57053-.99835 1.1411-1.9867 1.7216-2.9851-.57053-.98837-1.1511-1.9767-1.7216-2.9751zm-5.4951 2.9152c-.56052-.96837-1.121-1.9468-1.6816-2.9152h-3.4532l-1.7216 2.9751 1.7216 2.9851h3.4532c.57053-.99835 1.1411-1.9867 1.7216-2.9851zm10.81.14975-1.7216 2.9751 1.7216 2.9851h3.4532c.57053-.99835 1.1511-1.9867 1.7216-2.9851-.57053-.98837-1.1411-1.9867-1.7216-2.9751zm-1.8617 3.055h-3.4532l-1.7216 2.9851 1.7216 2.9751h3.4532c.57053-.98836 1.1411-1.9867 1.7216-2.9751-.57053-.99835-1.1511-1.9867-1.7216-2.9851zm-3.6634-.18969c-.55051-.95841-1.101-1.9168-1.6515-2.8653h-3.4532l-1.7216 2.9751 1.7216 2.9851h3.4532c.57053-.99835 1.1511-1.9867 1.7216-2.9851zm15.975-3.015c-.56052-.96841-1.1311-1.9368-1.6816-2.9152h-3.4532l-1.7216 2.9751 1.7216 2.9851h3.4532c.57053-.99835 1.1511-1.9867 1.7216-2.9851zm10.159-.82864-1.2111-2.0866h-3.4532l-1.7216 2.9751 1.7216 2.9851h3.4532l1.7216-2.9851zm-43.591 3.9535 1.7216 2.9851h3.4532c.57053-.99835 1.1411-1.9867 1.7216-2.9851-.58054-.98837-1.1611-1.9867-1.7216-2.9751h-3.4532zm10.49.0799h-3.4532l-1.7216 2.9851 1.7216 2.9751h3.4532c.57053-.98836 1.1411-1.9867 1.7216-2.9751-.58054-.99835-1.1511-1.9867-1.7216-2.9851zm21.26 0h-3.4532l-1.7216 2.9851 1.7216 2.9751h3.4532c.57053-.98836 1.1511-1.9867 1.7216-2.9751-.57053-.98837-1.1411-1.9767-1.7116-2.9651zm.14013-.0799 1.7216 2.9851h3.4532c.57053-.99835 1.1511-1.9867 1.7216-2.9851-.57053-.98837-1.1511-1.9867-1.7216-2.9751h-3.4532zm10.49.0799h-3.4532l-1.7216 2.9851 1.7216 2.9751h3.4532l1.7216-2.9751z"  fill-rule="evenodd"/></g></svg>
