<svg id="svg850" version="1.1" viewBox="0 0 211.67 183.09" xmlns="http://www.w3.org/2000/svg"><g id="layer1" transform="translate(-39.509 -68.084)"><path id="path1679" d="m142.08 118.29-.0217.0757c-.11462.36702-.24035.723-.36042 1.0792-.12008.34004-.24561.66951-.37115.99874l-.005.0159-.011.0162-.005.0162-.011.038-.005.005c-.30571.78258-.63342 1.5436-.97729 2.2777-.34934.74485-.70956 1.468-1.0807 2.1696-.51856.99851-1.0478 1.9486-1.5609 2.8822l-.3221.57744-.1037.18886c-.0983.1835-.19662.36152-.28942.52885l-.0107.0218-.006.005-.011.0215v.006l-.005.0106-.005.006-.006.0106-.0217.038-.006.0106c-.39845.72862-.78035 1.452-1.1351 2.1699-.34389.70701-.66586 1.4086-.94968 2.1157l-.0437.10252c-.24018.61528-.45874 1.2358-.63885 1.8674-.18012.63149-.32727 1.2683-.42552 1.9268l-.0383.21065h.005c-.0273.18891-.0489.37235-.0707.56125-.0218.2105-.0384.42089-.0493.63137h-.005l-.005.16204c-.0164.3562-.0219.72328-.011 1.0957.0109.37237.0382.7502.0764 1.1334.0327.27528.0708.55037.1254.82023.0491.25904.1094.51824.18035.7719l.0437.15645c.18557.63144.43107 1.2414.73128 1.8243.31656.62067.69319 1.2088 1.1244 1.7648l.0874.11343c.38756.49114.81881.96077 1.2828 1.398.47486.44801.98785.86883 1.5282 1.2574l.11469.081c.55127.38858 1.1299.73954 1.7303 1.058.59495.31842 1.2062.59905 1.8393.84732l.14739.0592c.72593.27526 1.4737.50738 2.2325.69088.72048.17811 1.4518.30225 2.1778.3886.17465.0162.34386.0324.51853.0486h-.005c.17465.0108.34379.027.50753.0324.23472.0107.46417.0215.69888.0215.67136 0 1.3426.006 2.0194.006h5.5345c5.8164-.0134 11.633-.0413 17.45-.0581-.0537-.0464-.0995-.0961-.13611-.1489l-3.443.0101 1.834-1.7971 1.4939 1.4684c-.005-.0611-.00022-.12247.0141-.18271l-1.4048-1.3809c1.0589-1.0471 2.1233-2.0886 3.1822-3.1304l.0437-.0433.033.0377.049.0433.0437.0486c.87879.85816 1.7522 1.7217 2.6255 2.58l-1.3901 1.3647c.0687.001.13774-.00053.20684-.003l1.2873-1.2667.68393.67188c.0293-.0368.0579-.0741.0859-.11202l-.66646-.65484.52388-.51822.0547-.0539.038-.0377c.86783-.85276 1.7414-1.7057 2.6092-2.5585l.18768.1841c-.00022-.0603.00014-.12244.001-.20534l-.0848-.0835.0772-.076c-.008-.0437-.0149-.0875-.0124-.13158.001-.0257.004-.0435.005-.0654l-.17388.17042-2.7564-2.704 1.6046-1.576 1.6212-1.5921.47342.46487c-.0103-.0582-.0197-.11092-.0358-.2274-.00052-.004.00053-.008.00023-.012l-.33422-.32798.2711-.26597c-.0231-.0426-.0591-.10151-.0713-.13018l-.30351.29891-2.7509-2.7092 1.6099-1.5816 1.2816-1.2586c.001-.0541-.00022-.10829.003-.16232.001-.014.004-.0279.006-.0419l-.84823.83419-2.156 2.1159-2.7564-2.7095 3.2258-3.168 2.4396 2.3976c-.006-.0445-.0118-.0641-.0189-.13131-.003-.0311.001-.0626.00022-.0939l-2.3168-2.2724 2.0298-1.9969c-.01-.0491-.0151-.0683-.0338-.16343-.69644.68327-1.3984 1.372-2.1003 2.0606l-2.7509-2.704 3.2258-3.1683 1.5505 1.5209c.001-.0667.00022-.13345.005-.20003l-1.4511-1.4259 1.3078-1.2843c-.0205-.0874-.0371-.13803-.0437-.16203l-1.3679 1.3435-2.7566-2.7037 3.2258-3.1683.3872.37967c-.0167-.0781-.0272-.15544-.0302-.23328l-.25306-.24891.26264-.25703c-.0132-.0825-.0334-.16439-.0434-.23718-.003-.0192-.004-.0384-.007-.0575l-.60616.23076-.0764.0321-.0273.0109c-.79688.30225-1.5718.58835-2.3579.85822-.8133.28065-1.6266.54523-2.4672.7881l-.022.005-.0164.005c-.41483.11873-.83504.23224-1.2608.34558-.42028.10255-.85146.20513-1.2881.30228l-.0437.0106-.0437.0109c-.43124.0917-.87331.1836-1.3318.26456-.45845.0864-.9388.1672-1.4355.24277-.595.0863-1.2119.1726-1.8559.24278-.62772.0702-1.2826.13507-1.9703.19444h-.0327l-.033.005c-.34389.027-.69859.0541-1.0534.0757-.35479.0216-.70965.0432-1.0754.0648h-.06l-.0271.005h-.0273c-.56769.027-1.1519.054-1.7523.0701-.60045.0216-1.217.0379-1.8556.0433h-.0273l-.54051.0106-.44751.006c-.32201-.005-.64408-.0109-.96067-.0271-.3002-.0107-.60026-.027-.89501-.0486h-.0273c-.44209-.0324-.879-.0754-1.3047-.12933-.40393-.0486-.79688-.10816-1.1844-.17293h-.0217l-.0163-.005-.022-.005c-.79144-.1347-1.5554-.3075-2.3032-.5018-.7423-.19972-1.4739-.42108-2.1998-.66937l-.011-.005-.0164-.005c-.28383-.0972-.56224-.19447-.84062-.29701-.3002-.10794-.58949-.21584-.87331-.32379l-.0327-.0109-.022-.005c-.37099-.14032-.74198-.28609-1.1186-.4372-.33843-.13493-.72605-.28592-1.119-.44784l-.0217-.006-.022-.0106-.0163-.006-.0217-.0109-.0437-.0159-.17471-.0704c-1.1355-.45335-2.3254-.93352-3.619-1.4139zm.093.18633c1.2554.46958 2.4237.93399 3.5426 1.3873l.12005.043c-.83511.81497-1.6596 1.63-2.4892 2.4451l-1.2118-1.1876-.67662-.66378c.12554-.33463.25106-.66934.37114-1.0094.12009-.33463.23464-.67465.3438-1.0147zm38.584.79899-.30039.29697-.13076-.12963.32183-.12403zm-.57854.22126.17444.17265c-1.0753 1.0525-2.1506 2.1158-3.2258 3.1737l-.64392-.63696-1.0864-1.0686c.80239-.2321 1.5831-.48584 2.3582-.75569.80233-.27528 1.5992-.57201 2.4235-.88504zm-34.202.47018c.3712.15112.748.29682 1.1574.45872.39301.15652.78035.30769 1.1624.45341l1.13 1.1119-3.2258 3.168-2.7565-2.7037.10906-.10812.011-.0106zm-4.5734.67383 1.8393 1.8134-3.2258 3.1683-.63321-.62075c.36024-.69085.71514-1.4032 1.059-2.1318.33292-.71783.65501-1.4573.96067-2.2291zm7.2269.3615c.19102.0702.37644.14029.55656.20505.25654.0918.5077.18352.76426.26987l-.42017.41012-.0166-.0159-.0217-.0162-.0163-.0215-.022-.0162-.0164-.0218-.0217-.0215-.0163-.0162-.022-.0215-.0217-.0162c-.24015-.23747-.48031-.48023-.72592-.71771zm26.609.18383 1.1134 1.0901.67689.66407-3.2258 3.168-2.7564-2.704 1.5883-1.5597c.4585-.10255.90613-.20515 1.3428-.31849.42574-.10794.84597-.22125 1.2608-.34zm-25.141.34642c.71502.23747 1.4354.45886 2.1668.65316.70957.1889 1.4302.35061 2.1834.48554-.68776.67463-1.3753 1.3494-2.0631 2.024l-.033-.0377-.049-.0433-.0927-.0916-.0437-.0433-.0493-.0486c-.82966-.81502-1.6536-1.6245-2.4833-2.4395zm22.276.36597c-.45844.44801-.91135.89599-1.3698 1.3494l-.0273.0271-.0273.0215-.006.005-.98238-.96075c.44211-.0702.87337-.1403 1.2991-.22126.3766-.0702.74771-.1403 1.1134-.22126zm-22.843.1897.13076.12963.0383.0433c.86243.84194 1.7248 1.6893 2.5873 2.5366l-3.2314 3.168-2.7509-2.7092.29477-.28608.022-.0215.14174-.14052zm20.256.27992 1.0537 1.0362-3.226 3.1683-2.7509-2.704 1.0807-1.0633h.00022c.70411-.0594 1.37-.12419 2.0141-.19975.63317-.0702 1.2443-.15112 1.8284-.23747zm-26.44.18383 2.7509 2.704-3.2258 3.1737-2.7564-2.7092zm11.277.15086c.39301.0648.79692.12401 1.2118.17796.41483.0486.84611.0917 1.2828.12403l1.3538 1.3278-3.2258 3.168-2.7565-2.704zm11.097.11873c-.31656.31301-.63863.63151-.96067.94455l-.84598-.82581c.32746-.0162.63855-.0379.94967-.0595.29475-.0162.57859-.0376.85696-.0592zm-1.9978.12935.93334.91745-3.2258 3.1683-2.7564-2.704 1.2881-1.263c.6768-.0108 1.3261-.0268 1.9484-.043.62773-.0216 1.2337-.0487 1.8124-.0757zm-6.3807.0701c.24013.0162.4802.0272.73129.038.31656.0107.63852.0161.96602.0215l.71521-.006-1.1791 1.1552zm19.786.0246.0874.0863.0927.0863.26208.25897.0871.0863.0874.081.17471.17265.17471.17293.0874.0863 1.703 1.6731-3.2258 3.168-.0437-.0433-.0437-.0377-.0437-.043-.0437-.0433c-.85698-.84735-1.7194-1.6893-2.582-2.5366l.25108-.24277.011-.0109.071-.0701.0547-.0595.0273-.0215zm-6.1844.46403 2.7565 2.704-3.2258 3.168-.0874-.0863-.0437-.0377-.0437-.0433c-.86243-.84735-1.7194-1.6947-2.582-2.5366zm-6.1839.45816 2.7565 2.7092-3.2314 3.168-.0383-.043-.0874-.0866-.0434-.0377c-.86243-.84735-1.7194-1.6947-2.582-2.5366l.24573-.24278zm16.66.27015-.008.008c.0182.0369.0507.11468.0454.0835-.006-.0324-.0223-.0617-.0369-.0916zm-22.846.19333 2.7509 2.7095-3.2258 3.168-.0437-.0433-.0437-.043-.038-.0433-.0437-.0377c-.86243-.84735-1.7248-1.6947-2.5873-2.5366l.25109-.24836zm-6.1892.46347 2.7564 2.7095-3.2258 3.168-2.7564-2.7093.0434-.038.022-.0268.06-.0539.071-.0757.011-.005zm-13.073.23662.60053.58836-1.9597 1.9268c.45305-.81496.91156-1.6516 1.3591-2.5152zm6.8881.2274 2.7564 2.704-3.2258 3.1737-2.7565-2.7093zm-6.1842.4632 2.7509 2.704-3.2258 3.1683-2.1834-2.1427-.29477-.29138.3111-.56685.3331-.60456zm33.787.4942 2.7509 2.704-3.2258 3.168-2.7565-2.704zm-6.1895.45817 2.7565 2.7092-3.2258 3.168-2.7566-2.704zm-6.1842.46346 2.7564 2.7093-3.2258 3.1683-2.7566-2.7093zm-6.1842.46376 2.7509 2.704-3.2258 3.1734-2.7509-2.7093zm-6.1898.46402.0383.0377.049.0433.093.0916.0927.0919c.8242.81503 1.6539 1.6245 2.4836 2.4395l-3.2258 3.168-2.7565-2.704.093-.0863.0217-.0215zm-6.1844.4632 2.7565 2.704-3.226 3.168-2.7564-2.704.0874-.0863.0217-.0215zm33.787.48834 2.7564 2.7095-3.2258 3.168-2.7564-2.704.12005-.11873zm-39.665.27265c.74775.7394 1.501 1.4733 2.2488 2.2073l.0983.10253.1037.0972-3.2312 3.1683-1.3048-1.2845c.28929-.72322.61687-1.4411.97166-2.159.34934-.70706.72587-1.414 1.1134-2.1318zm33.481.19109 2.7509 2.7093-3.2258 3.168-2.7509-2.7093.12005-.11342zm-6.1898.46346 2.7564 2.704-3.2258 3.1737-2.7564-2.7092.12005-.11874zm-6.1842.46375 2.7565 2.704-3.226 3.1683-2.7564-2.704zm-6.1844.46376 2.7564 2.704-3.2312 3.168-2.7509-2.704zm-6.1841.46347 2.7509 2.704-3.2258 3.1683-2.7565-2.704zm-6.1898.46402 2.7566 2.704-3.2258 3.168-2.7565-2.704zm33.787.48862.0817.081.0493.0486.0927.0919.0437.043 2.4889 2.4451-3.2258 3.168-2.7564-2.7096zm-6.1839.46346.0817.081.0437.0486.049.0433.0437.043.0493.0486c.82966.81497 1.6593 1.6299 2.4889 2.4395l-3.2312 3.1737-2.7512-2.7093zm-6.1844.46376.0327.0377.0493.0433.0434.043.0493.0486.0927.0919c.82421.81496 1.6539 1.6245 2.4836 2.4395l-3.2258 3.168-2.7566-2.704.093-.0863.0217-.0215zm-6.1898.4632 2.7565 2.704-3.226 3.168-2.7564-2.704.0874-.0863.0217-.0215zm-19.917.048 1.2608 1.2415-2.2488 2.2076v-.00022c.0983-.57748.22937-1.1387.39312-1.6947.1692-.5937.36565-1.1767.59488-1.7542zm13.732.41541 2.7564 2.704-3.2258 3.1683-2.7564-2.704.0927-.0919.0163-.0162zm-6.1842.45845 2.7509 2.7093-3.2258 3.1683-2.7509-2.704.0874-.0919.0217-.016zm-6.1891.46487 2.7564 2.7093-3.2258 3.168-2.0687-2.0347c.011-.25366.0328-.50183.0547-.7501.0273-.25366.0599-.50191.0981-.74479zm39.975.0288 2.7509 2.704-3.226 3.1737-2.7564-2.7095.0927-.0863.022-.0215zm-6.1898.46376 2.7564 2.7037-3.2258 3.1683-2.7565-2.704.0874-.0863.022-.0215zm-6.1839.46346 2.7564 2.704-3.2258 3.168-2.7565-2.7037zm-6.1844.46403 2.7509 2.7037-3.226 3.1683-2.7509-2.704zm-6.1898.46346 2.7564 2.704-3.2258 3.168-2.7564-2.704zm-6.1842.45845 2.7564 2.7093-3.2258 3.168-2.7564-2.7037zm-6.1842.46376 2.7565 2.7093-3.2314 3.1683-2.7509-2.7093zm39.971.0299 2.7564 2.704-3.2258 3.168-1.8559-1.8134-.038-.0433-.0437-.043-.0874-.0866-.0437-.043-.68789-.67467zm-6.1844.46346 2.7509 2.704-3.2258 3.168-2.7509-2.7037zm-6.1892.46376 2.7564 2.704-3.2258 3.168-2.7564-2.704zm-33.006.27406 1.976 1.9377-1.6265 1.5977c-.0546-.22127-.10907-.44817-.15274-.68026-.0546-.26446-.0928-.53407-.12005-.80933-.0437-.38325-.0657-.75578-.0767-1.1228-.0109-.31307-.0109-.6208 0-.92304zm26.821.18969 2.7564 2.704-3.2258 3.168-2.7565-2.704c.58405-.57208 1.1682-1.1494 1.7523-1.7214zm-6.1844.45873c.91702.9067 1.8341 1.808 2.7565 2.7092l-3.2314 3.1683-2.7509-2.704c.58405-.57749 1.1682-1.1497 1.7523-1.7217zm27.988.36931-.0256.0251c.0186.0191.0384.0382.0513.0601-.0107-.0296-.0158-.0565-.0256-.0852zm-34.174.0944c.91701.9013 1.834 1.808 2.7509 2.7093l-2.2541 2.2129-.97167.95516-2.7565-2.7093c.57314-.55591 1.1409-1.1172 1.7086-1.6731l.0327-.0324.0657-.0648zm-6.1895.46376c.92247.9013 1.8393 1.8027 2.7564 2.704l-2.2325 2.1966-.99337.97696-2.7564-2.7096c.60045-.58829 1.2006-1.1765 1.801-1.7648zm-6.1842.46346.0383.038.0437.043.049.0433.0437.0486.049.043c.84058.83119 1.6865 1.6625 2.5326 2.4883l-2.6036 2.5526c-.41483-.5451-.78594-1.1172-1.0971-1.727-.3057-.5937-.5567-1.2252-.74227-1.8729zm39.971.0299.0383.0324.0437.0486.049.043.0437.0486.093.0863.049.0486.0437.0433.049.0486.0437.043.1364.13522.0493.0486.0437.043c.69315.68004 1.3809 1.3603 2.0741 2.035l-2.2488 2.2074-.97702.96046-2.5436-2.4934-.0383-.0433-.0437-.043-.0437-.038-.0874-.0863c.58405-.57208 1.1682-1.1497 1.7523-1.7217zm-6.1842.46375c.91701.90131 1.8338 1.8027 2.7564 2.704l-2.2488 2.2076-.98237.96075-2.5382-2.4937-.0437-.043-.0437-.0433-.0437-.043-.0817-.081c.58404-.57208 1.1679-1.1497 1.752-1.7217zm-6.1839.45817c.91703.90671 1.834 1.8083 2.7509 2.7095l-2.2435 2.202-.98237.96606-2.7565-2.704.12568-.12404.0544-.0539.071-.0701zm-6.1901.46402.0383.0377.0927.0916c.87333.85816 1.7468 1.7217 2.6255 2.58l-3.226 3.168-2.7564-2.7093.13104-.12404.0437-.0433.0874-.0863zm-6.1842.4632.0383.038.0437.043.049.0486c.87333.85817 1.7468 1.7164 2.6255 2.58l-3.226 3.168-2.7564-2.7093.13104-.12432.0437-.043.0874-.0863zm-6.1842.46403.0327.0377.0493.0433.0437.0486c.87879.8581 1.7519 1.7162 2.6252 2.5744l-3.2258 3.1734-2.7509-2.7093zm-6.1895.46347.0383.038.049.043.0437.0433c.87333.86351 1.7522 1.7217 2.6255 2.58l-2.5545 2.5149c-.54581-.38864-1.059-.80946-1.5339-1.2574-.46396-.43713-.8896-.90123-1.2772-1.3924zm39.977.0296 2.7509 2.704-3.2258 3.168-2.7566-2.704zm-6.1898.46402.038.0324.0437.0486.0493.0433c.87334.85817 1.7466 1.7216 2.6252 2.5797l-3.2258 3.168-2.7564-2.7037.0544-.0542zm-6.1839.45816.0383.0377.0434.0433c.88975.87978 1.7794 1.7542 2.6746 2.6286l-3.2258 3.168-2.7564-2.704c.56768-.56132 1.1352-1.1225 1.7083-1.6784l.0273-.0324.071-.0648zm-6.1844.46402.0327.0377.049.043c.88969.87439 1.7796 1.7542 2.6692 2.6286l-3.2258 3.168-2.7509-2.7093c.56768-.55591 1.1352-1.1172 1.703-1.6731l.0327-.0324.071-.0648zm-6.1898.4632.0383.038.049.043c.8897.87439 1.7796 1.7486 2.6692 2.623l-3.2258 3.1737-2.7565-2.7093c.57314-.55591 1.1409-1.1172 1.7086-1.6731l.0327-.0324.0654-.0701zm27.9.45845-.001.001c.001.004.003.007.001-.001zm-34.084.006.0383.0377.0437.0433c.88976.87438 1.7849 1.7486 2.6746 2.623l-3.2258 3.168-2.7565-2.704c.57859-.57212 1.1627-1.1387 1.7412-1.7109l.049-.0486.0657-.0648zm-6.1839.46347.038.0324.0437.0486c.88975.87438 1.7794 1.7486 2.6746 2.623l-1.7193 1.6894c-.64954-.2537-1.2828-.53969-1.8887-.86352-.58405-.31303-1.1516-.65839-1.692-1.0362zm27.597.9518c.92247.9013 1.8396 1.8083 2.7565 2.7096l-1.9324 1.8997-2.5762.0109-1.4739-1.4518 1.5939-1.5652zm-6.1844.46399c.91703.90131 1.8338 1.8027 2.7564 2.704l-1.4899 1.4625-3.4661.0162-1.026-1.0147 1.5939-1.565zm-6.1841.4632c.917.9013 1.8338 1.8027 2.7564 2.704l-1.037 1.0203-2.1941.005h-2.1834l-.56755-.56125 1.5936-1.5652zm-6.1842.46403c.91701.9013 1.834 1.8027 2.7509 2.704l-.56755.56125h-2.0087c-.67681-.005-1.3484-.005-2.0197-.005-.22926-.005-.45836-.0109-.6876-.0218-.22381-.0108-.4531-.027-.67689-.0486l-.022-.0215zm-6.1895.46375c.91703.9013 1.8339 1.8024 2.7564 2.7037v.00022c-.76417-.081-1.5229-.21609-2.2761-.3942-.73145-.17812-1.4519-.39931-2.156-.66377zm21.419 1.4144 1.3698 1.3494-2.7564.0109zm-6.1895.46432.9277.91214-1.8613.005zm-6.1842.46403.46948.45871h-.93897zm26.388.82888c-.0132.007-.0263.014-.0403.0193-.0179.007.0117-.005.0403-.0193z" fill-rule="evenodd"/></g></svg>
