<svg id="svg5" width="74.049mm" height="10.413mm" version="1.1" viewBox="0 0 74.049 10.413" xmlns="http://www.w3.org/2000/svg"><g id="layer1" transform="translate(-66.647 -118.89)"><path id="path1035" d="m67.027 118.89c.16015.0599.30028.0998.63059.21964l.68063.25957c2.102.78869 4.0538 1.5774 5.9255 2.3361 7.7972 3.1348 14.203 5.7205 23.782 5.7904 10.67-.0799 17.987-.8486 24.072-2.1664 6.0656-1.2979 10.93-3.1548 16.686-5.3911l1.8017-.69885.0901 1.8769-1.4013.54909c-5.8054 2.2563-10.71 4.1332-16.886 5.461-6.1657 1.3278-13.563 2.1065-24.343 2.1764h-.01001c-9.8391-.0599-16.345-2.6856-24.263-5.8803-1.8717-.74876-3.8135-1.5375-5.9055-2.3262-.13012-.0499-.41038-.14975-.67062-.24959-.12011-.0399-.23021-.0699-.57053-.19967z"  fill-rule="evenodd"/></g></svg>
