<svg id="svg850" width="211.67mm" height="183.09mm" version="1.1" viewBox="0 0 211.67 183.09" xmlns="http://www.w3.org/2000/svg"><g id="layer1" transform="translate(-39.509 -68.084)"><path id="path1015" d="m141.55 118.29c.0873.0327.16921.0544.34388.11977l.37117.14155c1.1463.4301 2.2107.86021 3.2368 1.274 4.2466 1.7095 7.7399 3.1196 12.964 3.1577 5.8187-.0436 9.8089-.46277 13.127-1.1814 3.3078-.70778 5.9605-1.7204 9.0994-2.9399l.98252-.38111.0491 1.0235-.75872.29943c-3.1713 1.2304-5.846 2.254-9.2139 2.9781-3.3624.72409-7.3963 1.1487-13.275 1.1869-5.3711-.0327-8.9189-1.4646-13.237-3.2067-1.0152-.40833-2.0797-.83845-3.2204-1.2686-.071-.0272-.2238-.0817-.36571-.13611-.0655-.0218-.12009-.0381-.31113-.10888z" fill-rule="evenodd"/></g></svg>
