<svg id="svg5" version="1.1" viewBox="0 0 91.687 63.682" xmlns="http://www.w3.org/2000/svg"><g id="layer1" transform="translate(-65.445 -124.93)"><path id="path1142" d="m80.949 124.93c.16015.0599.30028.0998.63059.21963l.68063.25957c2.102.7887 4.0538 1.5774 5.9255 2.3361 7.7972 3.1348 14.203 5.7206 23.782 5.7904 10.67-.0799 17.987-.8486 24.072-2.1664 6.0656-1.2979 10.93-3.1548 16.686-5.3911l1.8017-.69884.0901 1.8769-1.4013.54909c-5.8054 2.2563-10.71 4.1332-16.886 5.461-6.1657 1.3278-13.563 2.1065-24.343 2.1764h-.01c-9.8392-.0599-16.345-2.6856-24.263-5.8803-1.8717-.74877-3.8135-1.5375-5.9055-2.3262-.13012-.0499-.41038-.14975-.67062-.24959-.12011-.0399-.23021-.0699-.57053-.19967z" fill-rule="evenodd"/></g></svg>
