<svg id="svg5" width="91.687mm" height="63.682mm" version="1.1" viewBox="0 0 91.687 63.682" xmlns="http://www.w3.org/2000/svg"><g id="layer1" transform="translate(-82.998 -110.66)"><path id="path1015" d="m98.502 110.66c.16015.0599.31029.0998.63059.21963l.68063.25958c2.102.78869 4.0538 1.5774 5.9355 2.3361 7.7872 3.1348 14.193 5.7205 23.772 5.7904 10.67-.0799 17.987-.8486 24.072-2.1664 6.0656-1.2979 10.93-3.1548 16.686-5.3911l1.8017-.69885.0901 1.8769-1.3913.54909c-5.8154 2.2563-10.72 4.1332-16.896 5.461-6.1657 1.3278-13.563 2.1065-24.343 2.1764-9.8492-.0599-16.355-2.6856-24.273-5.8803-1.8617-.74876-3.8136-1.5375-5.9055-2.3262-.13012-.0499-.41038-.14975-.67062-.24959-.12011-.0399-.2202-.0699-.57053-.19967z" fill-rule="evenodd"/></g></svg>
