<svg id="svg5"  version="1.1" viewBox="0 0 91.687 63.682" xmlns="http://www.w3.org/2000/svg"><g id="layer1" transform="translate(-65.445 -124.93)"><path id="path1518" d="m81.609 126.24c2.3222.86096 4.4541 1.7219 6.496 2.5437l.31029.1174.0801.0391.04.01.03.0196.04.01.03.01c.72067.2935 1.4013.56745 2.0119.81204.68063.26415 1.3512.52831 2.0119.7729l.04.0196.06.02c.51047.19567 1.031.39134 1.5614.58701.50047.17611 1.0109.35222 1.5114.52832l.03.01.02.01c1.3012.44026 2.6124.84138 3.9537 1.1936 1.3312.36198 2.7025.66527 4.1338.90986l.03.01h.04l.03.01c.69065.1174 1.4013.22502 2.132.31307.7607.0881 1.5414.16632 2.3422.22503h.04c.53049.0391 1.071.0685 1.6115.0978.57053.0196 1.1411.0293 1.7216.0391l.81075-.01.9609-.01.0601-.01c1.1411-.01 2.2421-.0391 3.3231-.0685 1.081-.0391 2.132-.0783 3.1429-.13696h.1l.05-.01h.06c.6506-.0293 1.2912-.0685 1.9218-.1174.6406-.0391 1.2712-.0881 1.9018-.13697h.05l.0601-.01c1.2312-.0978 2.4022-.21525 3.5333-.34244 1.1611-.12718 2.2721-.28372 3.3331-.44025.90084-.13697 1.7516-.28372 2.5824-.43048.82077-.15653 1.6115-.31307 2.3822-.4794l.12-.03.03-.01c.79073-.16633 1.5614-.35222 2.3222-.54789.76071-.19567 1.5114-.40112 2.2621-.60658l.03-.01.04-.0196c1.5014-.43047 2.9628-.90009 4.4241-1.4088 1.4113-.48918 2.8026-1.0077 4.2339-1.5458l.05-.0196.14014-.0489c.50046-.19567 1.0109-.39134 1.5214-.58702l.02-.01c.60056-.23482 1.2111-.46962 1.8317-.71421l.34032-.12719.19017 2.7785.73068 10.429c.1101 1.5752.22021 3.1405.3203 4.7157v.0293l.03.0196-.02.01.02.3522c.10009 1.448.19017 2.9057.29027 4.3733.10009 1.5262.19017 3.072.28026 4.6276l.10009 1.6241.10009 1.8784c.0601.96857.11011 1.9372.16015 2.9155.05.99792.0901 1.9861.14013 2.984l.01.26415c.05.95878.0901 1.9274.13012 2.8959.03.96857.0701 1.9274.1001 2.8959l.01.33264v-.01c0 .93923 0 2.1524-.0701 3.5025l-.02.33264c-.0701 1.0077-.18017 2.0741-.36033 3.1699-.18017 1.0664-.42039 2.1426-.76071 3.1894l-.0901.27394h-.01c-.45042 1.311-1.061 2.5633-1.8918 3.6493-.83077 1.1056-1.8918 2.0448-3.213 2.71l-.24022.1174c-.6406.30329-1.3513.53811-2.112.70443-.80075.1761-1.6716.26415-2.6324.26415-12.632.0293-25.263.10762-37.895.13697h-9.9392c-1.2111 0-2.4222-.01-3.6234-.01-.42039-.01-.84078-.0196-1.2512-.0391-.30028-.0196-.61057-.0391-.91084-.0587-.31029-.0293-.62058-.0587-.92086-.088v-.01c-1.3112-.14676-2.6224-.37178-3.9136-.68486-1.3613-.33264-2.7025-.74355-4.0037-1.2425l-.27025-.10762c-1.131-.44026-2.2321-.949-3.3031-1.5165-1.081-.57722-2.112-1.2132-3.0929-1.9078l-.22021-.14675c-.9709-.69463-1.8818-1.448-2.7426-2.26-.83077-.78268-1.6015-1.6241-2.3021-2.5046l-.15014-.20545c-.77071-.99793-1.4514-2.0546-2.0219-3.1699-.53049-1.0468-.9709-2.1426-1.3112-3.2775l-.0801-.28372c-.12012-.45983-.23022-.91966-.3203-1.3893-.0901-.47939-.17016-.96857-.22021-1.4675-.0701-.69463-.12011-1.3697-.14013-2.035-.02-.66529-.01-1.3306.02-1.9763l.01-.28373h.01c.02-.38155.05-.75333.0901-1.1349.03-.33264.0701-.67507.12011-1.0077l.0601-.38155c.18017-1.174.44041-2.3285.77072-3.4536.3203-1.1349.71066-2.2502 1.1511-3.3558l.0701-.18589c.51048-1.2719 1.081-2.534 1.7016-3.796.6406-1.2914 1.3312-2.5926 2.0419-3.9036l.01-.0196.04-.0685v-.01l.01-.0196.01-.01.02-.0392.01-.01.02-.0392v-.01l.01-.01c.16015-.29351.33031-.61636.52048-.949l.18017-.33265.58054-1.037c.92086-1.673 1.8717-3.3851 2.8026-5.1755.66061-1.2621 1.3112-2.5633 1.9318-3.9036.62058-1.3208 1.2111-2.6807 1.7616-4.0895v-.01l.03-.0685.01-.0294.01-.0293.01-.0294c.23021-.58701.45042-1.1838.66061-1.7904.23022-.63594.45042-1.2816.65061-1.9469l.04-.12718zm67.903 13.531-5.7954 5.694 4.9446 4.8527c1.2612-1.2327 2.5223-2.4752 3.7835-3.7178l2.0119-1.9665zm-5.1248-5.0385-5.0547 4.9603-.04.0489-.10009.0978-.13012.12718-.02.0196-.45042.43047c1.5514 1.5262 3.0929 3.0427 4.6343 4.5592l.1602.1566.0701.0685.0801.0783 5.7954-5.694-3.0628-3.0036-.47043-.45983-.16015-.15653-.15014-.15654-.16015-.14675-.16015-.15655-.15014-.15653-.16015-.15654-.16015-.15653-.16014-.14676zm4.274 15.947-5.7854 5.694 4.9446 4.8624 3.8636-3.8058 1.9218-1.8882zm-5.7854 5.694m-.37034 0c-1.4814-1.4578-2.9728-2.9253-4.4642-4.383l-.0801-.0881-.0801-.0783-.0901-.0783-.0801-.088-.0801-.0783-.0701-.0685-5.7854 5.694 4.9446 4.8624zm1.031-10.733-5.5752 5.4788-.21019.21523 4.9446 4.8624 5.7854-5.694zm-5.1248-5.0385-5.7954 5.694 4.9446 4.8526 5.7954-5.6843zm-5.1248-5.0385-5.7954 5.694c1.5514 1.5165 3.0929 3.0329 4.6343 4.5494l.1602.1566.0701.0783.0801.0685 5.7954-5.694zm13.503 36.757c-1.2412-1.2132-2.4823-2.4361-3.7134-3.6493l-.0901-.0783-.0801-.088-.0801-.0783-.0901-.0783-.0801-.0881-.1602-.1566-.0901-.088-.0801-.0783-.17016-.16632-.1602-.1566-.0801-.0881-.0701-.0587-2.6424 2.6024c-1.051 1.0273-2.102 2.0546-3.1529 3.0818l.2403.2349.0701.0783.0801.0685 4.5542 4.4809 1.7616-1.7219zm1.031-10.733-5.7954 5.694 1.2412 1.2132.0701.0783.2403.2349.0701.0685 3.3231 3.2677 5.7954-5.694zm-5.7954 5.694m.67062-10.733-5.5952 5.4984-.04.0391-.16015.15653 4.9446 4.8624 5.7854-5.694zm-10.92.6555m-.37034 0c-1.4914-1.4578-2.9728-2.9253-4.4642-4.383l-.0801-.0881-.0801-.0783-.0901-.0783-.0801-.0881-.0801-.0783-.0701-.0685-5.7854 5.694 4.9446 4.8624zm1.031-10.733-5.5752 5.4788-.2102.21523 4.9346 4.8624 5.7954-5.694zm-5.1248-5.0385-5.7954 5.694 4.9446 4.8527 5.7954-5.6843zm-5.1248-5.0386-5.345 5.2538-.45042.44026c1.5514 1.5165 3.0929 3.0329 4.6343 4.5494l.1602.1566.0701.0783.0801.0685 5.7954-5.6843zm29.908 41.15c-1.5514 1.536-3.1129 3.0622-4.6744 4.5983l-.0701.0685-.1001.0978-.94087.92944 3.233 3.1797c1.3212-.65551 2.3722-1.5752 3.193-2.6709.84079-1.1056 1.4514-2.3774 1.9018-3.708zm-6.1557 5.694c-1.5715-1.5458-3.1429-3.0916-4.7144-4.6374l-.1602-.1566-.0701-.0685-.0701.0685c-1.9018 1.8784-3.8136 3.7471-5.7153 5.6255l3.4432 3.3851 3.0128-.01zm1.031-10.733-5.7854 5.694 4.9446 4.8526 5.7854-5.6842zm-6.1557 5.694c-1.5715-1.5458-3.1429-3.0916-4.7144-4.6374l-.0801-.0783-.0801-.088-.0701-.0587-5.6853 5.5962-.10009.0978 4.9446 4.8526zm-5.1248-5.0483c-1.6515-1.6143-3.3031-3.2384-4.9446-4.8526l-2.6525 2.6024c-1.041 1.0273-2.0919 2.0546-3.1429 3.0916l.0801.0685.1602.1566.0701.0783.0801.0685 4.5542 4.4809 1.7616-1.7219zm1.031-10.723-5.7954 5.6842 4.9446 4.8624 5.7954-5.694zm-5.7954 5.6842m.66062-10.733-5.5852 5.4984-.04.0391-.16015.15654 4.9446 4.8624 5.7854-5.694zm-10.91.65551m-.37035 0c-1.4914-1.4578-2.9728-2.9253-4.4642-4.383l-.0801-.088-.0801-.0783-.0901-.0783-.0801-.0881-.0801-.0783-.0701-.0685-5.5952 5.4984-.03.0391-.16015.15654 4.9446 4.8624zm1.031-10.733-5.5752 5.4788-.2202.21524 4.9446 4.8624 5.7954-5.694zm-5.1248-5.0385-5.7954 5.694 4.9446 4.8624 5.7954-5.694zm-5.1248-5.0385-5.355 5.2538-.44041.44027c1.5414 1.5164 3.0929 3.0329 4.6343 4.5494l.1602.1566.0701.0783.0801.0685 5.7854-5.6843zm23.752 46.844c-1.6515-1.6241-3.2931-3.2384-4.9446-4.8624l-2.9227 2.8764-2.8627 2.8177 2.6425 2.6024 4.6143-.0196zm-5.1248-5.0385c-1.6015-1.5752-3.193-3.1405-4.7945-4.7157l-.0801-.0783-.0701-.0685-2.5424 2.5046-.13012.11741-.05.0587c-1.021 1.0077-2.0419 2.0056-3.0628 3.0133l4.9346 4.8527zm-5.1248-5.0386c-1.6515-1.6241-3.3031-3.2481-4.9446-4.8624l-5.345 5.2538-.13012.1174-.0901.0978-.23022.22502 4.9446 4.8526 1.7716-1.7317zm1.031-10.733-5.7954 5.6842 4.9446 4.8624 5.7954-5.694zm-5.7954 5.6842m.66061-10.723-5.7854 5.6843 4.9446 4.8624 5.7854-5.694zm-5.7854 5.6843m-4.4641-15.771-5.7954 5.694 4.9446 4.8624 5.7954-5.694zm-5.7954 5.694m.67062-10.733-5.7954 5.694 4.9446 4.8624 5.7954-5.694zm-6.1557 5.694c-1.4914-1.4675-2.9828-2.9253-4.4641-4.3928l-.0901-.0783-.0801-.0783-.0801-.088-.0901-.0783-.0801-.0783-.0601-.0685-5.5952 5.4984-.04.0391-.16014.15653 4.9446 4.8624zm1.021-10.733-5.415 5.332-.02.01-.13012.13697-.10009.0978-.05.0391-.0701.0783 4.9446 4.8526 5.7854-5.6842zm-4.9346-5.2244c1.4814 1.4675 2.9728 2.9253 4.4541 4.3928l.0901.0783.0801.088.0801.0783.0901.0783.0801.0881.06.0587c1.2412-1.2132 2.4723-2.4263 3.7034-3.6297-1.3512-.24459-2.6424-.53809-3.9136-.87073-1.3212-.35221-2.6124-.75334-3.8936-1.1838zm-.19018.18588-4.9646 4.882-.03.0293-.12012.1174-.1501.14672-.52048.51852 4.9446 4.8526 5.7854-5.6842c-1.5414-1.5262-3.0929-3.0427-4.6343-4.5592l-.0801-.0783-.0701-.0783-.0801-.0685zm28.887 51.882c-1.6515-1.6241-3.2931-3.2384-4.9446-4.8624l-2.9327 2.8862-2.8526 2.8079 1.8417 1.81 6.2158-.0196zm-5.1248-5.0385c-1.6015-1.5752-3.203-3.1405-4.7945-4.7157l-.0801-.0783-.0701-.0685-2.5524 2.5046-.12012.1174-.05.0587c-1.021 1.0077-2.0419 2.0056-3.0729 3.0133l4.9446 4.8624zm-5.1248-5.0385c-1.5715-1.5458-3.1429-3.0916-4.7144-4.6374l-.0801-.0783-.0901-.0783-.0601-.0685-5.3249 5.2342-.16015.14676-.0701.0783-.24022.23482 4.9446 4.8526zm1.031-10.733-2.6525 2.6024c-1.051 1.0273-2.0919 2.0545-3.1429 3.0818l4.9446 4.8624 5.7954-5.694zm-6.1657 5.694c-1.6415-1.6241-3.2931-3.2482-4.9346-4.8624l-2.6525 2.6024c-1.051 1.0273-2.092 2.0545-3.1429 3.0916l4.9446 4.8526zm1.031-10.733-5.7854 5.6843 4.9446 4.8624 5.7854-5.694zm-5.7854 5.6843m.66061-10.733-5.5952 5.4984-.03.0391-.16014.15653 4.9446 4.8624 5.7854-5.694zm-5.1248-5.0385-5.7954 5.694 4.9446 4.8624 5.7954-5.694zm-5.7954 5.694m-4.4642-15.771-5.7854 5.694 4.9446 4.8624 5.7854-5.694zm-4.9446-5.2244 4.9446 4.8624 5.7954-5.694-2.0319-1.9861c-.69064-.26416-1.3813-.5381-2.0819-.81204-.74069-.2935-1.4113-.55766-2.0819-.8316l-4.334 4.2656-.02.0196-.1001.0881zm-.84078 10.918m-5.1248-5.0386 4.9446 4.8527 5.7854-5.6843-4.9446-4.8624zm34.672 46.188c-1.6515-1.6143-3.2931-3.2384-4.9446-4.8624l-2.9327 2.8862-2.8526 2.8079 1.0209 1.0077h3.9236l3.9236-.01zm-5.1248-5.0385c-1.6015-1.5752-3.203-3.1405-4.7945-4.7157l-.0901-.0783-.0601-.0685-2.5524 2.5046-.12011.1174-.05.0587c-1.021 1.0077-2.0519 2.0056-3.0729 3.0133l4.9446 4.8624zm-5.1248-5.0385c-1.5715-1.5458-3.1429-3.0916-4.7144-4.6374l-.0801-.0783-.0901-.0783-.0601-.0685-5.325 5.2342-.16014.14675-.0801.0783-.23022.23481 4.9446 4.8526zm-5.1348-5.0386c-1.6415-1.6241-3.2931-3.2481-4.9446-4.8624l-2.5424 2.5046-.12011.1174-.0601.0587c-1.021.99792-2.0419 2.0056-3.0628 3.0133l4.9446 4.8526 1.7416-1.7121zm1.031-10.733-5.7854 5.6843 4.9446 4.8624 5.7854-5.694zm-5.7854 5.6843m.66062-10.723-5.5952 5.4984-.03.0294-.16015.15654 4.9346 4.8624 5.7954-5.694zm-5.1248-5.0483-5.7954 5.694 4.9446 4.8624 5.7954-5.694zm-5.7954 5.694m.67062-10.733-5.5952 5.4984-.04.0391-.16015.15654 4.9446 4.8624 5.7854-5.694zm18.627 41.805c-1.6515-1.6143-3.2931-3.2384-4.9446-4.8624l-5.7854 5.694.03.0391c.41038.0391.81075.0685 1.2111.0881.42039.0196.83077.0294 1.2412.0391 1.2011 0 2.4122 0 3.6234.01h3.6034zm-5.1248-5.0386c-1.6015-1.5752-3.203-3.1405-4.7945-4.7157l-.0901-.0783-.0601-.0685-2.4623 2.4166-.12012.1174-.0801.088c-1.041 1.0273-2.0919 2.0448-3.1329 3.072l4.9446 4.8624zm-5.1248-5.0385c-1.5815-1.5458-3.1429-3.0916-4.7144-4.6374l-.0901-.0783-.0801-.0783-.0601-.0685-5.7954 5.694 4.9446 4.8624zm-5.1348-5.0385c-1.6415-1.6241-3.2931-3.2384-4.9446-4.8624l-2.5524 2.5144c-1.081 1.0566-2.162 2.123-3.233 3.1797l4.9446 4.8527 1.7817-1.7513zm1.031-10.733-5.7854 5.694 4.9446 4.8526 5.7854-5.694zm-5.7854 5.694m.66061-10.733-5.5952 5.4886-.04.0391-.16015.15654 4.9446 4.8624 5.7954-5.694zm-5.9756 5.5082 5.7954-5.694-4.9446-4.8624-5.7954 5.694zm14.353 26.21c-1.6515-1.6241-3.3031-3.2384-4.9446-4.8624l-3.0028 2.9546c1.2612.47939 2.5524.88053 3.8636 1.1936 1.3513.33264 2.7125.56744 4.0838.7142zm-5.1248-5.0385c-1.6015-1.5752-3.203-3.1405-4.7944-4.7157l-.0901-.0783-.0601-.0685-4.5642 4.4809c.9709.68485 1.9818 1.3012 3.0328 1.8687 1.091.57724 2.2221 1.0958 3.3832 1.5458zm-5.1348-5.0385c-1.5715-1.5458-3.1329-3.0916-4.7044-4.6374l-.0901-.0783-.0801-.0783-.0601-.0685-4.6944 4.6081c.69064.8903 1.4614 1.7219 2.2921 2.5046.8608.81204 1.7816 1.5654 2.7526 2.26zm-5.1248-5.0385c-1.5114-1.4871-3.0328-2.984-4.5442-4.4711l-.0801-.0783-.0901-.0881-.1602-.1566-.0701-.0685-3.0228 2.9742c.3303 1.174.78072 2.2992 1.3312 3.3656.56052 1.0958 1.2211 2.123 1.9718 3.1112zm.19018-.18589 5.7854-5.6842-4.9446-4.8624-5.7854 5.694zm-2.7626-26.2.53049.51852 3.9236 3.8645 5.7854-5.694-4.9446-4.8624-4.1338 4.07-.61057 1.0958zm11.09-12.229-3.3031-3.2481c-.55052 1.3795-1.121 2.71-1.7216 4.0015-.61057 1.311-1.2512 2.5829-1.9018 3.8254l1.131 1.1153zm.36033 0m-7.547 16.436c-1.3412-1.3208-2.6825-2.6416-4.0338-3.9721-.70065 1.2914-1.3713 2.5535-1.9918 3.8254-.6406 1.3012-1.2312 2.5829-1.7416 3.8841l2.3422 2.3089 5.7854-5.694-.18017-.1761zm-2.3122-7.0931 3.5233-3.4634-1.071-1.0566c-.81076 1.5458-1.6415 3.0427-2.4523 4.52zm80.485 1.8784-5.7053 5.6158 4.9446 4.8526 1.3513-1.3208c-.0901-1.5458-.19018-3.0916-.29028-4.657-.10009-1.4871-.19017-2.9938-.30027-4.4907zm.61056 9.4803-1.1911 1.174 1.3312 1.311zm.16015 2.8666-1.5314-1.5165-2.9027 2.847-2.8927 2.847 4.9446 4.8624 2.7025-2.6611c-.05-1.0566-.10009-2.123-.15014-3.1894-.05-1.0566-.1101-2.123-.17016-3.1894zm.34032 6.7213-2.5424 2.4948 2.7426 2.7003c-.03-.86095-.0601-1.7121-.0901-2.5829-.04-.86095-.0701-1.7317-.1101-2.6122zm.2202 5.5668-2.9427-2.8862-5.7954 5.6842 4.9446 4.8624 3.7034-3.6395c.10009-1.536.0901-2.9155.0901-3.9232zm-.12011 4.4124-3.4832 3.434 2.4423 2.397c.32029-.99792.55051-2.0154.72066-3.0329.16015-.949.26025-1.898.3203-2.7981zm-6.476 12.601-3.1629-3.121-4.1038 4.0308 2.7225-.01c.93087 0 1.7917-.088 2.5724-.25437.72067-.15654 1.3713-.37178 1.9718-.64571zm-11.01.91965-3.253-3.209-3.2931 3.2286zm-11.901.0489-2.4623-2.4263-2.4823 2.4459zm-11.891.0489-1.6716-1.6436-1.6716 1.6534zm-11.931.0196-.84078-.83161-.84078.83161zm-35.553-17.464 2.9227-2.8666-3.5433-3.4927c-.02.54788-.03 1.1055-.01 1.6632.02.66528.0601 1.3306.14013 2.0154.05.48918.12012.97836.2102 1.448.0801.42069.18017.83161.28026 1.2327zm-.61057-6.7018 3.7134 3.6493 5.7954-5.694-4.9446-4.8526-4.284 4.2069c-.0701.44025-.13012.8903-.18016 1.3403-.04.45005-.0801.89031-.1001 1.3501zm.35033-3.121 4.0338-3.9623-2.2721-2.2209c-.40038 1.0371-.76071 2.0839-1.061 3.1503-.29027.99793-.52048 2.0056-.70065 3.0329zm84.759-32.56-.96089.94901 3.1029 3.0525-.16015-2.2698-.16015-2.4361-.01.01zm-7.1166 6.643c1.9218-1.898 3.8536-3.8058 5.7854-5.694l-.32029-.31308c-1.4714.55766-2.9127 1.0958-4.344 1.5849-1.4013.48918-2.7926.93923-4.2339 1.3599l1.9518 1.9176zm5.9655-5.8799.5405-.52831-.19018.0783-.58053.22502zm3.3231 3.6297-3.3131-3.2677-5.7954 5.694 4.9446 4.8624 4.3741-4.295zm.23021 3.3264-4.2139 4.1384 4.8345 4.7548c-.10009-1.4871-.20019-2.9742-.31029-4.4515zm-17.586-2.8666-2.8526 2.7981 4.9446 4.8624 5.7854-5.694-1.2111-1.1936-1.9918-1.9567c-.74069.20545-1.5014.41091-2.2721.61636-.78073.19567-1.5815.38157-2.4022.56746zm-2.9327 2.5144c.82077-.80225 1.6415-1.6143 2.4623-2.4165-.6506.13697-1.3212.27394-2.0019.40112-.76071.13697-1.5314.26416-2.3222.39134l1.7616 1.7317.01-.01.04-.0489zm-9.0784-.79247-1.9418 1.9078 4.9446 4.8624 5.7854-5.694-1.8918-1.8589c-1.051.15654-2.142.30329-3.283.43049-1.1511.13697-2.3522.25437-3.6134.3522zm-2.122 1.7317c.57053-.56744 1.1511-1.1349 1.7216-1.7023-.50046.0391-1.0109.0783-1.5414.1174-.55051.0294-1.121.0685-1.7016.0978zm-8.618-1.2523-2.3021 2.2698 4.9446 4.8526 5.7854-5.694-1.6716-1.6436c-1.041.0489-2.122.0978-3.253.13697-1.121.0293-2.2921.0587-3.5033.0783zm-4.7044-.0881 2.2221 2.172 2.112-2.0839-1.2812.0196c-.59055-.01-1.1611-.0196-1.7316-.0391-.45042-.0196-.89083-.0391-1.3212-.0685zm-2.6925-.25437c-.74069-.088-1.4714-.19567-2.182-.32285l-3.8236 3.7667 4.9446 4.8526 5.7854-5.694-2.4222-2.3774c-.79074-.0587-1.5614-.13697-2.3021-.22502zm-12.932-3.3655c.4304.42069.87081.85116 1.3012 1.2816l.04.0294.03.0391.04.0391.03.0294.04.0391.03.0293.04.0391.03.0294.03.0293.7507-.73377c-.45042-.15654-.91085-.32286-1.3713-.48917-.3203-.11741-.65061-.23481-.99093-.36199zm-9.4888 2.4165c1.4914-1.4578 2.9728-2.9253 4.4642-4.3928l-.21019-.0783c-2.0019-.80225-4.0938-1.6436-6.3559-2.4948-.20019.61636-.40037 1.2229-.61057 1.8295-.2202.60658-.44041 1.2132-.67062 1.81l1.2211 1.1936z" fill-rule="evenodd"/></g></svg>
